<svg width="19" height="20" viewBox="0 0 19 20" fill="none" xmlns="http://www.w3.org/2000/svg">
<path d="M9.24683 15.8108C10.4027 15.8108 11.3852 15.3337 12.1943 14.3796C13.0034 13.4255 13.4079 12.267 13.4079 10.904C13.4079 9.541 13.0034 8.38245 12.1943 7.42835C11.3852 6.47425 10.4027 5.9972 9.24683 5.9972C8.09097 5.9972 7.1085 6.47425 6.2994 7.42835C5.4903 8.38245 5.08575 9.541 5.08575 10.904C5.08575 12.267 5.4903 13.4255 6.2994 14.3796C7.1085 15.3337 8.09097 15.8108 9.24683 15.8108ZM9.24683 13.63C8.59955 13.63 8.05245 13.3665 7.60552 12.8395C7.15859 12.3124 6.93512 11.6673 6.93512 10.904C6.93512 10.1407 7.15859 9.49557 7.60552 8.96854C8.05245 8.44151 8.59955 8.178 9.24683 8.178C9.8941 8.178 10.4412 8.44151 10.8881 8.96854C11.3351 9.49557 11.5585 10.1407 11.5585 10.904C11.5585 11.6673 11.3351 12.3124 10.8881 12.8395C10.4412 13.3665 9.8941 13.63 9.24683 13.63ZM1.84937 19.6272C1.34079 19.6272 0.905418 19.4137 0.543251 18.9866C0.181084 18.5595 0 18.0461 0 17.4464V4.3616C0 3.76188 0.181084 3.24848 0.543251 2.82141C0.905418 2.39434 1.34079 2.1808 1.84937 2.1808H4.76212L6.47278 0H12.0209L13.7315 2.1808H16.6443C17.1529 2.1808 17.5882 2.39434 17.9504 2.82141C18.3126 3.24848 18.4937 3.76188 18.4937 4.3616V17.4464C18.4937 18.0461 18.3126 18.5595 17.9504 18.9866C17.5882 19.4137 17.1529 19.6272 16.6443 19.6272H1.84937ZM1.84937 17.4464H16.6443V4.3616H12.8993L11.2118 2.1808H7.28188L5.59433 4.3616H1.84937V17.4464Z" fill="url(#paint0_linear_24_114)"/>
<defs>
<linearGradient id="paint0_linear_24_114" x1="0" y1="9.8136" x2="18.4937" y2="9.8136" gradientUnits="userSpaceOnUse">
<stop stop-color="#FF9501"/>
<stop offset="1" stop-color="#FF8F00"/>
</linearGradient>
</defs>
</svg>
