<svg width="16" height="16" viewBox="0 0 16 16" fill="none" xmlns="http://www.w3.org/2000/svg">
<path d="M13.3336 2.66641H2.66639C1.93359 2.66641 1.33999 3.26641 1.33999 4.00001L1.33359 12C1.33359 12.7336 1.93359 13.3336 2.66639 13.3336H13.3336C14.0664 13.3336 14.6664 12.7336 14.6664 12V4.00001C14.6664 3.26641 14.0664 2.66641 13.3336 2.66641ZM13.0664 5.50001L8.3536 8.4472C8.24728 8.51264 8.12488 8.54736 7.99999 8.54736C7.87513 8.54736 7.75272 8.51264 7.64639 8.4472L2.93359 5.50001C2.86768 5.46201 2.81009 5.41113 2.76427 5.35039C2.71846 5.28965 2.68534 5.2203 2.66691 5.14648C2.64848 5.07267 2.64511 4.99589 2.65701 4.92075C2.6689 4.8456 2.69582 4.77362 2.73614 4.7091C2.77646 4.64458 2.82937 4.58885 2.89171 4.54523C2.95405 4.5016 3.02453 4.471 3.09896 4.45521C3.17338 4.43943 3.25023 4.4388 3.3249 4.45337C3.39958 4.46794 3.47056 4.49741 3.53359 4.54001L7.99999 7.33361L12.4664 4.54001C12.5294 4.49741 12.6004 4.46794 12.6751 4.45337C12.7498 4.4388 12.8266 4.43943 12.901 4.45521C12.9754 4.471 13.0459 4.5016 13.1082 4.54523C13.1706 4.58885 13.2235 4.64458 13.2638 4.7091C13.3042 4.77362 13.3311 4.8456 13.343 4.92075C13.3549 4.99589 13.3515 5.07267 13.333 5.14648C13.3146 5.2203 13.2815 5.28965 13.2357 5.35039C13.1899 5.41113 13.1323 5.46201 13.0664 5.50001Z" fill="url(#paint0_linear_56_268)"/>
<defs>
<linearGradient id="paint0_linear_56_268" x1="1.33359" y1="8.00001" x2="14.6664" y2="8.00001" gradientUnits="userSpaceOnUse">
<stop stop-color="#FF9501"/>
<stop offset="1" stop-color="#FF8F00"/>
</linearGradient>
</defs>
</svg>
