<svg width="24" height="24" viewBox="0 0 24 24" fill="none" xmlns="http://www.w3.org/2000/svg">
<path d="M4 4.5H13V22H4V4.5Z" stroke="url(#paint0_linear_46_148)" stroke-width="1.5" stroke-linejoin="round"/>
<path d="M6 4L6.32918 3.34164C6.44315 3.1137 6.50014 2.99973 6.56517 2.90086C6.88933 2.40808 7.41449 2.08351 8.00021 2.01396C8.11773 2 8.24515 2 8.5 2C8.75485 2 8.88227 2 8.99979 2.01396C9.58551 2.08351 10.1107 2.40808 10.4348 2.90086C10.4999 2.99973 10.5568 3.1137 10.6708 3.34164L11 4" stroke="url(#paint1_linear_46_148)" stroke-width="1.5" stroke-linecap="round" stroke-linejoin="round"/>
<path d="M3 4.5H14" stroke="url(#paint2_linear_46_148)" stroke-width="1.5" stroke-linecap="round" stroke-linejoin="round"/>
<path d="M3 22H14" stroke="url(#paint3_linear_46_148)" stroke-width="1.5" stroke-linecap="round" stroke-linejoin="round"/>
<path d="M13 7.5H18C19.4142 7.5 20.1213 7.5 20.5607 7.96131C21 8.42261 21 9.16764 21 10.6577C21 11.6731 21 12.1808 20.7504 12.5763C20.5008 12.9719 20.057 13.1691 19.1694 13.5636L18.2829 13.9576C17.6912 14.2206 17.3953 14.3521 17.2289 14.6158C17.0625 14.8794 17.0625 15.2179 17.0625 15.8949C17.0625 16.8882 17.0625 17.3849 16.7696 17.6925C16.4767 18 16.0053 18 15.0625 18H13V7.5Z" stroke="url(#paint4_linear_46_148)" stroke-width="1.5" stroke-linejoin="round"/>
<defs>
<linearGradient id="paint0_linear_46_148" x1="4" y1="13.25" x2="13" y2="13.25" gradientUnits="userSpaceOnUse">
<stop stop-color="#FF9501"/>
<stop offset="1" stop-color="#FF8F00"/>
</linearGradient>
<linearGradient id="paint1_linear_46_148" x1="6" y1="3" x2="11" y2="3" gradientUnits="userSpaceOnUse">
<stop stop-color="#FF9501"/>
<stop offset="1" stop-color="#FF8F00"/>
</linearGradient>
<linearGradient id="paint2_linear_46_148" x1="3" y1="5" x2="14" y2="5" gradientUnits="userSpaceOnUse">
<stop stop-color="#FF9501"/>
<stop offset="1" stop-color="#FF8F00"/>
</linearGradient>
<linearGradient id="paint3_linear_46_148" x1="3" y1="22.5" x2="14" y2="22.5" gradientUnits="userSpaceOnUse">
<stop stop-color="#FF9501"/>
<stop offset="1" stop-color="#FF8F00"/>
</linearGradient>
<linearGradient id="paint4_linear_46_148" x1="13" y1="12.75" x2="21" y2="12.75" gradientUnits="userSpaceOnUse">
<stop stop-color="#FF9501"/>
<stop offset="1" stop-color="#FF8F00"/>
</linearGradient>
</defs>
</svg>
