<svg width="14" height="14" viewBox="0 0 14 14" fill="none" xmlns="http://www.w3.org/2000/svg">
<path d="M6.99999 1.1669C3.79189 1.1669 1.16689 3.7919 1.16689 7C1.16689 10.2081 3.79189 12.8331 6.99999 12.8331C10.2081 12.8331 12.8331 10.2081 12.8331 7C12.8331 3.7919 10.2081 1.1669 6.99999 1.1669ZM9.0706 9.21691L6.69059 7.75251C6.60491 7.70134 6.53402 7.62868 6.48493 7.54181C6.43583 7.45487 6.41021 7.35673 6.41059 7.25691V4.5206C6.41367 4.40445 6.4616 4.294 6.54434 4.21243C6.62709 4.13086 6.73821 4.08451 6.85439 4.0831C6.97015 4.08402 7.08092 4.13041 7.16275 4.21226C7.24458 4.2941 7.29099 4.40486 7.2919 4.5206V7.11621L9.5319 8.46371C9.7419 8.59251 9.8119 8.86621 9.6831 9.07691C9.61975 9.17589 9.52007 9.2461 9.40548 9.27228C9.29089 9.29846 9.17063 9.27858 9.0706 9.21691Z" fill="url(#paint0_linear_58_402)"/>
<defs>
<linearGradient id="paint0_linear_58_402" x1="1.16689" y1="7" x2="12.8331" y2="7" gradientUnits="userSpaceOnUse">
<stop stop-color="#FF9501"/>
<stop offset="1" stop-color="#FF8F00"/>
</linearGradient>
</defs>
</svg>
