<svg width="24" height="24" viewBox="0 0 24 24" fill="none" xmlns="http://www.w3.org/2000/svg">
<path d="M12.0273 0H11.9727C5.36035 0 0 5.36035 0 11.9727V12.0273C0 18.6397 5.36035 24 11.9727 24H12.0273C18.6397 24 24 18.6397 24 12.0273V11.9727C24 5.36035 18.6397 0 12.0273 0Z" fill="url(#paint0_linear_58_288)"/>
<path d="M15.7136 4.88272H8.28735C6.23571 4.88272 4.56665 6.55178 4.56665 8.60342V15.3974C4.56665 17.449 6.23571 19.1181 8.28735 19.1181H15.7136C17.7653 19.1181 19.4343 17.449 19.4343 15.3974V8.60342C19.4343 6.55178 17.7653 4.88272 15.7136 4.88272ZM5.8792 8.60342C5.8792 7.27574 6.95967 6.19527 8.28735 6.19527H15.7136C17.0413 6.19527 18.1218 7.27574 18.1218 8.60342V15.3974C18.1218 16.7251 17.0413 17.8055 15.7136 17.8055H8.28735C6.95967 17.8055 5.8792 16.7251 5.8792 15.3974V8.60342Z" fill="black"/>
<path d="M12.0006 15.4605C13.9084 15.4605 15.4614 13.9083 15.4614 11.9996C15.4614 10.0909 13.9093 8.53873 12.0006 8.53873C10.0919 8.53873 8.53967 10.0909 8.53967 11.9996C8.53967 13.9083 10.0919 15.4605 12.0006 15.4605ZM12.0006 9.85211C13.1853 9.85211 14.1489 10.8157 14.1489 12.0005C14.1489 13.1852 13.1853 14.1488 12.0006 14.1488C10.8158 14.1488 9.85222 13.1852 9.85222 12.0005C9.85222 10.8157 10.8158 9.85211 12.0006 9.85211Z" fill="black"/>
<path d="M15.7816 9.09786C16.2954 9.09786 16.7141 8.67996 16.7141 8.16537C16.7141 7.65078 16.2962 7.23288 15.7816 7.23288C15.267 7.23288 14.8491 7.65078 14.8491 8.16537C14.8491 8.67996 15.267 9.09786 15.7816 9.09786Z" fill="black"/>
<defs>
<linearGradient id="paint0_linear_58_288" x1="0" y1="12" x2="24" y2="12" gradientUnits="userSpaceOnUse">
<stop stop-color="#FF9501"/>
<stop offset="1" stop-color="#FF8F00"/>
</linearGradient>
</defs>
</svg>
