<svg width="32" height="32" viewBox="0 0 32 32" fill="none" xmlns="http://www.w3.org/2000/svg">
<path d="M16.0364 0H15.9636C7.14713 0 0 7.14713 0 15.9636V16.0364C0 24.8529 7.14713 32 15.9636 32H16.0364C24.8529 32 32 24.8529 32 16.0364V15.9636C32 7.14713 24.8529 0 16.0364 0Z" fill="#FFE082"/>
<path d="M20.9515 6.51025H11.0498C8.31428 6.51025 6.08887 8.73567 6.08887 11.4712V20.5298C6.08887 23.2653 8.31428 25.4907 11.0498 25.4907H20.9515C23.687 25.4907 25.9124 23.2653 25.9124 20.5298V11.4712C25.9124 8.73567 23.687 6.51025 20.9515 6.51025ZM7.83893 11.4712C7.83893 9.70095 9.27956 8.26031 11.0498 8.26031H20.9515C22.7217 8.26031 24.1624 9.70095 24.1624 11.4712V20.5298C24.1624 22.3 22.7217 23.7407 20.9515 23.7407H11.0498C9.27956 23.7407 7.83893 22.3 7.83893 20.5298V11.4712Z" fill="black"/>
<path d="M16.0007 20.614C18.5446 20.614 20.6153 18.5445 20.6153 15.9995C20.6153 13.4546 18.5457 11.385 16.0007 11.385C13.4558 11.385 11.3862 13.4546 11.3862 15.9995C11.3862 18.5445 13.4558 20.614 16.0007 20.614ZM16.0007 13.1362C17.5804 13.1362 18.8652 14.421 18.8652 16.0006C18.8652 17.5803 17.5804 18.8651 16.0007 18.8651C14.4211 18.8651 13.1363 17.5803 13.1363 16.0006C13.1363 14.421 14.4211 13.1362 16.0007 13.1362Z" fill="black"/>
<path d="M21.0421 12.1307C21.7271 12.1307 22.2855 11.5735 22.2855 10.8874C22.2855 10.2012 21.7283 9.64404 21.0421 9.64404C20.356 9.64404 19.7988 10.2012 19.7988 10.8874C19.7988 11.5735 20.356 12.1307 21.0421 12.1307Z" fill="black"/>
</svg>
