<svg width="16" height="16" viewBox="0 0 16 16" fill="none" xmlns="http://www.w3.org/2000/svg">
<path d="M8 1.33362C5.20001 1.33362 2.66641 3.48002 2.66641 6.80002C2.66641 8.92003 4.30001 11.4136 7.56001 14.2864C7.6832 14.3927 7.84049 14.4512 8.0032 14.4512C8.16592 14.4512 8.3232 14.3927 8.4464 14.2864C11.7 11.4136 13.3336 8.92003 13.3336 6.80002C13.3336 3.48002 10.8 1.33362 8 1.33362ZM8 8.00002C7.26641 8.00002 6.66641 7.40002 6.66641 6.66642C6.66641 5.93282 7.26641 5.33282 8 5.33282C8.7336 5.33282 9.3336 5.93282 9.3336 6.66642C9.3336 7.40002 8.7336 8.00002 8 8.00002Z" fill="url(#paint0_linear_56_258)"/>
<defs>
<linearGradient id="paint0_linear_56_258" x1="2.66641" y1="7.89242" x2="13.3336" y2="7.89242" gradientUnits="userSpaceOnUse">
<stop stop-color="#FF9501"/>
<stop offset="1" stop-color="#FF8F00"/>
</linearGradient>
</defs>
</svg>
