<svg width="27" height="27" viewBox="0 0 27 27" fill="none" xmlns="http://www.w3.org/2000/svg">
<path fill-rule="evenodd" clip-rule="evenodd" d="M14.1895 0C15.0497 0 15.4799 0.000273108 15.7656 0.258789C16.0513 0.517377 16.0952 0.950142 16.1816 1.81543C16.3467 3.46776 16.4288 4.29435 16.9814 4.52344C17.5342 4.75246 18.1773 4.22645 19.4629 3.1748C20.1359 2.62429 20.4727 2.34905 20.8574 2.36816C21.2421 2.38737 21.5464 2.69091 22.1543 3.29883L23.3662 4.51074C23.9746 5.11909 24.2787 5.42371 24.2979 5.80859C24.3169 6.19333 24.0417 6.52956 23.4912 7.20215C22.4392 8.48747 21.9136 9.13072 22.1426 9.68359C22.3716 10.2362 23.1978 10.319 24.8506 10.4844C25.7159 10.5709 26.1487 10.6147 26.4072 10.9004C26.6656 11.186 26.666 11.6157 26.666 12.4756V14.1895C26.666 15.0497 26.6657 15.4799 26.4072 15.7656C26.1486 16.0513 25.7159 16.0952 24.8506 16.1816C23.1983 16.3467 22.3717 16.4288 22.1426 16.9814C21.9136 17.5342 22.4396 18.1773 23.4912 19.4629C24.0417 20.1358 24.3179 20.4727 24.2988 20.8574C24.2796 21.2421 23.9751 21.5463 23.3672 22.1543L22.1553 23.3662C21.5472 23.9745 21.2432 24.2786 20.8584 24.2979C20.4736 24.317 20.137 24.0419 19.4639 23.4912C18.1777 22.439 17.5343 21.9126 16.9814 22.1416C16.4287 22.3707 16.3467 23.1977 16.1816 24.8506C16.0952 25.7161 16.0513 26.1486 15.7656 26.4072C15.4799 26.6658 15.0497 26.666 14.1895 26.666H12.4756C11.6156 26.666 11.1851 26.6657 10.8994 26.4072C10.6141 26.1487 10.5711 25.7156 10.4844 24.8506C10.3187 23.1973 10.2354 22.3705 9.68262 22.1416C9.12982 21.9129 8.48728 22.4394 7.20215 23.4912C6.5292 24.042 6.19244 24.3169 5.80762 24.2979C5.4227 24.2787 5.1181 23.9747 4.50977 23.3662L3.29883 22.1543C2.69096 21.5463 2.38637 21.2421 2.36719 20.8574C2.34813 20.4727 2.62436 20.1358 3.1748 19.4629C4.22645 18.1773 4.75245 17.5342 4.52344 16.9814C4.29435 16.4288 3.46776 16.3467 1.81543 16.1816C0.950142 16.0952 0.517377 16.0513 0.258789 15.7656C0.000273091 15.4799 0 15.0497 0 14.1895V12.4756C3.72859e-09 11.6157 0.000382953 11.186 0.258789 10.9004C0.517319 10.6147 0.950037 10.571 1.81543 10.4844C3.4681 10.319 4.29447 10.2363 4.52344 9.68359C4.7524 9.13085 4.22659 8.48788 3.1748 7.20215C2.62418 6.52905 2.34905 6.19235 2.36816 5.80762C2.38737 5.4229 2.69091 5.11866 3.29883 4.51074L4.51074 3.29883C5.11901 2.69056 5.42375 2.38638 5.80859 2.36719C6.19336 2.3481 6.53026 2.62327 7.20312 3.17383C8.48822 4.22532 9.13085 4.75134 9.68359 4.52246C10.2364 4.29351 10.319 3.46688 10.4844 1.81445C10.5709 0.949512 10.6147 0.517292 10.9004 0.258789C11.186 0.000387669 11.6157 0 12.4756 0H14.1895ZM13.333 8C10.3875 8 8 10.3875 8 13.333C8 16.2785 10.3875 18.666 13.333 18.666C16.2785 18.666 18.666 16.2785 18.666 13.333C18.666 10.3875 16.2785 8 13.333 8Z" fill="url(#paint0_linear_53_201)"/>
<defs>
<linearGradient id="paint0_linear_53_201" x1="0" y1="13.333" x2="26.666" y2="13.333" gradientUnits="userSpaceOnUse">
<stop stop-color="#FF9501"/>
<stop offset="1" stop-color="#FF8F00"/>
</linearGradient>
</defs>
</svg>
