<svg width="24" height="24" viewBox="0 0 24 24" fill="none" xmlns="http://www.w3.org/2000/svg">
<path d="M12.0273 0H11.9727C5.36035 0 0 5.36035 0 11.9727V12.0273C0 18.6397 5.36035 24 11.9727 24H12.0273C18.6397 24 24 18.6397 24 12.0273V11.9727C24 5.36035 18.6397 0 12.0273 0Z" fill="url(#paint0_linear_58_285)"/>
<path fill-rule="evenodd" clip-rule="evenodd" d="M10.9047 15.2814C10.8904 15.331 10.8769 15.373 10.866 15.415C10.2312 17.9022 10.1605 18.4547 9.50804 19.61C9.19693 20.159 8.8463 20.6795 8.45868 21.1773C8.41495 21.2336 8.37375 21.306 8.2863 21.2883C8.19044 21.2681 8.18288 21.1815 8.17279 21.105C8.06853 20.3491 8.01051 19.5915 8.03573 18.828C8.06852 17.8341 8.19129 17.4928 9.47272 12.1047C9.49122 12.0223 9.4702 11.9542 9.44329 11.8802C9.13639 11.0528 9.07585 10.2128 9.34407 9.36186C9.92425 7.5238 12.0078 7.38338 12.3719 8.89941C12.5964 9.83694 12.0028 11.0646 11.5471 12.8791C11.1695 14.3758 12.9319 15.4403 14.4379 14.3472C15.8269 13.3399 16.3659 10.925 16.2633 9.21304C16.0615 5.80008 12.319 5.06267 9.94527 6.16165C7.22349 7.42038 6.60463 10.7938 7.83393 12.3359C7.98949 12.5318 8.28294 12.6521 8.23165 12.8505C8.15261 13.1591 8.08282 13.4702 7.99705 13.7771C7.93315 14.0058 7.56907 14.089 7.33784 13.9949C6.88463 13.8116 6.50709 13.5232 6.20103 13.1431C5.15755 11.8507 4.85905 9.29461 6.23887 7.13029C7.76751 4.73307 10.6112 3.76274 13.2077 4.05703C16.3087 4.40934 18.2687 6.52825 18.6353 8.9322C18.8026 10.027 18.6824 12.7269 17.1454 14.6356C15.3771 16.8285 12.5107 16.974 11.188 15.6278C11.0863 15.5244 11.0047 15.4041 10.9047 15.2805V15.2814Z" fill="black"/>
<defs>
<linearGradient id="paint0_linear_58_285" x1="0" y1="12" x2="24" y2="12" gradientUnits="userSpaceOnUse">
<stop stop-color="#FF9501"/>
<stop offset="1" stop-color="#FF8F00"/>
</linearGradient>
</defs>
</svg>
