<svg width="32" height="32" viewBox="0 0 32 32" fill="none" xmlns="http://www.w3.org/2000/svg">
<path d="M16.0364 0H15.9636C7.14713 0 0 7.14713 0 15.9636V16.0364C0 24.8529 7.14713 32 15.9636 32H16.0364C24.8529 32 32 24.8529 32 16.0364V15.9636C32 7.14713 24.8529 0 16.0364 0Z" fill="#FFE082"/>
<path fill-rule="evenodd" clip-rule="evenodd" d="M14.5395 20.375C14.5205 20.4411 14.5026 20.4972 14.488 20.5532C13.6415 23.8695 13.5474 24.6061 12.6774 26.1465C12.2626 26.8786 11.7951 27.5725 11.2782 28.2362C11.2199 28.3114 11.165 28.4078 11.0484 28.3842C10.9206 28.3573 10.9105 28.2418 10.897 28.1398C10.758 27.1319 10.6807 26.1218 10.7143 25.1038C10.758 23.7787 10.9217 23.3235 12.6303 16.1394C12.655 16.0295 12.6269 15.9387 12.591 15.8401C12.1818 14.7369 12.1011 13.6169 12.4588 12.4823C13.2323 10.0316 16.0104 9.84434 16.4959 11.8657C16.7952 13.1158 16.0037 14.7526 15.3961 17.172C14.8927 19.1675 17.2426 20.5869 19.2505 19.1294C21.1026 17.7863 21.8212 14.5665 21.6844 12.2839C21.4153 7.73328 16.4253 6.75007 13.2604 8.21537C9.6313 9.89368 8.80617 14.3916 10.4452 16.4477C10.6526 16.7089 11.0439 16.8692 10.9755 17.1338C10.8701 17.5453 10.7771 17.9601 10.6627 18.3693C10.5775 18.6742 10.0921 18.7852 9.78378 18.6597C9.17949 18.4153 8.67611 18.0307 8.26803 17.524C6.87672 15.8008 6.47873 12.3926 8.31848 9.50689C10.3567 6.31059 14.1483 5.01682 17.6103 5.40921C21.745 5.87896 24.3583 8.70417 24.8471 11.9094C25.0702 13.3691 24.9099 16.969 22.8605 19.514C20.5028 22.4378 16.6809 22.6318 14.9174 20.8369C14.7817 20.699 14.673 20.5387 14.5395 20.3739V20.375Z" fill="black"/>
</svg>
