<svg width="22" height="24" viewBox="0 0 22 24" fill="none" xmlns="http://www.w3.org/2000/svg">
<path d="M10.7329 22C8.66088 21.4167 6.95031 20.0875 5.60124 18.0125C4.25217 15.9375 3.57764 13.6333 3.57764 11.1V5L10.7329 2L17.8882 5V11.1C17.8882 13.6333 17.2137 15.9375 15.8646 18.0125C14.5155 20.0875 12.805 21.4167 10.7329 22ZM10.7329 19.9C12.1789 19.4 13.3864 18.4125 14.3553 16.9375C15.3242 15.4625 15.8907 13.8167 16.0547 12H10.7329V4.125L5.36646 6.375V11.55C5.36646 11.6667 5.38137 11.8167 5.41118 12H10.7329V19.9Z" fill="url(#paint0_linear_24_111)"/>
<defs>
<linearGradient id="paint0_linear_24_111" x1="3.57764" y1="12" x2="17.8882" y2="12" gradientUnits="userSpaceOnUse">
<stop stop-color="#FF9501"/>
<stop offset="1" stop-color="#FF8F00"/>
</linearGradient>
</defs>
</svg>
