<svg width="16" height="16" viewBox="0 0 16 16" fill="none" xmlns="http://www.w3.org/2000/svg">
<path d="M12.8196 10.1736L11.126 9.98001C10.927 9.95665 10.7253 9.97873 10.536 10.0446C10.3467 10.1104 10.1748 10.2183 10.0332 10.36L8.806 11.5864C6.91377 10.6239 5.3757 9.08585 4.41321 7.19361L5.64601 5.96001C5.93321 5.67361 6.07321 5.27361 6.02601 4.86641L5.83321 3.18641C5.79532 2.86114 5.63914 2.56115 5.39441 2.34356C5.14968 2.12598 4.83348 2.00598 4.50601 2.00641H3.35321C2.59961 2.00641 1.97321 2.63361 2.01961 3.38641C2.37321 9.08001 6.92601 13.6264 12.6132 13.98C13.366 14.0264 13.9932 13.4 13.9932 12.6464V11.4936C13.9949 11.1675 13.8759 10.8524 13.6593 10.6087C13.4426 10.3651 13.1436 10.2101 12.8196 10.1736Z" fill="url(#paint0_linear_57_271)"/>
<defs>
<linearGradient id="paint0_linear_57_271" x1="2.01719" y1="7.99442" x2="13.9932" y2="7.99442" gradientUnits="userSpaceOnUse">
<stop stop-color="#FF9501"/>
<stop offset="1" stop-color="#FF8F00"/>
</linearGradient>
</defs>
</svg>
