<svg width="24" height="24" viewBox="0 0 24 24" fill="none" xmlns="http://www.w3.org/2000/svg">
<path d="M12.0273 0H11.9727C5.36034 0 0 5.36035 0 11.9727V12.0273C0 18.6397 5.36034 24 11.9727 24H12.0273C18.6397 24 24 18.6397 24 12.0273V11.9727C24 5.36035 18.6397 0 12.0273 0Z" fill="url(#paint0_linear_58_282)"/>
<path d="M4.54566 11.5909C4.57929 11.5741 4.61294 11.5581 4.64573 11.543C5.21582 11.279 5.79348 11.0318 6.37029 10.7846C6.4014 10.7846 6.45352 10.7484 6.48295 10.7366C6.52751 10.7173 6.57209 10.6988 6.61665 10.6795C6.70242 10.6425 6.78819 10.6063 6.87311 10.5693C7.04464 10.4962 7.21532 10.423 7.38685 10.3499L8.41351 9.9101C9.09795 9.61749 9.78325 9.32403 10.4677 9.03142C11.1521 8.73881 11.8374 8.44536 12.5218 8.15275C13.2063 7.86014 13.8916 7.56669 14.576 7.27408C15.2604 6.98147 15.9457 6.68801 16.6302 6.3954C16.7824 6.32982 16.9472 6.23228 17.1103 6.20369C17.2474 6.1793 17.381 6.13222 17.5189 6.10615C17.7804 6.05654 18.0688 6.03637 18.3194 6.14483C18.406 6.18267 18.4859 6.23564 18.5523 6.30207C18.8702 6.61654 18.8256 7.13281 18.7583 7.57509C18.29 10.6576 17.8216 13.741 17.3524 16.8235C17.2885 17.2464 17.2011 17.7105 16.8673 17.9779C16.5848 18.2041 16.1828 18.2293 15.8339 18.1335C15.4849 18.0368 15.1772 17.8341 14.8753 17.6349C13.6233 16.8058 12.3705 15.9767 11.1185 15.1477C10.8208 14.9509 10.4896 14.6936 10.4929 14.3363C10.4946 14.121 10.6232 13.9293 10.7544 13.7586C11.8424 12.3393 13.4123 11.3639 14.5802 10.0102C14.745 9.81929 14.8745 9.47455 14.6483 9.3644C14.5138 9.29881 14.3591 9.38794 14.2363 9.47286C12.6925 10.5449 11.1496 11.6178 9.60583 12.6899C9.10217 13.0397 8.57412 13.3996 7.96704 13.4853C7.42386 13.5627 6.87732 13.4113 6.3518 13.2566C5.9112 13.1271 5.47142 12.9943 5.03335 12.8572C4.80044 12.7849 4.55996 12.7067 4.38002 12.5428C4.20008 12.3788 4.09667 12.103 4.20514 11.8844C4.27324 11.7473 4.40526 11.6607 4.544 11.5901L4.54566 11.5909Z" fill="black"/>
<defs>
<linearGradient id="paint0_linear_58_282" x1="0" y1="12" x2="24" y2="12" gradientUnits="userSpaceOnUse">
<stop stop-color="#FF9501"/>
<stop offset="1" stop-color="#FF8F00"/>
</linearGradient>
</defs>
</svg>
