<svg width="32" height="32" viewBox="0 0 32 32" fill="none" xmlns="http://www.w3.org/2000/svg">
<path d="M16.0364 0H15.9636C7.14712 0 0 7.14713 0 15.9636V16.0364C0 24.8529 7.14712 32 15.9636 32H16.0364C24.8529 32 32 24.8529 32 16.0364V15.9636C32 7.14713 24.8529 0 16.0364 0Z" fill="#FFE082"/>
<path d="M6.06088 15.4547C6.10573 15.4323 6.15059 15.411 6.19432 15.3908C6.95443 15.0388 7.72464 14.7092 8.49373 14.3795C8.53521 14.3795 8.6047 14.3313 8.64394 14.3156C8.70336 14.2899 8.76279 14.2652 8.82221 14.2394C8.93656 14.1901 9.05092 14.1419 9.16415 14.0925C9.39286 13.995 9.62043 13.8975 9.84914 13.7999L11.218 13.2136C12.1306 12.8234 13.0443 12.4322 13.9569 12.042C14.8695 11.6519 15.7832 11.2606 16.6958 10.8705C17.6084 10.4803 18.5221 10.089 19.4347 9.69889C20.3473 9.30874 21.261 8.91747 22.1736 8.52732C22.3765 8.43988 22.5962 8.30982 22.8137 8.27171C22.9965 8.23919 23.1747 8.17642 23.3586 8.14166C23.7073 8.07551 24.0918 8.04861 24.4259 8.19323C24.5414 8.24368 24.6479 8.31431 24.7364 8.40288C25.1602 8.82218 25.1008 9.51054 25.0111 10.1002C24.3866 14.2103 23.7622 18.3214 23.1366 22.4314C23.0514 22.9953 22.9348 23.6142 22.4897 23.9707C22.113 24.2723 21.5771 24.3059 21.1119 24.1781C20.6466 24.0492 20.2363 23.779 19.8338 23.5133C18.1645 22.4079 16.494 21.3024 14.8247 20.197C14.4278 19.9347 13.9861 19.5916 13.9906 19.1151C13.9928 18.8281 14.1643 18.5725 14.3392 18.3449C15.7899 16.4525 17.8831 15.152 19.4403 13.347C19.66 13.0925 19.8327 12.6328 19.5311 12.486C19.3517 12.3985 19.1454 12.5174 18.9817 12.6306C16.9234 14.06 14.8661 15.4906 12.8078 16.92C12.1362 17.3864 11.4322 17.8662 10.6227 17.9806C9.89848 18.0837 9.16976 17.8819 8.46907 17.6756C7.8816 17.503 7.29524 17.3258 6.71114 17.1431C6.40059 17.0467 6.07995 16.9424 5.84003 16.7238C5.60011 16.5052 5.46223 16.1375 5.60685 15.846C5.69766 15.6632 5.87368 15.5477 6.05867 15.4536L6.06088 15.4547Z" fill="black"/>
</svg>
