<svg width="24" height="24" viewBox="0 0 24 24" fill="none" xmlns="http://www.w3.org/2000/svg">
<path d="M12.0273 0H11.9727C5.36035 0 0 5.36035 0 11.9727V12.0273C0 18.6397 5.36035 24 11.9727 24H12.0273C18.6397 24 24 18.6397 24 12.0273V11.9727C24 5.36035 18.6397 0 12.0273 0Z" fill="url(#paint0_linear_58_274)"/>
<path d="M17.8014 8.6825V10.9485C17.4053 10.9099 16.8907 10.8199 16.3215 10.6114C15.5782 10.3389 15.0249 9.96645 14.6625 9.67804V14.2581L14.6533 14.2438C14.6591 14.3346 14.6625 14.4271 14.6625 14.5204C14.6625 16.7949 12.8118 18.6464 10.5365 18.6464C8.26122 18.6464 6.41054 16.7949 6.41054 14.5204C6.41054 12.246 8.26122 10.3936 10.5365 10.3936C10.7593 10.3936 10.978 10.4113 11.1915 10.4457V12.679C10.9864 12.6058 10.7661 12.5663 10.5365 12.5663C9.45941 12.5663 8.58242 13.4425 8.58242 14.5204C8.58242 15.5984 9.45941 16.4745 10.5365 16.4745C11.6136 16.4745 12.4906 15.5975 12.4906 14.5204C12.4906 14.4801 12.4898 14.4397 12.4873 14.3993V5.49908H14.7516C14.76 5.6908 14.7676 5.88419 14.776 6.0759C14.7912 6.45344 14.9257 6.81583 15.1603 7.11265C15.4352 7.4616 15.8414 7.86688 16.4114 8.1906C16.9454 8.49246 17.4465 8.62279 17.8014 8.68417V8.6825Z" fill="black"/>
<defs>
<linearGradient id="paint0_linear_58_274" x1="0" y1="12" x2="24" y2="12" gradientUnits="userSpaceOnUse">
<stop stop-color="#FF9501"/>
<stop offset="1" stop-color="#FF8F00"/>
</linearGradient>
</defs>
</svg>
