<svg width="32" height="32" viewBox="0 0 32 32" fill="none" xmlns="http://www.w3.org/2000/svg">
<path d="M16.0364 0H15.9636C7.14713 0 0 7.14713 0 15.9636V16.0364C0 24.8529 7.14713 32 15.9636 32H16.0364C24.8529 32 32 24.8529 32 16.0364V15.9636C32 7.14713 24.8529 0 16.0364 0Z" fill="#FFE082"/>
<path d="M19.1185 20.6802C15.023 20.6802 11.6911 17.3472 11.6899 13.2517C11.6911 12.2136 12.5364 11.3694 13.5723 11.3694C13.6788 11.3694 13.7842 11.3784 13.8851 11.3963C14.1071 11.4333 14.3178 11.5084 14.5118 11.6216C14.5398 11.6385 14.5589 11.6654 14.5634 11.6968L14.9961 14.4244C15.0017 14.4558 14.9916 14.4883 14.9703 14.5119C14.7315 14.7765 14.4266 14.967 14.0869 15.0623L13.9232 15.1083L13.9849 15.2664C14.5432 16.688 15.68 17.8236 17.1027 18.3842L17.2608 18.447L17.3067 18.2833C17.402 17.9436 17.5926 17.6387 17.8572 17.3999C17.8763 17.3819 17.902 17.373 17.9278 17.373C17.9334 17.373 17.939 17.373 17.9458 17.3741L20.6734 17.8068C20.706 17.8124 20.7329 17.8304 20.7497 17.8584C20.8618 18.0524 20.9369 18.2642 20.975 18.4862C20.993 18.5849 21.0008 18.6891 21.0008 18.7979C21.0008 19.8349 20.1566 20.6791 19.1185 20.6802Z" fill="black"/>
<path d="M26.3809 15.1016C26.16 12.606 25.0165 10.2909 23.161 8.58345C21.2944 6.8659 18.8727 5.91968 16.3401 5.91968C10.7817 5.91968 6.25909 10.4423 6.25909 16.0007C6.25909 17.8663 6.77367 19.6836 7.74792 21.2666L5.5752 26.0762L12.5317 25.3352C13.7414 25.8307 15.0217 26.0818 16.339 26.0818C16.6854 26.0818 17.0409 26.0639 17.3974 26.0269C17.7113 25.9932 18.0286 25.9439 18.3402 25.8811C22.9951 24.9405 26.3932 20.8092 26.4201 16.0546V16.0007C26.4201 15.698 26.4066 15.3953 26.3797 15.1027L26.3809 15.1016ZM12.7997 23.2241L8.95089 23.6344L10.1 21.0884L9.87019 20.7801C9.85338 20.7576 9.83656 20.7352 9.81751 20.7094C8.81971 19.3316 8.29278 17.7037 8.29278 16.0019C8.29278 11.5645 11.9028 7.95451 16.3401 7.95451C20.4972 7.95451 24.0209 11.1979 24.3606 15.3382C24.3785 15.5602 24.3886 15.7833 24.3886 16.003C24.3886 16.0658 24.3875 16.1274 24.3864 16.1936C24.3012 19.9056 21.7081 23.0582 18.0801 23.8609C17.8032 23.9226 17.5196 23.9696 17.237 23.9999C16.9433 24.0335 16.6417 24.0504 16.3424 24.0504C15.2762 24.0504 14.2403 23.8441 13.2616 23.436C13.1528 23.3923 13.0463 23.3452 12.9465 23.297L12.8008 23.2263L12.7997 23.2241Z" fill="black"/>
</svg>
