<svg width="24" height="24" viewBox="0 0 24 24" fill="none" xmlns="http://www.w3.org/2000/svg">
<path d="M12.0273 0H11.9727C5.36035 0 0 5.36035 0 11.9727V12.0273C0 18.6397 5.36035 24 11.9727 24H12.0273C18.6397 24 24 18.6397 24 12.0273V11.9727C24 5.36035 18.6397 0 12.0273 0Z" fill="url(#paint0_linear_58_277)"/>
<path d="M14.3388 15.5101C11.2672 15.5101 8.76827 13.0103 8.76743 9.93871C8.76827 9.1601 9.40226 8.52695 10.1792 8.52695C10.2591 8.52695 10.3381 8.53367 10.4138 8.54713C10.5803 8.57487 10.7384 8.63121 10.8838 8.71614C10.9048 8.72875 10.9191 8.74893 10.9225 8.77247L11.2471 10.8182C11.2513 10.8418 11.2437 10.8662 11.2277 10.8838C11.0486 11.0823 10.8199 11.2252 10.5651 11.2967L10.4424 11.3311L10.4886 11.4497C10.9074 12.5159 11.76 13.3676 12.827 13.7881L12.9455 13.8351L12.98 13.7124C13.0515 13.4576 13.1944 13.2289 13.3929 13.0498C13.4072 13.0364 13.4265 13.0296 13.4458 13.0296C13.45 13.0296 13.4543 13.0296 13.4593 13.0305L15.505 13.355C15.5294 13.3592 15.5496 13.3727 15.5622 13.3937C15.6463 13.5392 15.7027 13.6981 15.7312 13.8646C15.7447 13.9386 15.7506 14.0168 15.7506 14.0983C15.7506 14.8761 15.1174 15.5093 14.3388 15.5101Z" fill="black"/>
<path d="M19.7856 11.3261C19.62 9.45439 18.7623 7.71806 17.3708 6.43747C15.9708 5.1493 14.1545 4.43964 12.2551 4.43964C8.08623 4.43964 4.6943 7.83157 4.6943 12.0004C4.6943 13.3996 5.08024 14.7626 5.81092 15.9499L4.18138 19.557L9.39878 19.0012C10.306 19.3729 11.2663 19.5612 12.2543 19.5612C12.5141 19.5612 12.7806 19.5478 13.048 19.52C13.2834 19.4948 13.5214 19.4578 13.7552 19.4107C17.2463 18.7053 19.7949 15.6068 19.8151 12.0408V12.0004C19.8151 11.7734 19.805 11.5464 19.7848 11.3269L19.7856 11.3261ZM9.59974 17.4179L6.71315 17.7257L7.57501 15.8162L7.40263 15.5849C7.39002 15.5681 7.37741 15.5513 7.36311 15.532C6.61477 14.4986 6.21957 13.2777 6.21957 12.0013C6.21957 8.67325 8.92706 5.96576 12.2551 5.96576C15.3729 5.96576 18.0157 8.3983 18.2704 11.5035C18.2839 11.67 18.2915 11.8373 18.2915 12.0021C18.2915 12.0492 18.2906 12.0955 18.2898 12.1451C18.2259 14.9291 16.281 17.2935 13.5601 17.8955C13.3524 17.9418 13.1397 17.9771 12.9278 17.9998C12.7075 18.025 12.4813 18.0376 12.2568 18.0376C11.4571 18.0376 10.6802 17.8829 9.94616 17.5769C9.8646 17.5441 9.78472 17.5088 9.70988 17.4726L9.60058 17.4196L9.59974 17.4179Z" fill="black"/>
<defs>
<linearGradient id="paint0_linear_58_277" x1="0" y1="12" x2="24" y2="12" gradientUnits="userSpaceOnUse">
<stop stop-color="#FF9501"/>
<stop offset="1" stop-color="#FF8F00"/>
</linearGradient>
</defs>
</svg>
