<svg width="24" height="24" viewBox="0 0 24 24" fill="none" xmlns="http://www.w3.org/2000/svg">
<path d="M24 12C24 5.37258 18.6274 0 12 0C5.37259 0 0 5.37258 0 12C0 18.6274 5.37259 24 12 24C18.6274 24 24 18.6274 24 12Z" fill="url(#paint0_linear_58_294)"/>
<path d="M19.5563 9.51328C19.4619 8.60175 19.2587 7.59409 18.5107 7.06455C17.9314 6.65389 17.17 6.63871 16.4592 6.63955C14.9565 6.63955 13.453 6.64209 11.9504 6.64293C10.5051 6.64462 9.05981 6.64546 7.61451 6.64715C7.01076 6.64715 6.42387 6.60077 5.86312 6.86217C5.38164 7.08647 5.00471 7.51314 4.77788 7.98788C4.46336 8.64813 4.39759 9.39608 4.35965 10.1263C4.28966 11.4561 4.29725 12.7892 4.38073 14.1182C4.44228 15.0879 4.59828 16.1596 5.34791 16.7777C6.01237 17.325 6.95004 17.3519 7.81182 17.3528C10.5473 17.3553 13.2835 17.3578 16.0198 17.3595C16.3706 17.3604 16.7366 17.3536 17.0941 17.3148C17.7974 17.239 18.4677 17.0374 18.9197 16.5163C19.3759 15.991 19.4931 15.2599 19.5622 14.5676C19.7309 12.8879 19.7292 11.1922 19.5563 9.51328ZM10.3685 14.3543V9.64483L14.4464 11.9991L10.3685 14.3543Z" fill="black"/>
<defs>
<linearGradient id="paint0_linear_58_294" x1="0" y1="12" x2="24" y2="12" gradientUnits="userSpaceOnUse">
<stop stop-color="#FF9501"/>
<stop offset="1" stop-color="#FF8F00"/>
</linearGradient>
</defs>
</svg>
