<svg width="32" height="32" viewBox="0 0 32 32" fill="none" xmlns="http://www.w3.org/2000/svg">
<path d="M32 16C32 7.16344 24.8366 0 16 0C7.16345 0 0 7.16344 0 16C0 24.8366 7.16345 32 16 32C24.8366 32 32 24.8366 32 16Z" fill="#FFE082"/>
<path d="M26.0751 12.6845C25.9492 11.4691 25.6782 10.1255 24.681 9.41948C23.9086 8.87194 22.8933 8.8517 21.9455 8.85282C19.942 8.85282 17.9374 8.8562 15.9339 8.85732C14.0068 8.85957 12.0797 8.86069 10.1527 8.86294C9.34768 8.86294 8.56516 8.8011 7.81749 9.14964C7.17552 9.4487 6.67295 10.0176 6.37051 10.6506C5.95115 11.5309 5.86345 12.5282 5.81286 13.5018C5.71954 15.2749 5.72966 17.0524 5.84097 18.8243C5.92304 20.1172 6.13104 21.5462 7.13055 22.3704C8.0165 23.1 9.26672 23.136 10.4158 23.1371C14.063 23.1405 17.7114 23.1439 21.3598 23.1461C21.8275 23.1472 22.3154 23.1383 22.7921 23.0865C23.7298 22.9854 24.6236 22.7166 25.2263 22.0218C25.8345 21.3214 25.9908 20.3466 26.083 19.4235C26.3079 17.1839 26.3056 14.923 26.0751 12.6845ZM13.8247 19.1391V12.8598L19.2618 15.9989L13.8247 19.1391Z" fill="black"/>
</svg>
