<svg width="120" height="118" viewBox="0 0 120 118" fill="none" xmlns="http://www.w3.org/2000/svg">
<path d="M37.7852 87.0786C35.1854 87.0786 33.1392 86.3805 31.6466 84.9843C30.1541 83.5399 29.4078 81.7825 29.4078 79.7123C29.4078 77.5938 30.106 75.2828 31.5022 72.7792C32.9466 70.2275 36.052 66.1832 40.8184 60.6464L52.7346 46.8526H34.2465C30.8281 46.8526 28.5653 47.2859 27.4579 48.1525C26.3987 48.971 25.5562 50.9691 24.9303 54.1467H23.7748L24.5692 35.8031H56.9233V43.6027L48.907 57.6132C45.3442 63.9204 43.0572 68.4461 42.0462 71.1904C41.0833 73.8866 40.6018 76.4624 40.6018 78.9178C40.6018 81.3733 41.324 83.6362 42.7684 85.7064L42.2628 86.5731C40.9147 86.9101 39.4222 87.0786 37.7852 87.0786Z" fill="#9C9C9C"/>
<path d="M75.6111 59.7798C70.9409 59.5391 67.3059 58.3836 64.706 56.3133C62.1061 54.1949 60.8062 51.4746 60.8062 48.1525C60.8062 44.1083 62.4191 40.9066 65.6449 38.5474C68.8707 36.1882 73.589 35.0087 79.7998 35.0087C86.0106 35.0087 90.7049 36.116 93.8825 38.3307C97.0602 40.5455 98.649 43.5305 98.649 47.2859C98.649 50.9932 97.4213 53.9301 94.9658 56.0966C92.5104 58.2151 88.9716 59.4428 84.3496 59.7798V59.9965C94.7492 60.8631 99.9489 65.2684 99.9489 73.2125C99.9489 77.8346 98.312 81.3011 95.038 83.6121C91.8122 85.9231 86.7569 87.0786 79.872 87.0786C66.2467 87.0786 59.434 82.4807 59.434 73.2848C59.434 65.1481 64.8264 60.7187 75.6111 59.9965V59.7798ZM86.1551 73.2125C86.1551 68.735 85.7218 65.5333 84.8551 63.6074C83.9885 61.6816 82.3034 60.7186 79.7998 60.7186C77.3444 60.7186 75.6833 61.7056 74.8167 63.6796C73.9501 65.6055 73.5168 68.8072 73.5168 73.2848C73.5168 77.7142 73.926 80.8678 74.7445 82.7455C75.6111 84.6232 77.3203 85.562 79.872 85.562C82.4238 85.562 84.1089 84.6232 84.9274 82.7455C85.7458 80.8196 86.1551 77.642 86.1551 73.2125ZM79.872 36.5253C77.7536 36.5253 76.3814 37.3919 75.7555 39.1252C75.1778 40.8103 74.8889 43.1213 74.8889 46.0582C74.8889 48.9469 74.913 50.8969 74.9611 51.9079C75.0093 52.8708 75.1056 53.8819 75.25 54.9411C75.4426 56.0003 75.7315 56.7947 76.1166 57.3244C76.9351 58.4799 78.2591 59.0576 80.0887 59.0576C81.7257 59.0576 82.9534 58.4799 83.7719 57.3244C84.3978 56.4096 84.7348 55.0615 84.7829 53.2801C84.8311 51.4505 84.8551 49.0673 84.8551 46.1304C84.8551 43.1453 84.5422 40.8103 83.9163 39.1252C83.3385 37.3919 81.9905 36.5253 79.872 36.5253Z" fill="#9C9C9C"/>
<path d="M18.7208 48.5618L4.60252 43.4755L6.32114 38.705C6.71851 37.6021 7.23311 36.7646 7.86495 36.1926C8.49219 35.6189 9.19337 35.2796 9.96849 35.1746C10.7436 35.0697 11.5471 35.167 12.3789 35.4667C13.2108 35.7664 13.8871 36.2022 14.408 36.7741C14.9289 37.3459 15.2465 38.0497 15.3609 38.8853C15.4706 39.7193 15.3285 40.6831 14.9344 41.7769L13.5436 45.6374L11.9994 45.0811L13.3704 41.2758C13.6419 40.5221 13.7501 39.8757 13.6951 39.3366C13.6417 38.793 13.4501 38.3449 13.1202 37.9924C12.7873 37.6336 12.3382 37.3524 11.773 37.1488C11.2077 36.9451 10.6755 36.8728 10.1766 36.9319C9.67759 36.991 9.22959 37.2112 8.83258 37.5926C8.43096 37.9724 8.09274 38.5437 7.81789 39.3066L6.73506 42.3122L19.3367 46.8522L18.7208 48.5618ZM14.7728 39.6314L22.3667 38.4419L21.6514 40.4272L14.0774 41.5616L14.7728 39.6314Z" fill="#9C9C9C"/>
<path d="M29.4152 18.3129C30.5477 19.4186 31.3268 20.5786 31.7525 21.7929C32.1781 23.0072 32.2666 24.1892 32.0179 25.3391C31.7691 26.489 31.1977 27.5218 30.3036 28.4376C29.4096 29.3534 28.3908 29.9494 27.2472 30.2257C26.1037 30.5019 24.9198 30.4419 23.6956 30.0455C22.4715 29.6491 21.2931 28.8981 20.1606 27.7924C19.0281 26.6868 18.249 25.5268 17.8234 24.3125C17.3977 23.0982 17.3093 21.9161 17.558 20.7663C17.8067 19.6164 18.3781 18.5836 19.2722 17.6678C20.1663 16.752 21.1851 16.156 22.3286 15.8797C23.4722 15.6035 24.6561 15.6635 25.8802 16.0599C27.1044 16.4563 28.2827 17.2073 29.4152 18.3129ZM28.1867 19.5713C27.257 18.6636 26.3204 18.053 25.377 17.7396C24.4371 17.4227 23.5452 17.3678 22.7013 17.5748C21.8609 17.7784 21.1233 18.2052 20.4886 18.8553C19.8539 19.5055 19.4432 20.2548 19.2564 21.1034C19.0731 21.9485 19.1495 22.8388 19.4854 23.7744C19.8248 24.7065 20.4593 25.6264 21.3891 26.5341C22.3189 27.4418 23.2537 28.0541 24.1937 28.371C25.1371 28.6844 26.029 28.7393 26.8694 28.5358C27.7132 28.3288 28.4525 27.9002 29.0873 27.25C29.722 26.5999 30.131 25.8523 30.3143 25.0072C30.501 24.1586 30.4247 23.2683 30.0853 22.3362C29.7494 21.4006 29.1165 20.479 28.1867 19.5713Z" fill="#9C9C9C"/>
<path d="M35.6176 7.51515L35.0349 6.01209L45.529 1.94429L46.1117 3.44735L41.7118 5.15286L46.5529 17.6419L44.8585 18.2987L40.0174 5.80964L35.6176 7.51515Z" fill="#9C9C9C"/>
<path d="M59.3819 14.7732L57.48 14.6631L63.8481 0L65.7207 0.108382L70.3547 15.4082L68.4528 15.2982L64.7057 2.4277L64.5887 2.42092L59.3819 14.7732ZM60.4229 8.96169L68.0892 9.40538L67.996 11.0147L60.3297 10.571L60.4229 8.96169Z" fill="#9C9C9C"/>
<path d="M92.3455 13.7885L90.7382 12.9406C90.887 12.4281 90.9349 11.9343 90.8819 11.4589C90.8332 10.9859 90.703 10.5416 90.4914 10.1262C90.2863 9.70878 90.0126 9.33244 89.6703 8.99722C89.328 8.662 88.9365 8.37815 88.4958 8.14567C87.6921 7.72174 86.857 7.54076 85.9903 7.60274C85.128 7.667 84.296 7.99305 83.4944 8.58087C82.6971 9.17098 81.9953 10.0407 81.389 11.19C80.7827 12.3393 80.4612 13.4095 80.4243 14.4008C80.3917 15.3943 80.5924 16.2651 81.0262 17.0131C81.4644 17.7634 82.0853 18.3505 82.889 18.7744C83.3297 19.0069 83.785 19.1698 84.2549 19.2631C84.7249 19.3563 85.1889 19.3719 85.647 19.3098C86.1116 19.2456 86.5529 19.1 86.9708 18.8732C87.3953 18.6442 87.7759 18.3258 88.1126 17.918L89.7199 18.7658C89.241 19.3804 88.7005 19.8712 88.0981 20.2383C87.4958 20.6054 86.8578 20.8515 86.1842 20.9767C85.513 21.0976 84.8301 21.0991 84.1356 20.9813C83.4454 20.8657 82.7655 20.6313 82.0958 20.278C80.9638 19.6809 80.1029 18.8733 79.5133 17.8553C78.9236 16.8373 78.6449 15.6851 78.6773 14.3988C78.7097 13.1125 79.0951 11.7693 79.8336 10.3695C80.572 8.96957 81.463 7.89313 82.5064 7.14012C83.5498 6.38712 84.6581 5.96657 85.8312 5.87849C87.0044 5.7904 88.1569 6.04493 89.2889 6.64208C89.9586 6.99536 90.536 7.4242 91.0211 7.9286C91.5104 8.43528 91.8936 9.00192 92.1706 9.62853C92.4498 10.2508 92.608 10.9142 92.6451 11.6186C92.6845 12.3187 92.5846 13.042 92.3455 13.7885ZM81.4901 19.7929L82.7604 20.4629L82.3832 20.9267C82.6929 21.1563 82.9277 21.4597 83.0878 21.8369C83.2455 22.2183 83.1911 22.6618 82.9244 23.1673C82.6304 23.7247 82.1599 24.0564 81.513 24.1625C80.8681 24.2752 80.0985 24.0957 79.2041 23.6239L79.6856 22.5855C80.0874 22.7975 80.4543 22.9082 80.7862 22.9176C81.1202 22.9336 81.3658 22.7925 81.5231 22.4944C81.6804 22.1963 81.6773 21.9351 81.5139 21.7108C81.3506 21.4866 81.0329 21.2251 80.5608 20.9264L81.4901 19.7929Z" fill="#9C9C9C"/>
<path d="M106.23 32.561C104.977 33.5286 103.72 34.1387 102.459 34.3912C101.197 34.6437 100.014 34.5668 98.9099 34.1604C97.8058 33.7541 96.8626 33.0445 96.0801 32.0317C95.2977 31.0189 94.8492 29.927 94.7348 28.7562C94.6204 27.5853 94.8446 26.4213 95.4075 25.2642C95.9704 24.1071 96.8781 23.0448 98.1306 22.0772C99.3831 21.1096 100.64 20.4995 101.902 20.247C103.164 19.9945 104.347 20.0714 105.451 20.4777C106.555 20.8841 107.498 21.5937 108.28 22.6065C109.063 23.6193 109.511 24.7111 109.626 25.882C109.74 27.0529 109.516 28.2169 108.953 29.374C108.39 30.5311 107.482 31.5934 106.23 32.561ZM105.155 31.1694C106.183 30.375 106.918 29.5325 107.36 28.6419C107.804 27.7552 107.983 26.8796 107.895 26.0152C107.811 25.1546 107.491 24.3648 106.935 23.6458C106.38 22.9267 105.695 22.4157 104.88 22.1127C104.069 21.8136 103.177 21.7653 102.204 21.9677C101.233 22.1741 100.234 22.6744 99.2057 23.4688C98.1775 24.2632 97.441 25.1038 96.9964 25.9905C96.5548 26.881 96.3762 27.7566 96.4608 28.6172C96.5484 29.4817 96.8699 30.2734 97.4254 30.9924C97.9809 31.7114 98.6643 32.2205 99.4756 32.5197C100.29 32.8227 101.182 32.871 102.152 32.6646C103.126 32.4622 104.126 31.9637 105.155 31.1694ZM107.921 20.0321L107.143 18.9293C107.735 18.4724 108.348 18.2672 108.983 18.3139C109.624 18.3614 110.138 18.6345 110.523 19.1332C110.693 19.3535 110.805 19.5786 110.86 19.8084C110.917 20.0352 110.958 20.2633 110.981 20.4926C111.003 20.7219 111.039 20.9476 111.087 21.1697C111.142 21.3926 111.25 21.6085 111.411 21.8172C111.582 22.0376 111.81 22.1574 112.097 22.1768C112.39 22.197 112.658 22.1131 112.902 21.9249L113.616 23.0404C113.013 23.5062 112.402 23.7065 111.783 23.641C111.168 23.5795 110.668 23.2994 110.282 22.8007C110.076 22.5339 109.943 22.2852 109.882 22.0545C109.825 21.8208 109.792 21.599 109.784 21.3891C109.776 21.1791 109.751 20.9704 109.708 20.7628C109.669 20.5524 109.564 20.3369 109.394 20.1166C109.224 19.8962 108.995 19.7798 108.707 19.7673C108.427 19.7557 108.165 19.8439 107.921 20.0321Z" fill="#9C9C9C"/>
<path d="M103.323 44.5629L117.934 41.1392L120 49.9571L118.43 50.3249L116.779 43.2763L111.842 44.4331L113.387 51.0251L111.817 51.3929L110.272 44.8009L105.307 45.9644L106.985 53.1271L105.416 53.4949L103.323 44.5629Z" fill="#9C9C9C"/>
<path d="M115.011 72.886C115.756 72.9454 116.391 72.7088 116.916 72.1762C117.441 71.6436 117.793 70.9318 117.971 70.0408C118.101 69.3894 118.11 68.7983 117.997 68.2675C117.883 67.7416 117.669 67.3052 117.355 66.9584C117.039 66.6163 116.647 66.3984 116.178 66.3045C115.785 66.2259 115.429 66.2518 115.109 66.382C114.792 66.5181 114.511 66.7159 114.265 66.9755C114.024 67.2361 113.81 67.5172 113.625 67.819C113.445 68.1217 113.292 68.4024 113.166 68.6611L112.464 70.0751C112.287 70.4382 112.063 70.8367 111.792 71.2707C111.52 71.7094 111.187 72.1137 110.794 72.4835C110.405 72.859 109.946 73.1406 109.415 73.3284C108.884 73.5161 108.274 73.541 107.584 73.403C106.789 73.244 106.112 72.8919 105.554 72.3467C104.994 71.8064 104.605 71.1008 104.385 70.2299C104.165 69.3639 104.168 68.3656 104.394 67.2352C104.605 66.1814 104.957 65.3029 105.452 64.5997C105.945 63.9013 106.54 63.3927 107.237 63.0737C107.932 62.7595 108.688 62.6541 109.504 62.7576L109.136 64.597C108.571 64.5337 108.074 64.6286 107.645 64.8815C107.219 65.1401 106.868 65.5032 106.59 65.9707C106.316 66.4439 106.12 66.9728 106.004 67.5571C105.867 68.2373 105.855 68.8701 105.968 69.4555C106.084 70.0418 106.31 70.5328 106.644 70.9284C106.983 71.3251 107.421 71.577 107.958 71.6844C108.446 71.7821 108.871 71.7251 109.232 71.5134C109.594 71.3017 109.914 70.9923 110.195 70.5851C110.476 70.178 110.74 69.7301 110.987 69.2415L111.867 67.5344C112.427 66.4509 113.081 65.6352 113.828 65.0872C114.576 64.5393 115.445 64.3645 116.436 64.5628C117.26 64.7276 117.934 65.0941 118.458 65.6622C118.986 66.2361 119.344 66.9355 119.533 67.7603C119.726 68.5909 119.728 69.4757 119.54 70.4145C119.35 71.3629 119.012 72.172 118.524 72.8416C118.041 73.5122 117.464 74.0046 116.794 74.3188C116.122 74.6378 115.413 74.735 114.666 74.6104L115.011 72.886Z" fill="#9C9C9C"/>
<path d="M94.9389 107.581L84.8121 98.8127L84.6593 98.8998L87.0455 112.081L85.3905 113.024L82.7451 97.2583L84.3747 96.3293L96.5939 106.637L94.9389 107.581Z" fill="#9C9C9C"/>
<path d="M66.1572 117.509L64.8003 102.564L66.6101 102.399L67.967 117.344L66.1572 117.509Z" fill="#9C9C9C"/>
<path d="M36.7664 112.474L41.7293 98.3118L43.3889 98.8934L47.2095 112.717L47.3478 112.766L51.2445 101.646L52.9594 102.247L47.9965 116.409L46.3369 115.828L42.4983 101.967L42.36 101.918L38.4537 113.065L36.7664 112.474Z" fill="#9C9C9C"/>
<path d="M20.31 100.742L30.699 89.9127L32.0104 91.1708L21.6213 102L20.31 100.742Z" fill="#9C9C9C"/>
<path d="M22.407 78.8513L8.46274 84.397L7.7912 82.7084L20.2375 77.7585L17.6597 71.2766L19.1576 70.6809L22.407 78.8513Z" fill="#9C9C9C"/>
<path d="M107.838 81.7638C103.279 81.7638 99.5839 85.4592 99.5839 90.0174C99.5839 94.5755 103.279 98.271 107.838 98.271C112.396 98.271 116.091 94.5755 116.091 90.0174C116.091 85.4592 112.396 81.7638 107.838 81.7638ZM107.838 90.3612C107.648 90.3612 107.493 90.2074 107.493 90.0174C107.493 89.8275 107.648 89.6736 107.838 89.6736C108.027 89.6736 108.181 89.8275 108.181 90.0174C108.181 90.2074 108.027 90.3612 107.838 90.3612Z" fill="#9C9C9C"/>
<path d="M105.964 85.5808C106.556 85.33 107.187 85.2027 107.838 85.2027C108.027 85.2027 108.181 85.0489 108.181 84.8589C108.181 84.669 108.027 84.5151 107.838 84.5151C104.798 84.5151 102.335 86.9785 102.335 90.0174C102.335 90.2074 102.489 90.3612 102.679 90.3612C102.869 90.3612 103.023 90.2074 103.023 90.0174C103.023 89.3671 103.15 88.7366 103.401 88.1437C103.643 87.5704 103.991 87.0553 104.433 86.613C104.875 86.1707 105.39 85.8234 105.964 85.5808Z" fill="#9C9C9C"/>
<path d="M109.711 94.454C109.118 94.7049 108.488 94.8323 107.838 94.8323C107.648 94.8323 107.493 94.986 107.493 95.1759C107.493 95.3658 107.648 95.5195 107.838 95.5195C110.876 95.5195 113.34 93.0561 113.34 90.0174C113.34 89.8275 113.186 89.6736 112.996 89.6736C112.806 89.6736 112.652 89.8275 112.652 90.0174C112.652 90.6678 112.525 91.298 112.274 91.8914C112.031 92.4647 111.684 92.9795 111.242 93.4218C110.8 93.8641 110.284 94.2117 109.711 94.454Z" fill="#9C9C9C"/>
<path d="M105.428 84.3133C106.191 83.9907 107.001 83.8272 107.838 83.8272C108.027 83.8272 108.181 83.6733 108.181 83.4834C108.181 83.2935 108.027 83.1393 107.838 83.1393C104.039 83.1393 100.959 86.2188 100.959 90.0174C100.959 90.2074 101.113 90.3612 101.303 90.3612C101.493 90.3612 101.647 90.2074 101.647 90.0174C101.647 89.1814 101.811 88.3709 102.133 87.6082C102.445 86.8712 102.892 86.209 103.46 85.6402C104.029 85.0715 104.691 84.6252 105.428 84.3133Z" fill="#9C9C9C"/>
<path d="M107.838 86.5785C108.027 86.5785 108.181 86.4244 108.181 86.2344C108.181 86.0445 108.027 85.8906 107.838 85.8906C105.558 85.8906 103.711 87.7382 103.711 90.0174C103.711 90.2074 103.864 90.3612 104.054 90.3612C104.244 90.3612 104.398 90.2074 104.398 90.0174C104.398 89.0988 104.756 88.2351 105.405 87.5858C106.055 86.9362 106.919 86.5785 107.837 86.5785H107.838Z" fill="#9C9C9C"/>
<path d="M107.493 93.8007C107.493 93.9901 107.648 94.1442 107.838 94.1442C110.117 94.1442 111.964 92.2965 111.964 90.0174C111.964 89.8275 111.81 89.6736 111.62 89.6736C111.43 89.6736 111.276 89.8275 111.276 90.0174C111.276 90.9363 110.918 91.7997 110.269 92.4491C109.62 93.0984 108.756 93.4561 107.838 93.4561C107.648 93.4561 107.493 93.6103 107.493 93.8007Z" fill="#9C9C9C"/>
<path d="M114.371 89.6736C114.181 89.6736 114.028 89.8275 114.028 90.0174C114.028 90.8537 113.864 91.6637 113.542 92.4264C113.23 93.1639 112.783 93.8259 112.215 94.3946C111.646 94.9634 110.983 95.4097 110.247 95.7215C109.484 96.0444 108.673 96.2076 107.838 96.2076C107.648 96.2076 107.493 96.3618 107.493 96.5512C107.493 96.7416 107.648 96.8958 107.838 96.8958C111.636 96.8958 114.715 93.8158 114.715 90.0174C114.715 89.8275 114.561 89.6736 114.371 89.6736Z" fill="#9C9C9C"/>
<path d="M107.838 87.6102C106.51 87.6102 105.43 88.69 105.43 90.0174C105.43 91.3448 106.51 92.4244 107.838 92.4244C109.165 92.4244 110.244 91.3448 110.244 90.0174C110.244 88.69 109.165 87.6102 107.838 87.6102ZM107.838 90.3612C107.648 90.3612 107.493 90.2074 107.493 90.0174C107.493 89.8275 107.648 89.6736 107.838 89.6736C108.027 89.6736 108.181 89.8275 108.181 90.0174C108.181 90.2074 108.027 90.3612 107.838 90.3612Z" fill="#333334"/>
<path d="M107.838 87.2661C106.318 87.2661 105.086 88.4981 105.086 90.0174C105.086 91.5368 106.318 92.769 107.838 92.769C109.357 92.769 110.589 91.5368 110.589 90.0174C110.589 88.4981 109.357 87.2661 107.838 87.2661ZM107.838 92.0808C106.7 92.0808 105.774 91.1549 105.774 90.0174C105.774 88.8797 106.7 87.954 107.838 87.954C108.975 87.954 109.901 88.8797 109.901 90.0174C109.901 91.1549 108.975 92.0808 107.838 92.0808Z" fill="#1A1A1B"/>
<path d="M8.25361 55.9067C3.69507 55.9067 0 59.602 0 64.1603C0 68.7183 3.69507 72.4139 8.25361 72.4139C12.8116 72.4139 16.5072 68.7183 16.5072 64.1603C16.5072 59.602 12.8116 55.9067 8.25361 55.9067ZM8.25361 64.5041C8.06368 64.5041 7.90953 64.3502 7.90953 64.1603C7.90953 63.9704 8.06368 63.8165 8.25361 63.8165C8.44354 63.8165 8.59716 63.9704 8.59716 64.1603C8.59716 64.3502 8.44354 64.5041 8.25361 64.5041Z" fill="#9C9C9C"/>
<path d="M6.37962 59.7237C6.97256 59.4728 7.60325 59.3456 8.25361 59.3456C8.44354 59.3456 8.59716 59.1917 8.59716 59.0018C8.59716 58.8119 8.44354 58.658 8.25361 58.658C5.21441 58.658 2.75103 61.1214 2.75103 64.1603C2.75103 64.3502 2.90517 64.5041 3.0951 64.5041C3.28503 64.5041 3.43866 64.3502 3.43866 64.1603C3.43866 63.5099 3.56611 62.8795 3.81697 62.2866C4.05929 61.7133 4.40688 61.1982 4.84919 60.7559C5.2915 60.3136 5.80635 59.9662 6.37962 59.7237Z" fill="#9C9C9C"/>
<path d="M10.1271 68.5969C9.53414 68.8478 8.90393 68.9752 8.25361 68.9752C8.06368 68.9752 7.90953 69.1289 7.90953 69.3188C7.90953 69.5087 8.06368 69.6623 8.25361 69.6623C11.2923 69.6623 13.7557 67.199 13.7557 64.1603C13.7557 63.9703 13.602 63.8165 13.4121 63.8165C13.2222 63.8165 13.068 63.9703 13.068 64.1603C13.068 64.8106 12.9411 65.4408 12.6902 66.0343C12.4474 66.6075 12.1003 67.1224 11.658 67.5647C11.2157 68.007 10.7004 68.3546 10.1271 68.5969Z" fill="#9C9C9C"/>
<path d="M5.84413 58.4562C6.60682 58.1336 7.41735 57.9701 8.25361 57.9701C8.44354 57.9701 8.59716 57.8162 8.59716 57.6263C8.59716 57.4364 8.44354 57.2822 8.25361 57.2822C4.45475 57.2822 1.37526 60.3617 1.37526 64.1603C1.37526 64.3502 1.5294 64.5041 1.71933 64.5041C1.90926 64.5041 2.0634 64.3502 2.0634 64.1603C2.0634 63.3243 2.2266 62.5138 2.54953 61.7511C2.86136 61.0141 3.3077 60.3519 3.87642 59.7831C4.44515 59.2144 5.10711 58.7681 5.84413 58.4562Z" fill="#9C9C9C"/>
<path d="M8.25361 60.7214C8.44354 60.7214 8.59716 60.5672 8.59716 60.3773C8.59716 60.1874 8.44354 60.0335 8.25361 60.0335C5.9741 60.0335 4.1268 61.881 4.1268 64.1603C4.1268 64.3502 4.28046 64.5041 4.47036 64.5041C4.66026 64.5041 4.81443 64.3502 4.81443 64.1603C4.81443 63.2417 5.17211 62.378 5.82144 61.7286C6.47128 61.0791 7.33475 60.7214 8.25309 60.7214H8.25361Z" fill="#9C9C9C"/>
<path d="M7.90953 67.9436C7.90953 68.133 8.06368 68.2871 8.25361 68.2871C10.5326 68.2871 12.3804 66.4393 12.3804 64.1603C12.3804 63.9704 12.2263 63.8165 12.0363 63.8165C11.8464 63.8165 11.6923 63.9704 11.6923 64.1603C11.6923 65.0792 11.3346 65.9426 10.6853 66.592C10.0359 67.2413 9.17195 67.599 8.25361 67.599C8.06368 67.599 7.90953 67.7531 7.90953 67.9436Z" fill="#9C9C9C"/>
<path d="M14.7874 63.8165C14.5974 63.8165 14.4438 63.9704 14.4438 64.1603C14.4438 64.9966 14.2801 65.8066 13.9577 66.5693C13.6459 67.3068 13.1995 67.9687 12.6308 68.5375C12.0621 69.1062 11.3996 69.5526 10.6626 69.8644C9.89988 70.1873 9.08935 70.3505 8.25361 70.3505C8.06368 70.3505 7.90953 70.5047 7.90953 70.6941C7.90953 70.8845 8.06368 71.0387 8.25361 71.0387C12.0519 71.0387 15.1314 67.9587 15.1314 64.1603C15.1314 63.9704 14.9773 63.8165 14.7874 63.8165Z" fill="#9C9C9C"/>
<path d="M8.25361 61.7531C6.92619 61.7531 5.84613 62.8329 5.84613 64.1603C5.84613 65.4877 6.92619 66.5673 8.25361 66.5673C9.58102 66.5673 10.6606 65.4877 10.6606 64.1603C10.6606 62.8329 9.58102 61.7531 8.25361 61.7531ZM8.25361 64.5041C8.06368 64.5041 7.90953 64.3502 7.90953 64.1603C7.90953 63.9704 8.06368 63.8165 8.25361 63.8165C8.44354 63.8165 8.59716 63.9704 8.59716 64.1603C8.59716 64.3502 8.44354 64.5041 8.25361 64.5041Z" fill="#333334"/>
<path d="M8.25361 61.409C6.73427 61.409 5.50206 62.641 5.50206 64.1603C5.50206 65.6796 6.73427 66.9119 8.25361 66.9119C9.77295 66.9119 11.0046 65.6796 11.0046 64.1603C11.0046 62.641 9.77295 61.409 8.25361 61.409ZM8.25361 66.2237C7.11561 66.2237 6.1902 65.2978 6.1902 64.1603C6.1902 63.0226 7.11561 62.0969 8.25361 62.0969C9.39109 62.0969 10.317 63.0226 10.317 64.1603C10.317 65.2978 9.39109 66.2237 8.25361 66.2237Z" fill="#1A1A1B"/>
</svg>
