<svg width="233" height="228" viewBox="0 0 233 228" fill="none" xmlns="http://www.w3.org/2000/svg">
<path d="M73.2485 168.806C68.2085 168.806 64.2418 167.453 61.3485 164.746C58.4551 161.946 57.0085 158.539 57.0085 154.526C57.0085 150.419 58.3618 145.939 61.0685 141.086C63.8685 136.139 69.8885 128.299 79.1285 117.566L102.228 90.8259H66.3885C59.7618 90.8259 55.3751 91.6659 53.2285 93.3459C51.1751 94.9326 49.5418 98.8059 48.3285 104.966H46.0885L47.6285 69.4059H110.348V84.5259L94.8085 111.686C87.9018 123.913 83.4685 132.686 81.5085 138.006C79.6418 143.233 78.7085 148.226 78.7085 152.986C78.7085 157.746 80.1085 162.133 82.9085 166.146L81.9285 167.826C79.3151 168.479 76.4218 168.806 73.2485 168.806Z" fill="#9C9C9C"/>
<path d="M146.576 115.886C137.522 115.419 130.476 113.179 125.436 109.166C120.396 105.059 117.876 99.7859 117.876 93.3459C117.876 85.5059 121.002 79.2993 127.256 74.7259C133.509 70.1526 142.656 67.8659 154.696 67.8659C166.736 67.8659 175.836 70.0126 181.996 74.3059C188.156 78.5993 191.236 84.3859 191.236 91.6659C191.236 98.8526 188.856 104.546 184.096 108.746C179.336 112.853 172.476 115.233 163.516 115.886V116.306C183.676 117.986 193.756 126.526 193.756 141.926C193.756 150.886 190.582 157.606 184.236 162.086C177.982 166.566 168.182 168.806 154.836 168.806C128.422 168.806 115.216 159.893 115.216 142.066C115.216 126.293 125.669 117.706 146.576 116.306V115.886ZM167.016 141.926C167.016 133.246 166.176 127.039 164.496 123.306C162.816 119.573 159.549 117.706 154.696 117.706C149.936 117.706 146.716 119.619 145.036 123.446C143.356 127.179 142.516 133.386 142.516 142.066C142.516 150.653 143.309 156.766 144.896 160.406C146.576 164.046 149.889 165.866 154.836 165.866C159.782 165.866 163.049 164.046 164.636 160.406C166.222 156.673 167.016 150.513 167.016 141.926ZM154.836 70.8059C150.729 70.8059 148.069 72.4859 146.856 75.8459C145.736 79.1126 145.176 83.5926 145.176 89.2859C145.176 94.8859 145.222 98.6659 145.316 100.626C145.409 102.493 145.596 104.453 145.876 106.506C146.249 108.559 146.809 110.099 147.556 111.126C149.142 113.366 151.709 114.486 155.256 114.486C158.429 114.486 160.809 113.366 162.396 111.126C163.609 109.353 164.262 106.739 164.356 103.286C164.449 99.7393 164.496 95.1193 164.496 89.4259C164.496 83.6393 163.889 79.1126 162.676 75.8459C161.556 72.4859 158.942 70.8059 154.836 70.8059Z" fill="#9C9C9C"/>
<path d="M36.2912 94.1393L8.9222 84.2792L12.2538 75.0315C13.0242 72.8933 14.0217 71.2698 15.2466 70.161C16.4625 69.049 17.8218 68.3912 19.3244 68.1877C20.827 67.9842 22.3846 68.1729 23.9972 68.7539C25.6097 69.3348 26.9209 70.1796 27.9306 71.2882C28.9404 72.3969 29.5561 73.7611 29.7778 75.381C29.9905 76.9977 29.7149 78.8662 28.951 80.9866L26.2549 88.4703L23.2615 87.3918L25.9191 80.015C26.4454 78.5539 26.6553 77.3009 26.5486 76.2559C26.4452 75.202 26.0736 74.3334 25.4341 73.65C24.7888 72.9545 23.9182 72.4094 22.8224 72.0146C21.7266 71.6198 20.695 71.4797 19.7277 71.5942C18.7605 71.7088 17.892 72.1357 17.1224 72.875C16.3438 73.6112 15.6881 74.7187 15.1553 76.1976L13.0562 82.0242L37.4852 90.8251L36.2912 94.1393ZM28.6377 76.8273L43.3588 74.5213L41.9723 78.3701L27.2896 80.5692L28.6377 76.8273Z" fill="#9C9C9C"/>
<path d="M57.0228 35.5005C59.2182 37.6438 60.7285 39.8925 61.5537 42.2465C62.3788 44.6005 62.5503 46.892 62.0681 49.121C61.5859 51.3501 60.4782 53.3523 58.745 55.1276C57.0118 56.9029 55.0368 58.0583 52.82 58.5938C50.6032 59.1294 48.3082 59.013 45.9351 58.2445C43.562 57.4761 41.2777 56.0203 39.0823 53.8769C36.8869 51.7336 35.3766 49.4849 34.5514 47.1309C33.7263 44.777 33.5548 42.4854 34.037 40.2564C34.5192 38.0273 35.6269 36.0252 37.3601 34.2499C39.0933 32.4746 41.0683 31.3191 43.2851 30.7836C45.5019 30.248 47.7969 30.3645 50.17 31.1329C52.5431 31.9013 54.8274 33.3572 57.0228 35.5005ZM54.6413 37.9398C52.8389 36.1802 51.0233 34.9966 49.1946 34.3891C47.3724 33.7748 45.6434 33.6683 44.0076 34.0696C42.3784 34.4642 40.9485 35.2916 39.7181 36.552C38.4877 37.8123 37.6915 39.265 37.3295 40.91C36.9742 42.5482 37.1221 44.2741 37.7734 46.0878C38.4312 47.8947 39.6614 49.6779 41.4638 51.4376C43.2662 53.1972 45.0785 54.3842 46.9006 54.9985C48.7294 55.606 50.4584 55.7125 52.0876 55.318C53.7234 54.9166 55.1566 54.0858 56.387 52.8255C57.6174 51.5651 58.4103 50.1158 58.7657 48.4776C59.1276 46.8326 58.9797 45.1067 58.3218 43.2998C57.6706 41.4862 56.4437 39.6995 54.6413 37.9398Z" fill="#9C9C9C"/>
<path d="M69.0463 14.5685L67.9168 11.6547L88.2601 3.7691L89.3896 6.68285L80.8603 9.98906L90.245 34.1997L86.9604 35.4729L77.5757 11.2623L69.0463 14.5685Z" fill="#9C9C9C"/>
<path d="M115.115 28.6385L111.428 28.4251L123.772 0L127.403 0.210103L136.386 29.8696L132.699 29.6562L125.435 4.7062L125.208 4.69307L115.115 28.6385ZM117.133 17.3727L131.994 18.2328L131.814 21.3525L116.952 20.4924L117.133 17.3727Z" fill="#9C9C9C"/>
<path d="M179.016 26.7296L175.9 25.086C176.189 24.0925 176.282 23.1351 176.179 22.2137C176.084 21.2966 175.832 20.4355 175.422 19.6302C175.024 18.8209 174.494 18.0914 173.83 17.4415C173.167 16.7917 172.408 16.2414 171.553 15.7908C169.995 14.9689 168.376 14.6181 166.696 14.7383C165.025 14.8628 163.412 15.4949 161.858 16.6344C160.312 17.7784 158.952 19.4643 157.776 21.6923C156.601 23.9202 155.978 25.995 155.906 27.9166C155.843 29.8426 156.232 31.5306 157.073 32.9807C157.923 34.4352 159.126 35.5733 160.684 36.3951C161.538 36.8458 162.421 37.1615 163.332 37.3424C164.243 37.5232 165.143 37.5533 166.031 37.4329C166.931 37.3085 167.787 37.0263 168.597 36.5865C169.42 36.1427 170.158 35.5255 170.81 34.7348L173.926 36.3785C172.998 37.5697 171.95 38.5212 170.782 39.2328C169.615 39.9445 168.378 40.4216 167.072 40.6643C165.771 40.8986 164.447 40.9015 163.101 40.6731C161.763 40.4492 160.445 39.9947 159.147 39.3099C156.952 38.1523 155.283 36.5868 154.14 34.6133C152.997 32.6399 152.457 30.4064 152.52 27.9127C152.582 25.4191 153.33 22.8154 154.761 20.1017C156.193 17.3879 157.92 15.3012 159.942 13.8415C161.965 12.3817 164.114 11.5665 166.388 11.3957C168.662 11.225 170.896 11.7184 173.091 12.876C174.389 13.5608 175.508 14.3922 176.449 15.37C177.397 16.3522 178.14 17.4506 178.677 18.6654C179.218 19.8717 179.525 21.1576 179.597 22.5232C179.673 23.8804 179.48 25.2825 179.016 26.7296ZM157.972 38.3694L160.435 39.6684L159.704 40.5674C160.304 41.0126 160.759 41.6007 161.07 42.3318C161.375 43.0713 161.27 43.931 160.753 44.911C160.183 45.9914 159.271 46.6345 158.017 46.8402C156.767 47.0586 155.275 46.7106 153.541 45.796L154.474 43.783C155.253 44.1939 155.964 44.4085 156.608 44.4268C157.255 44.4578 157.731 44.1844 158.036 43.6064C158.341 43.0285 158.335 42.5222 158.019 42.0874C157.702 41.6527 157.086 41.1458 156.171 40.5667L157.972 38.3694Z" fill="#9C9C9C"/>
<path d="M205.932 63.121C203.504 64.9968 201.067 66.1794 198.621 66.6689C196.175 67.1584 193.882 67.0093 191.741 66.2216C189.601 65.4339 187.773 64.0583 186.256 62.0949C184.739 60.1315 183.87 58.0149 183.648 55.7452C183.426 53.4754 183.861 51.2189 184.952 48.9758C186.043 46.7328 187.803 44.6734 190.231 42.7976C192.659 40.9218 195.096 39.7392 197.542 39.2497C199.988 38.7602 202.281 38.9093 204.421 39.697C206.561 40.4847 208.39 41.8603 209.907 43.8237C211.423 45.7871 212.293 47.9037 212.514 50.1735C212.736 52.4433 212.302 54.6997 211.21 56.9428C210.119 59.1859 208.36 61.2453 205.932 63.121ZM203.847 60.4232C205.841 58.8833 207.265 57.2501 208.122 55.5237C208.984 53.8048 209.33 52.1074 209.16 50.4316C208.996 48.7633 208.375 47.2323 207.299 45.8384C206.222 44.4445 204.894 43.4539 203.315 42.8665C201.743 42.2867 200.013 42.193 198.126 42.5855C196.245 42.9855 194.308 43.9554 192.315 45.4954C190.322 47.0354 188.894 48.6648 188.032 50.3837C187.176 52.1101 186.83 53.8075 186.994 55.4758C187.164 57.1516 187.787 58.6864 188.864 60.0802C189.94 61.4741 191.265 62.461 192.838 63.0409C194.417 63.6282 196.147 63.7219 198.027 63.3219C199.914 62.9294 201.854 61.9632 203.847 60.4232ZM209.21 38.8331L207.702 36.6953C208.849 35.8096 210.037 35.4119 211.268 35.5023C212.512 35.5944 213.507 36.1238 214.254 37.0905C214.584 37.5177 214.801 37.954 214.906 38.3995C215.019 38.8393 215.097 39.2814 215.141 39.7258C215.185 40.1703 215.254 40.6078 215.347 41.0384C215.454 41.4706 215.664 41.8891 215.976 42.2937C216.306 42.7209 216.749 42.9532 217.304 42.9908C217.873 43.03 218.394 42.8672 218.866 42.5025L220.249 44.6648C219.08 45.568 217.896 45.9561 216.697 45.8293C215.504 45.7099 214.534 45.1669 213.787 44.2002C213.388 43.6831 213.129 43.2009 213.011 42.7537C212.9 42.3007 212.837 41.8707 212.822 41.4637C212.807 41.0567 212.757 40.652 212.674 40.2498C212.598 39.8417 212.395 39.4241 212.065 38.9969C211.735 38.5698 211.292 38.3441 210.734 38.3199C210.19 38.2973 209.682 38.4684 209.21 38.8331Z" fill="#9C9C9C"/>
<path d="M200.296 86.3872L228.62 79.7504L232.626 96.8442L229.583 97.5571L226.381 83.8931L216.811 86.1356L219.805 98.9145L216.763 99.6275L213.768 86.8486L204.143 89.1041L207.396 102.989L204.354 103.702L200.296 86.3872Z" fill="#9C9C9C"/>
<path d="M222.953 141.293C224.398 141.408 225.63 140.949 226.647 139.917C227.665 138.884 228.347 137.505 228.692 135.777C228.945 134.515 228.962 133.369 228.743 132.34C228.522 131.32 228.107 130.474 227.497 129.802C226.886 129.139 226.126 128.716 225.216 128.534C224.454 128.382 223.764 128.432 223.143 128.685C222.53 128.948 221.985 129.332 221.508 129.835C221.04 130.34 220.627 130.885 220.268 131.47C219.919 132.057 219.622 132.601 219.377 133.103L218.017 135.844C217.674 136.548 217.239 137.32 216.713 138.161C216.186 139.012 215.541 139.796 214.78 140.513C214.026 141.241 213.135 141.787 212.106 142.15C211.077 142.514 209.894 142.563 208.557 142.295C207.015 141.987 205.703 141.304 204.62 140.248C203.536 139.2 202.781 137.832 202.356 136.144C201.929 134.465 201.934 132.53 202.373 130.339C202.781 128.296 203.465 126.593 204.423 125.23C205.38 123.876 206.533 122.89 207.883 122.271C209.232 121.662 210.697 121.458 212.279 121.659L211.566 125.224C210.47 125.102 209.506 125.286 208.674 125.776C207.85 126.277 207.168 126.981 206.629 127.887C206.098 128.805 205.719 129.83 205.493 130.963C205.229 132.281 205.206 133.508 205.423 134.643C205.65 135.779 206.087 136.731 206.735 137.498C207.392 138.267 208.241 138.755 209.281 138.963C210.228 139.153 211.052 139.042 211.752 138.632C212.452 138.222 213.074 137.622 213.619 136.833C214.163 136.043 214.674 135.175 215.154 134.228L216.859 130.919C217.945 128.818 219.213 127.237 220.661 126.175C222.11 125.112 223.795 124.774 225.717 125.158C227.315 125.478 228.621 126.188 229.637 127.289C230.66 128.402 231.355 129.758 231.721 131.357C232.094 132.967 232.098 134.682 231.734 136.502C231.366 138.34 230.71 139.909 229.765 141.207C228.828 142.507 227.71 143.461 226.41 144.07C225.108 144.689 223.733 144.877 222.285 144.636L222.953 141.293Z" fill="#9C9C9C"/>
<path d="M184.043 208.55L164.412 191.553L164.116 191.722L168.742 217.273L165.533 219.103L160.405 188.54L163.564 186.739L187.252 206.721L184.043 208.55Z" fill="#9C9C9C"/>
<path d="M128.249 227.796L125.618 198.825L129.127 198.506L131.757 227.478L128.249 227.796Z" fill="#9C9C9C"/>
<path d="M71.2734 218.036L80.8942 190.582L84.1115 191.709L91.5179 218.508L91.786 218.602L99.3399 197.046L102.664 198.211L93.0435 225.665L89.8262 224.538L82.385 197.667L82.1169 197.573L74.5442 219.182L71.2734 218.036Z" fill="#9C9C9C"/>
<path d="M39.3719 195.292L59.5115 174.3L62.0536 176.739L41.914 197.731L39.3719 195.292Z" fill="#9C9C9C"/>
<path d="M43.437 152.857L16.4054 163.607L15.1036 160.334L39.2314 150.738L34.2341 138.173L37.1379 137.018L43.437 152.857Z" fill="#9C9C9C"/>
<path d="M209.048 158.503C200.211 158.503 193.048 165.667 193.048 174.503C193.048 183.339 200.211 190.503 209.048 190.503C217.884 190.503 225.048 183.339 225.048 174.503C225.048 165.667 217.884 158.503 209.048 158.503ZM209.048 175.169C208.68 175.169 208.381 174.871 208.381 174.503C208.381 174.135 208.68 173.836 209.048 173.836C209.416 173.836 209.714 174.135 209.714 174.503C209.714 174.871 209.416 175.169 209.048 175.169Z" fill="#9C9C9C"/>
<path d="M205.415 165.902C206.565 165.416 207.787 165.169 209.048 165.169C209.416 165.169 209.714 164.871 209.714 164.503C209.714 164.135 209.416 163.836 209.048 163.836C203.156 163.836 198.381 168.612 198.381 174.503C198.381 174.871 198.68 175.169 199.048 175.169C199.416 175.169 199.714 174.871 199.714 174.503C199.714 173.242 199.961 172.02 200.447 170.871C200.917 169.759 201.591 168.761 202.448 167.903C203.306 167.046 204.304 166.373 205.415 165.902Z" fill="#9C9C9C"/>
<path d="M212.68 183.104C211.53 183.59 210.309 183.837 209.048 183.837C208.68 183.837 208.381 184.135 208.381 184.503C208.381 184.871 208.68 185.169 209.048 185.169C214.939 185.169 219.714 180.394 219.714 174.503C219.714 174.135 219.416 173.836 219.048 173.836C218.68 173.836 218.381 174.135 218.381 174.503C218.381 175.764 218.135 176.985 217.649 178.136C217.178 179.247 216.505 180.245 215.648 181.103C214.79 181.96 213.791 182.634 212.68 183.104Z" fill="#9C9C9C"/>
<path d="M204.377 163.445C205.856 162.82 207.427 162.503 209.048 162.503C209.416 162.503 209.714 162.205 209.714 161.836C209.714 161.468 209.416 161.169 209.048 161.169C201.684 161.169 195.714 167.139 195.714 174.503C195.714 174.871 196.013 175.169 196.381 175.169C196.749 175.169 197.048 174.871 197.048 174.503C197.048 172.882 197.364 171.311 197.99 169.833C198.595 168.404 199.46 167.12 200.563 166.018C201.665 164.915 202.948 164.05 204.377 163.445Z" fill="#9C9C9C"/>
<path d="M209.048 167.836C209.416 167.836 209.714 167.538 209.714 167.169C209.714 166.801 209.416 166.503 209.048 166.503C204.629 166.503 201.048 170.085 201.048 174.503C201.048 174.871 201.346 175.169 201.714 175.169C202.082 175.169 202.381 174.871 202.381 174.503C202.381 172.722 203.074 171.048 204.333 169.789C205.593 168.53 207.267 167.836 209.047 167.836H209.048Z" fill="#9C9C9C"/>
<path d="M208.381 181.837C208.381 182.204 208.68 182.503 209.048 182.503C213.466 182.503 217.048 178.921 217.048 174.503C217.048 174.135 216.749 173.836 216.381 173.836C216.013 173.836 215.714 174.135 215.714 174.503C215.714 176.284 215.021 177.958 213.762 179.217C212.503 180.476 210.828 181.169 209.048 181.169C208.68 181.169 208.381 181.468 208.381 181.837Z" fill="#9C9C9C"/>
<path d="M221.714 173.836C221.346 173.836 221.048 174.135 221.048 174.503C221.048 176.124 220.731 177.694 220.106 179.173C219.501 180.603 218.636 181.886 217.533 182.988C216.431 184.091 215.147 184.956 213.718 185.561C212.239 186.187 210.668 186.503 209.048 186.503C208.68 186.503 208.381 186.802 208.381 187.169C208.381 187.538 208.68 187.837 209.048 187.837C216.411 187.837 222.381 181.866 222.381 174.503C222.381 174.135 222.082 173.836 221.714 173.836Z" fill="#9C9C9C"/>
<path d="M209.048 169.836C206.475 169.836 204.381 171.93 204.381 174.503C204.381 177.076 206.475 179.169 209.048 179.169C211.621 179.169 213.714 177.076 213.714 174.503C213.714 171.93 211.621 169.836 209.048 169.836ZM209.048 175.169C208.68 175.169 208.381 174.871 208.381 174.503C208.381 174.135 208.68 173.836 209.048 173.836C209.416 173.836 209.714 174.135 209.714 174.503C209.714 174.871 209.416 175.169 209.048 175.169Z" fill="#F5F1E3"/>
<path d="M209.048 169.169C206.103 169.169 203.714 171.558 203.714 174.503C203.714 177.448 206.103 179.837 209.048 179.837C211.993 179.837 214.381 177.448 214.381 174.503C214.381 171.558 211.993 169.169 209.048 169.169ZM209.048 178.503C206.842 178.503 205.048 176.708 205.048 174.503C205.048 172.297 206.842 170.503 209.048 170.503C211.253 170.503 213.048 172.297 213.048 174.503C213.048 176.708 211.253 178.503 209.048 178.503Z" fill="#9C9C9C"/>
<path d="M16 108.378C7.16306 108.378 0 115.541 0 124.378C0 133.214 7.16306 140.378 16 140.378C24.8359 140.378 32 133.214 32 124.378C32 115.541 24.8359 108.378 16 108.378ZM16 125.044C15.6318 125.044 15.333 124.746 15.333 124.378C15.333 124.01 15.6318 123.711 16 123.711C16.3682 123.711 16.666 124.01 16.666 124.378C16.666 124.746 16.3682 125.044 16 125.044Z" fill="#9C9C9C"/>
<path d="M12.3672 115.777C13.5166 115.291 14.7392 115.044 16 115.044C16.3682 115.044 16.666 114.746 16.666 114.378C16.666 114.01 16.3682 113.711 16 113.711C10.1084 113.711 5.333 118.487 5.333 124.378C5.333 124.746 5.63181 125.044 6 125.044C6.36819 125.044 6.666 124.746 6.666 124.378C6.666 123.117 6.91306 121.895 7.39937 120.745C7.86912 119.634 8.54294 118.636 9.40038 117.778C10.2578 116.921 11.2559 116.247 12.3672 115.777Z" fill="#9C9C9C"/>
<path d="M19.6318 132.978C18.4824 133.465 17.2607 133.712 16 133.712C15.6318 133.712 15.333 134.01 15.333 134.378C15.333 134.746 15.6318 135.044 16 135.044C21.8906 135.044 26.666 130.268 26.666 124.378C26.666 124.009 26.3681 123.711 26 123.711C25.6319 123.711 25.333 124.009 25.333 124.378C25.333 125.638 25.0869 126.86 24.6006 128.01C24.1299 129.122 23.457 130.12 22.5996 130.977C21.7421 131.835 20.7432 132.509 19.6318 132.978Z" fill="#9C9C9C"/>
<path d="M11.3291 113.32C12.8076 112.695 14.3789 112.378 16 112.378C16.3682 112.378 16.666 112.079 16.666 111.711C16.666 111.343 16.3682 111.044 16 111.044C8.63575 111.044 2.666 117.014 2.666 124.378C2.666 124.746 2.96481 125.044 3.333 125.044C3.70119 125.044 4 124.746 4 124.378C4 122.757 4.31638 121.186 4.94238 119.707C5.54688 118.279 6.41213 116.995 7.51463 115.892C8.61713 114.79 9.90038 113.925 11.3291 113.32Z" fill="#9C9C9C"/>
<path d="M16 117.711C16.3682 117.711 16.666 117.412 16.666 117.044C16.666 116.676 16.3682 116.378 16 116.378C11.5811 116.378 8 119.959 8 124.378C8 124.746 8.29788 125.044 8.666 125.044C9.03413 125.044 9.333 124.746 9.333 124.378C9.333 122.597 10.0264 120.923 11.2851 119.664C12.5449 118.405 14.2187 117.711 15.999 117.711H16Z" fill="#9C9C9C"/>
<path d="M15.333 131.712C15.333 132.079 15.6318 132.378 16 132.378C20.418 132.378 24 128.796 24 124.378C24 124.01 23.7012 123.711 23.333 123.711C22.9648 123.711 22.666 124.01 22.666 124.378C22.666 126.159 21.9726 127.833 20.7139 129.092C19.4551 130.35 17.7802 131.044 16 131.044C15.6318 131.044 15.333 131.343 15.333 131.712Z" fill="#9C9C9C"/>
<path d="M28.666 123.711C28.2978 123.711 28 124.01 28 124.378C28 125.999 27.6826 127.569 27.0576 129.048C26.4531 130.477 25.5879 131.761 24.4854 132.863C23.3829 133.966 22.0986 134.831 20.6699 135.435C19.1914 136.061 17.6201 136.378 16 136.378C15.6318 136.378 15.333 136.677 15.333 137.044C15.333 137.413 15.6318 137.712 16 137.712C23.3632 137.712 29.333 131.741 29.333 124.378C29.333 124.01 29.0342 123.711 28.666 123.711Z" fill="#9C9C9C"/>
<path d="M16 119.711C13.4267 119.711 11.333 121.804 11.333 124.378C11.333 126.951 13.4267 129.044 16 129.044C18.5733 129.044 20.666 126.951 20.666 124.378C20.666 121.804 18.5733 119.711 16 119.711ZM16 125.044C15.6318 125.044 15.333 124.746 15.333 124.378C15.333 124.01 15.6318 123.711 16 123.711C16.3682 123.711 16.666 124.01 16.666 124.378C16.666 124.746 16.3682 125.044 16 125.044Z" fill="#F5F1E3"/>
<path d="M16 119.044C13.0547 119.044 10.666 121.432 10.666 124.378C10.666 127.323 13.0547 129.712 16 129.712C18.9453 129.712 21.333 127.323 21.333 124.378C21.333 121.432 18.9453 119.044 16 119.044ZM16 128.378C13.7939 128.378 12 126.583 12 124.378C12 122.172 13.7939 120.378 16 120.378C18.2051 120.378 20 122.172 20 124.378C20 126.583 18.2051 128.378 16 128.378Z" fill="#9C9C9C"/>
</svg>
