<svg width="140" height="57" viewBox="0 0 140 57" fill="none" xmlns="http://www.w3.org/2000/svg">
<path d="M31.1314 37.5356C31.6453 37.5356 32.0406 37.7925 32.3174 38.3064C32.5941 38.8204 32.7324 39.4726 32.7324 40.2633C32.7324 42.1608 32.1592 43.2875 31.0128 43.6432C28.6409 44.4734 26.0318 44.9478 23.1855 45.0664C22.4344 48.3871 20.9519 51.0555 18.7381 53.0716C16.5243 55.0482 14.0141 56.0365 11.2073 56.0365C8.83539 56.0365 6.79949 55.4633 5.09962 54.3169C3.43928 53.1704 2.17426 51.6485 1.30455 49.7509C0.434851 47.8534 0 45.7977 0 43.5839C0 40.5795 0.573213 37.9111 1.71964 35.5787C2.86606 33.2068 4.44734 31.3686 6.46347 30.064C8.4796 28.7199 10.7132 28.0479 13.1641 28.0479C16.1686 28.0479 18.58 29.0955 20.3985 31.1907C22.2565 33.2463 23.3436 35.7962 23.6599 38.8401C25.5179 38.7215 27.7316 38.3262 30.3012 37.6542C30.6175 37.5751 30.8942 37.5356 31.1314 37.5356ZM11.6817 49.7509C12.9467 49.7509 14.0338 49.237 14.9431 48.2092C15.8918 47.1814 16.5243 45.6989 16.8406 43.7618C15.6151 42.9317 14.6663 41.8445 13.9943 40.5005C13.3618 39.1564 13.0455 37.7332 13.0455 36.231C13.0455 35.5985 13.1048 34.966 13.2234 34.3335H12.9269C11.3457 34.3335 10.0213 35.1044 8.95398 36.6461C7.92615 38.1483 7.41224 40.283 7.41224 43.0503C7.41224 45.2245 7.82732 46.8849 8.65749 48.0313C9.52719 49.1777 10.5353 49.7509 11.6817 49.7509Z" fill="#9C9C9C"/>
<path d="M35.411 24.1935C33.7507 24.1935 32.5054 23.818 31.6753 23.0669C30.8451 22.2762 30.43 21.1891 30.43 19.8055C30.43 18.4219 30.9637 17.2755 32.0311 16.3662C33.1379 15.4175 34.5018 14.9431 36.1226 14.9431C37.5853 14.9431 38.7712 15.2989 39.6805 16.0104C40.5897 16.722 41.0443 17.7301 41.0443 19.0346C41.0443 20.6159 40.5304 21.8809 39.5026 22.8297C38.4748 23.7389 37.1109 24.1935 35.411 24.1935ZM34.9366 56.0365C32.3671 56.0365 30.4893 55.1273 29.3034 53.3088C28.1569 51.4903 27.5837 49.0789 27.5837 46.0745C27.5837 44.2955 27.8011 42.0224 28.236 39.2552C28.7104 36.4484 29.3033 33.8393 30.0149 31.4279C30.3707 30.1629 30.8451 29.2932 31.4381 28.8188C32.0311 28.3444 32.9798 28.1072 34.2844 28.1072C36.3005 28.1072 37.3086 28.7792 37.3086 30.1233C37.3086 31.1116 36.933 33.4045 36.1819 37.0019C35.2331 41.3504 34.7588 44.2955 34.7588 45.8373C34.7588 47.0232 34.9169 47.9325 35.2331 48.565C35.5494 49.1975 36.0831 49.5137 36.8342 49.5137C37.5458 49.5137 38.4352 49.0196 39.5026 48.0313C40.57 47.043 41.9931 45.4815 43.772 43.3468C44.2464 42.7933 44.7801 42.5166 45.3731 42.5166C45.887 42.5166 46.2823 42.7538 46.559 43.2282C46.8753 43.7025 47.0334 44.3548 47.0334 45.185C47.0334 46.7663 46.6579 47.9918 45.9068 48.8615C41.9931 53.6448 38.3364 56.0365 34.9366 56.0365Z" fill="#9C9C9C"/>
<path d="M68.6827 42.5166C69.1966 42.5166 69.5919 42.7538 69.8687 43.2282C70.1849 43.7025 70.343 44.3548 70.343 45.185C70.343 46.7663 69.9675 47.9918 69.2164 48.8615C67.5165 50.9567 65.6585 52.6763 63.6424 54.0204C61.6263 55.3645 59.3136 56.0365 56.7045 56.0365C48.64 56.0365 44.6078 50.3637 44.6078 39.018C44.6078 37.2786 44.6671 35.5194 44.7857 33.7405H42.473C41.2871 33.7405 40.4767 33.5231 40.0418 33.0882C39.6465 32.6534 39.4488 31.9616 39.4488 31.0128C39.4488 28.799 40.3383 27.6921 42.1173 27.6921H45.4972C46.1693 23.3436 47.1971 19.3706 48.5807 15.7732C49.9643 12.1758 51.6247 9.30977 53.5617 7.17504C55.5383 5.04032 57.6533 3.97296 59.9066 3.97296C61.567 3.97296 62.8715 4.7043 63.8203 6.16698C64.7691 7.62966 65.2434 9.4679 65.2434 11.6817C65.2434 17.8091 62.6739 23.1459 57.5347 27.6921H64.1761C64.8086 27.6921 65.2632 27.8305 65.5399 28.1072C65.8166 28.3839 65.955 28.8978 65.955 29.6489C65.955 32.3766 63.7214 33.7405 59.2543 33.7405H52.02C51.9409 35.7171 51.9014 37.2588 51.9014 38.3657C51.9014 42.4771 52.3758 45.3629 53.3246 47.0232C54.3129 48.6836 55.8546 49.5137 57.9498 49.5137C59.6497 49.5137 61.1519 48.9998 62.4564 47.972C63.761 46.9442 65.3027 45.4024 67.0817 43.3468C67.556 42.7933 68.0897 42.5166 68.6827 42.5166ZM58.3056 9.66556C57.7126 9.66556 57.0406 10.4167 56.2895 11.9189C55.5779 13.3816 54.8861 15.4372 54.214 18.0859C53.5815 20.695 53.0478 23.6006 52.613 26.8026C54.9454 24.7865 56.6848 22.5332 57.8312 20.0427C59.0172 17.5126 59.6101 15.2198 59.6101 13.1641C59.6101 10.8317 59.1753 9.66556 58.3056 9.66556Z" fill="#9C9C9C"/>
<path d="M76.8408 56.0365C72.9667 56.0365 69.9425 54.9494 67.7682 52.7751C65.6335 50.5613 64.5661 47.6557 64.5661 44.0583C64.5661 40.8562 65.1986 38.0495 66.4637 35.638C67.7287 33.2266 69.3693 31.3686 71.3854 30.064C73.4015 28.7595 75.5165 28.1072 77.7303 28.1072C79.9045 28.1072 81.5846 28.7595 82.7706 30.064C83.9961 31.3291 84.6088 32.9696 84.6088 34.9858C84.6088 36.6461 84.2333 38.0495 83.4822 39.1959C82.7706 40.3423 81.8218 40.9155 80.6359 40.9155C79.8848 40.9155 79.272 40.7377 78.7976 40.3819C78.3628 40.0261 78.1454 39.5319 78.1454 38.8994C78.1454 38.6227 78.1849 38.3064 78.264 37.9506C78.343 37.5949 78.4023 37.3379 78.4418 37.1798C78.6395 36.5868 78.7383 36.0334 78.7383 35.5194C78.7383 35.0055 78.6 34.6102 78.3232 34.3335C78.0861 34.0568 77.7303 33.9184 77.2559 33.9184C76.3467 33.9184 75.4967 34.3335 74.7061 35.1636C73.9154 35.9543 73.2829 37.0414 72.8085 38.425C72.3342 39.8086 72.097 41.3306 72.097 42.991C72.097 47.5767 74.0933 49.8695 78.0861 49.8695C79.7069 49.8695 81.4463 49.3358 83.3043 48.2685C85.2018 47.1616 87.0598 45.521 88.8783 43.3468C89.3527 42.7933 89.8863 42.5166 90.4793 42.5166C90.9932 42.5166 91.3885 42.7538 91.6653 43.2282C91.9815 43.7025 92.1397 44.3548 92.1397 45.185C92.1397 46.6872 91.7641 47.9127 91.013 48.8615C89.155 51.1543 86.9214 52.9332 84.3123 54.1983C81.7428 55.4238 79.2522 56.0365 76.8408 56.0365Z" fill="#9C9C9C"/>
<path d="M120.257 42.5166C120.77 42.5166 121.166 42.7538 121.443 43.2282C121.759 43.7025 121.917 44.3548 121.917 45.185C121.917 46.7663 121.541 47.9918 120.79 48.8615C118.972 50.9567 117.094 52.6763 115.157 54.0204C113.259 55.3645 111.085 56.0365 108.634 56.0365C106.618 56.0365 105.096 55.4633 104.068 54.3169C103.04 53.1309 102.527 51.431 102.527 49.2172C102.527 48.1104 102.803 46.1338 103.357 43.2875C103.871 40.7969 104.128 39.0773 104.128 38.1285C104.128 37.496 103.91 37.1798 103.475 37.1798C102.961 37.1798 102.23 37.8518 101.281 39.1959C100.332 40.5005 99.3837 42.2399 98.435 44.4141C97.4862 46.5884 96.7153 48.8812 96.1223 51.2927C95.3712 54.4552 93.5132 56.0365 90.5483 56.0365C89.3624 56.0365 88.5717 55.6214 88.1764 54.7913C87.8206 53.9215 87.6427 52.3798 87.6427 50.166C87.6427 48.901 87.6625 47.8929 87.702 47.1418L87.7613 42.398C87.7613 36.3101 88.3741 29.9652 89.5996 23.3634C90.8646 16.7615 92.7028 11.2271 95.1143 6.75996C97.5653 2.25332 100.491 0 103.89 0C105.709 0 107.172 0.790639 108.278 2.37192C109.425 3.91366 109.998 5.92979 109.998 8.4203C109.998 12.413 108.832 16.5639 106.499 20.8729C104.167 25.1423 100.372 30.1431 95.1143 35.8752C94.9957 37.9309 94.9364 40.0458 94.9364 42.2201C96.2409 38.8599 97.6839 36.1322 99.2651 34.037C100.886 31.9023 102.467 30.3803 104.009 29.4711C105.59 28.5618 107.033 28.1072 108.338 28.1072C110.907 28.1072 112.192 29.392 112.192 31.9616C112.192 33.5033 111.757 36.2903 110.888 40.3226C110.136 43.7618 109.761 46.0349 109.761 47.1418C109.761 48.7231 110.334 49.5137 111.48 49.5137C112.271 49.5137 113.2 49.0394 114.267 48.0906C115.374 47.1023 116.837 45.521 118.656 43.3468C119.13 42.7933 119.664 42.5166 120.257 42.5166ZM102.645 5.87049C101.934 5.87049 101.143 6.89832 100.273 8.95398C99.4035 10.9701 98.5536 13.7176 97.7234 17.1964C96.9328 20.6357 96.2805 24.3912 95.7666 28.463C98.2175 25.5772 100.234 22.4344 101.815 19.0346C103.436 15.6349 104.246 12.5514 104.246 9.78415C104.246 8.51913 104.108 7.5506 103.831 6.87855C103.554 6.20651 103.159 5.87049 102.645 5.87049Z" fill="#9C9C9C"/>
<path d="M127.132 56.0365C124.8 56.0365 122.804 55.4633 121.143 54.3169C119.522 53.1309 118.297 51.5892 117.467 49.6916C116.637 47.7941 116.222 45.7582 116.222 43.5839C116.222 40.5795 116.775 37.9111 117.882 35.5787C119.028 33.2068 120.57 31.3686 122.507 30.064C124.444 28.7199 126.618 28.0479 129.03 28.0479C131.362 28.0479 133.359 28.6409 135.019 29.8268C136.679 30.9733 137.925 32.4952 138.755 34.3928C139.585 36.2903 140 38.3262 140 40.5005C140 43.5049 139.427 46.1931 138.28 48.565C137.134 50.8974 135.572 52.7356 133.596 54.0797C131.659 55.3842 129.504 56.0365 127.132 56.0365ZM127.785 49.6323C129.129 49.6323 130.255 48.901 131.165 47.4383C132.113 45.9756 132.588 43.8409 132.588 41.0341C132.588 38.8599 132.192 37.2193 131.402 36.1124C130.611 35.0055 129.662 34.4521 128.556 34.4521C127.132 34.4521 125.946 35.1834 124.998 36.6461C124.088 38.0692 123.634 40.204 123.634 43.0503C123.634 45.3036 124.029 46.9639 124.82 48.0313C125.61 49.0987 126.599 49.6323 127.785 49.6323Z" fill="#9C9C9C"/>
</svg>
