<svg width="100" height="98" viewBox="0 0 100 98" fill="none" xmlns="http://www.w3.org/2000/svg">
<path d="M31.4877 72.5655C29.3211 72.5655 27.616 71.9837 26.3722 70.8202C25.1284 69.6166 24.5065 68.1521 24.5065 66.4269C24.5065 64.6615 25.0883 62.7357 26.2518 60.6494C27.4555 58.5229 30.0433 55.1527 34.0154 50.5387L43.9455 39.0438H28.5388C25.6901 39.0438 23.8044 39.4049 22.8816 40.1271C21.9989 40.8092 21.2968 42.4742 20.7752 45.1223H19.8123L20.4743 29.8359H47.4361V36.3356L40.7558 48.011C37.7868 53.267 35.881 57.0384 35.0385 59.3253C34.236 61.5722 33.8348 63.7187 33.8348 65.7649C33.8348 67.8111 34.4367 69.6968 35.6403 71.422L35.219 72.1442C34.0956 72.4251 32.8518 72.5655 31.4877 72.5655Z" fill="#9C9C9C"/>
<path d="M63.0093 49.8165C59.1175 49.6159 56.0883 48.653 53.9217 46.9277C51.7551 45.1624 50.6718 42.8955 50.6718 40.1271C50.6718 36.7569 52.0159 34.0888 54.7041 32.1228C57.3922 30.1569 61.3241 29.1739 66.4998 29.1739C71.6755 29.1739 75.5874 30.0967 78.2354 31.9423C80.8835 33.7879 82.2075 36.2754 82.2075 39.4049C82.2075 42.4943 81.1844 44.9417 79.1382 46.7472C77.092 48.5125 74.143 49.5356 70.2913 49.8165V49.9971C78.9576 50.7192 83.2908 54.3904 83.2908 61.0105C83.2908 64.8621 81.9266 67.7509 79.1984 69.6767C76.5102 71.6026 72.2974 72.5655 66.56 72.5655C55.2056 72.5655 49.5284 68.7339 49.5284 61.0706C49.5284 54.2901 54.022 50.5989 63.0093 49.9971V49.8165ZM71.7959 61.0105C71.7959 57.2791 71.4348 54.611 70.7126 53.0062C69.9904 51.4013 68.5862 50.5989 66.4998 50.5989C64.4536 50.5989 63.0694 51.4214 62.3472 53.0664C61.6251 54.6712 61.264 57.3393 61.264 61.0706C61.264 64.7618 61.605 67.3898 62.2871 68.9546C63.0093 70.5193 64.4336 71.3017 66.56 71.3017C68.6865 71.3017 70.0907 70.5193 70.7728 68.9546C71.4549 67.3497 71.7959 64.7017 71.7959 61.0105ZM66.56 30.4377C64.7947 30.4377 63.6512 31.1599 63.1296 32.6043C62.6482 34.0086 62.4074 35.9344 62.4074 38.3818C62.4074 40.7891 62.4275 42.4141 62.4676 43.2566C62.5077 44.059 62.588 44.9016 62.7083 45.7843C62.8688 46.667 63.1096 47.329 63.4305 47.7703C64.1126 48.7332 65.216 49.2147 66.7406 49.2147C68.1047 49.2147 69.1278 48.7332 69.8099 47.7703C70.3315 47.008 70.6123 45.8846 70.6524 44.4001C70.6926 42.8754 70.7126 40.8894 70.7126 38.442C70.7126 35.9545 70.4518 34.0086 69.9303 32.6043C69.4488 31.1599 68.3254 30.4377 66.56 30.4377Z" fill="#9C9C9C"/>
<path d="M15.6007 40.4682L3.83544 36.2296L5.26762 32.2542C5.59876 31.335 6.0276 30.6371 6.55412 30.1605C7.07682 29.6824 7.66114 29.3997 8.30708 29.3122C8.95302 29.2247 9.62258 29.3059 10.3158 29.5556C11.009 29.8053 11.5726 30.1685 12.0067 30.6451C12.4408 31.1216 12.7054 31.7081 12.8007 32.4044C12.8922 33.0994 12.7737 33.9026 12.4453 34.8141L11.2863 38.0312L9.99953 37.5676L11.142 34.3965C11.3682 33.7684 11.4585 33.2297 11.4126 32.7805C11.3681 32.3275 11.2084 31.9541 10.9335 31.6603C10.6561 31.3614 10.2819 31.127 9.81079 30.9573C9.33972 30.7876 8.89628 30.7274 8.48047 30.7766C8.06466 30.8258 7.69133 31.0094 7.36048 31.3272C7.0258 31.6436 6.74395 32.1197 6.51491 32.7555L5.61255 35.2602L16.1139 39.0435L15.6007 40.4682ZM12.3106 33.0262L18.6389 32.0349L18.0428 33.6894L11.7311 34.6347L12.3106 33.0262Z" fill="#9C9C9C"/>
<path d="M24.5127 15.2608C25.4565 16.1822 26.1057 17.1488 26.4604 18.1607C26.8151 19.1726 26.8888 20.1577 26.6815 21.1159C26.4743 22.0741 25.9981 22.9348 25.253 23.698C24.508 24.4611 23.659 24.9578 22.706 25.188C21.753 25.4183 20.7665 25.3682 19.7464 25.0379C18.7262 24.7076 17.7443 24.0817 16.8005 23.1604C15.8568 22.239 15.2075 21.2723 14.8528 20.2604C14.4981 19.2485 14.4244 18.2634 14.6317 17.3052C14.8389 16.347 15.3151 15.4863 16.0602 14.7232C16.8052 13.96 17.6542 13.4633 18.6072 13.2331C19.5602 13.0029 20.5467 13.0529 21.5669 13.3833C22.587 13.7136 23.5689 14.3394 24.5127 15.2608ZM23.489 16.3094C22.7141 15.553 21.9337 15.0442 21.1475 14.783C20.3642 14.5189 19.621 14.4732 18.9178 14.6457C18.2174 14.8153 17.6028 15.171 17.0738 15.7128C16.5449 16.2546 16.2026 16.879 16.047 17.5862C15.8943 18.2904 15.9579 19.0324 16.2378 19.812C16.5206 20.5887 17.0494 21.3553 17.8243 22.1117C18.5991 22.8682 19.3781 23.3784 20.1614 23.6425C20.9475 23.9037 21.6908 23.9494 22.3912 23.7798C23.0944 23.6073 23.7104 23.2501 24.2394 22.7084C24.7683 22.1666 25.1092 21.5436 25.2619 20.8393C25.4175 20.1322 25.3539 19.3902 25.0711 18.6135C24.7912 17.8339 24.2638 17.0658 23.489 16.3094Z" fill="#9C9C9C"/>
<path d="M29.6813 6.26263L29.1958 5.01008L37.9409 1.62024L38.4264 2.87279L34.7598 4.29405L38.7941 14.7016L37.3821 15.2489L33.3479 4.84137L29.6813 6.26263Z" fill="#9C9C9C"/>
<path d="M49.4849 12.311L47.9 12.2193L53.2067 0L54.7673 0.0903183L58.6289 12.8402L57.044 12.7485L53.9215 2.02308L53.8239 2.01743L49.4849 12.311ZM50.3524 7.46808L56.741 7.83782L56.6634 9.17893L50.2748 8.80919L50.3524 7.46808Z" fill="#9C9C9C"/>
<path d="M76.9546 11.4904L75.6152 10.7838C75.7392 10.3568 75.7791 9.94521 75.7349 9.54911C75.6944 9.1549 75.5859 8.78471 75.4095 8.43853C75.2386 8.09065 75.0105 7.77704 74.7253 7.49768C74.44 7.21833 74.1137 6.98179 73.7465 6.78806C73.0768 6.43478 72.3808 6.28397 71.6586 6.33562C70.94 6.38917 70.2467 6.66087 69.5786 7.15073C68.9142 7.64249 68.3294 8.36723 67.8242 9.32498C67.3189 10.2827 67.051 11.1746 67.0202 12.0006C66.9931 12.8286 67.1603 13.5542 67.5219 14.1776C67.887 14.8028 68.4044 15.2921 69.0741 15.6454C69.4414 15.8391 69.8208 15.9748 70.2125 16.0526C70.6041 16.1303 70.9908 16.1432 71.3725 16.0915C71.7597 16.038 72.1274 15.9167 72.4757 15.7276C72.8295 15.5368 73.1466 15.2715 73.4272 14.9316L74.7666 15.6382C74.3675 16.1503 73.9171 16.5593 73.4151 16.8652C72.9131 17.1711 72.3815 17.3763 71.8202 17.4806C71.2608 17.5813 70.6917 17.5826 70.113 17.4844C69.5379 17.3881 68.9712 17.1928 68.4132 16.8984C67.4698 16.4007 66.7524 15.7278 66.2611 14.8794C65.7697 14.0311 65.5375 13.0709 65.5644 11.999C65.5914 10.9271 65.9126 9.80779 66.528 8.64122C67.1434 7.47464 67.8858 6.5776 68.7553 5.9501C69.6248 5.3226 70.5484 4.97214 71.526 4.89874C72.5036 4.82533 73.4641 5.03744 74.4075 5.53507C74.9655 5.82947 75.4467 6.18683 75.8509 6.60717C76.2587 7.0294 76.578 7.5016 76.8088 8.02378C77.0415 8.54235 77.1733 9.09514 77.2043 9.68216C77.2371 10.2656 77.1539 10.8683 76.9546 11.4904ZM67.9085 16.494L68.967 17.0524L68.6527 17.4389C68.9107 17.6303 69.1064 17.8831 69.2398 18.1974C69.3713 18.5153 69.3259 18.8848 69.1037 19.3061C68.8587 19.7706 68.4666 20.047 67.9275 20.1354C67.3901 20.2294 66.7487 20.0797 66.0034 19.6866L66.4047 18.8212C66.7395 18.9979 67.0452 19.0901 67.3219 19.098C67.6002 19.1113 67.8049 18.9938 67.9359 18.7453C68.067 18.4969 68.0644 18.2792 67.9283 18.0924C67.7921 17.9055 67.5274 17.6876 67.134 17.4386L67.9085 16.494Z" fill="#9C9C9C"/>
<path d="M88.5249 27.1342C87.4811 27.9405 86.4336 28.4489 85.3821 28.6593C84.3307 28.8698 83.3449 28.8057 82.4249 28.467C81.5049 28.1284 80.7188 27.5371 80.0668 26.6931C79.4147 25.8491 79.041 24.9392 78.9457 23.9635C78.8503 22.9877 79.0372 22.0178 79.5063 21.0535C79.9754 20.0893 80.7318 19.204 81.7755 18.3976C82.8193 17.5913 83.8669 17.0829 84.9183 16.8725C85.9697 16.6621 86.9555 16.7262 87.8755 17.0648C88.7956 17.4034 89.5816 17.9947 90.2336 18.8387C90.8857 19.6827 91.2594 20.5926 91.3547 21.5683C91.4501 22.5441 91.2632 23.5141 90.7941 24.4783C90.3251 25.4425 89.5686 26.3278 88.5249 27.1342ZM87.629 25.9745C88.4859 25.3125 89.0983 24.6104 89.4664 23.8683C89.8369 23.1293 89.9856 22.3997 89.9127 21.6793C89.8422 20.9622 89.5755 20.304 89.1126 19.7048C88.6497 19.1056 88.0789 18.6798 87.4003 18.4273C86.7242 18.178 85.9806 18.1377 85.1696 18.3064C84.3611 18.4784 83.5284 18.8954 82.6715 19.5574C81.8146 20.2193 81.2008 20.9198 80.8303 21.6587C80.4623 22.4009 80.3135 23.1305 80.384 23.8477C80.457 24.568 80.7249 25.2278 81.1878 25.827C81.6507 26.4262 82.2202 26.8504 82.8964 27.0997C83.575 27.3522 84.3185 27.3925 85.1271 27.2205C85.9381 27.0518 86.7721 26.6365 87.629 25.9745ZM89.9343 16.6934L89.2861 15.7744C89.779 15.3937 90.2899 15.2227 90.8189 15.2616C91.3536 15.3012 91.7815 15.5287 92.1025 15.9443C92.2444 16.1279 92.3379 16.3155 92.3829 16.507C92.4312 16.696 92.4649 16.8861 92.4839 17.0772C92.5029 17.2682 92.5325 17.4563 92.5725 17.6414C92.6184 17.8272 92.7085 18.0071 92.8428 18.181C92.9847 18.3647 93.175 18.4645 93.4138 18.4807C93.6583 18.4975 93.8821 18.4276 94.085 18.2708L94.6797 19.2003C94.1771 19.5885 93.6682 19.7554 93.1528 19.7009C92.6399 19.6496 92.2229 19.4161 91.9019 19.0006C91.7302 18.7783 91.6189 18.571 91.5681 18.3788C91.5206 18.184 91.4935 17.9992 91.4869 17.8242C91.4804 17.6492 91.4592 17.4753 91.4233 17.3024C91.3907 17.127 91.3034 16.9474 91.1616 16.7638C91.0197 16.5802 90.829 16.4832 90.5895 16.4728C90.3557 16.4631 90.1373 16.5366 89.9343 16.6934Z" fill="#9C9C9C"/>
<path d="M86.1025 37.1357L98.2782 34.2827L100 41.6309L98.6921 41.9374L97.3157 36.0636L93.2017 37.0276L94.4889 42.5209L93.1809 42.8274L91.8937 37.3341L87.7559 38.3036L89.1546 44.2726L87.8466 44.5791L86.1025 37.1357Z" fill="#9C9C9C"/>
<path d="M95.8421 60.7383C96.4633 60.7879 96.9926 60.5907 97.4301 60.1468C97.8676 59.703 98.1606 59.1098 98.3091 58.3673C98.4177 57.8245 98.4249 57.3319 98.3308 56.8896C98.2358 56.4513 98.0574 56.0877 97.7955 55.7986C97.5329 55.5136 97.2059 55.332 96.8148 55.2537C96.4874 55.1883 96.1905 55.2098 95.9238 55.3184C95.6603 55.4317 95.426 55.5966 95.2208 55.8129C95.0196 56.0301 94.842 56.2644 94.6879 56.5158C94.5378 56.7681 94.4101 57.002 94.3047 57.2176L93.7202 58.3959C93.5725 58.6985 93.3857 59.0306 93.1598 59.3922C92.933 59.7579 92.656 60.0947 92.3286 60.4029C92.0045 60.7158 91.6213 60.9505 91.179 61.107C90.7367 61.2634 90.2281 61.2842 89.6533 61.1692C88.9907 61.0366 88.4267 60.7432 87.9613 60.2889C87.4951 59.8387 87.1706 59.2507 86.9878 58.525C86.8042 57.8032 86.8066 56.9714 86.9951 56.0293C87.1707 55.1511 87.4645 54.4191 87.8765 53.8331C88.2877 53.2511 88.7835 52.8272 89.3639 52.5614C89.9435 52.2996 90.5734 52.2118 91.2536 52.298L90.947 53.8308C90.4759 53.7781 90.0616 53.8571 89.7039 54.0679C89.3495 54.2834 89.0565 54.586 88.8249 54.9756C88.5966 55.37 88.4337 55.8106 88.3363 56.2976C88.2229 56.8644 88.2129 57.3918 88.3063 57.8795C88.4036 58.3681 88.5916 58.7773 88.8702 59.107C89.1528 59.4376 89.5177 59.6475 89.9648 59.737C90.3719 59.8184 90.726 59.7709 91.027 59.5945C91.3279 59.4181 91.5954 59.1602 91.8293 58.8209C92.0633 58.4817 92.2832 58.1084 92.4892 57.7013L93.2222 56.2787C93.6892 55.3758 94.2341 54.696 94.8569 54.2394C95.4796 53.7827 96.2041 53.6371 97.0304 53.8023C97.7169 53.9397 98.2786 54.2451 98.7152 54.7185C99.1551 55.1967 99.4537 55.7796 99.6109 56.4669C99.7714 57.1591 99.7733 57.8964 99.6168 58.6788C99.4587 59.4691 99.1765 60.1433 98.7701 60.7013C98.3677 61.2602 97.8871 61.6705 97.3282 61.9323C96.7686 62.1982 96.1774 62.2792 95.5547 62.1754L95.8421 60.7383Z" fill="#9C9C9C"/>
<path d="M79.1157 89.6505L70.6767 82.3439L70.5494 82.4165L72.538 93.4005L71.1587 94.1868L68.9542 81.0486L70.3122 80.2744L80.495 88.8642L79.1157 89.6505Z" fill="#9C9C9C"/>
<path d="M55.131 97.924L54.0003 85.4698L55.5084 85.3328L56.6391 97.7871L55.131 97.924Z" fill="#9C9C9C"/>
<path d="M30.6387 93.7283L34.7744 81.9265L36.1574 82.4112L39.3413 93.9311L39.4565 93.9715L42.7037 84.7052L44.1329 85.206L39.9971 97.0078L38.6141 96.5232L35.4153 84.9721L35.3 84.9317L32.0447 94.221L30.6387 93.7283Z" fill="#9C9C9C"/>
<path d="M16.925 83.9514L25.5825 74.9273L26.6753 75.9756L18.0178 84.9997L16.925 83.9514Z" fill="#9C9C9C"/>
<path d="M18.6725 65.7095L7.05228 70.3308L6.49266 68.9237L16.8646 64.7988L14.7164 59.3972L15.9647 58.9007L18.6725 65.7095Z" fill="#9C9C9C"/>
<path d="M89.8646 68.1365C86.0658 68.1365 82.9866 71.216 82.9866 75.0145C82.9866 78.8129 86.0658 81.8925 89.8646 81.8925C93.663 81.8925 96.7426 78.8129 96.7426 75.0145C96.7426 71.216 93.663 68.1365 89.8646 68.1365ZM89.8646 75.301C89.7063 75.301 89.5779 75.1728 89.5779 75.0145C89.5779 74.8563 89.7063 74.728 89.8646 74.728C90.0229 74.728 90.1509 74.8563 90.1509 75.0145C90.1509 75.1728 90.0229 75.301 89.8646 75.301Z" fill="#9C9C9C"/>
<path d="M88.3029 71.3174C88.7971 71.1083 89.3226 71.0023 89.8646 71.0023C90.0229 71.0023 90.1509 70.874 90.1509 70.7158C90.1509 70.5575 90.0229 70.4293 89.8646 70.4293C87.3319 70.4293 85.2791 72.4821 85.2791 75.0145C85.2791 75.1728 85.4076 75.301 85.5658 75.301C85.7241 75.301 85.8521 75.1728 85.8521 75.0145C85.8521 74.4726 85.9583 73.9472 86.1674 73.4531C86.3693 72.9754 86.659 72.5461 87.0276 72.1775C87.3962 71.8089 87.8252 71.5195 88.3029 71.3174Z" fill="#9C9C9C"/>
<path d="M91.4258 78.7117C90.9317 78.9207 90.4065 79.027 89.8646 79.027C89.7063 79.027 89.5779 79.155 89.5779 79.3132C89.5779 79.4715 89.7063 79.5995 89.8646 79.5995C92.3968 79.5995 94.4497 77.5467 94.4497 75.0145C94.4497 74.8562 94.3216 74.728 94.1634 74.728C94.0051 74.728 93.8766 74.8562 93.8766 75.0145C93.8766 75.5565 93.7708 76.0816 93.5618 76.5762C93.3594 77.0539 93.0702 77.4829 92.7016 77.8515C92.333 78.2201 91.9036 78.5098 91.4258 78.7117Z" fill="#9C9C9C"/>
<path d="M87.8567 70.2611C88.4923 69.9922 89.1677 69.856 89.8646 69.856C90.0229 69.856 90.1509 69.7278 90.1509 69.5695C90.1509 69.4112 90.0229 69.2828 89.8646 69.2828C86.6989 69.2828 84.1326 71.849 84.1326 75.0145C84.1326 75.1728 84.2611 75.301 84.4194 75.301C84.5776 75.301 84.7061 75.1728 84.7061 75.0145C84.7061 74.3179 84.8421 73.6424 85.1112 73.0068C85.3711 72.3927 85.743 71.8408 86.2169 71.3669C86.6909 70.8929 87.2425 70.521 87.8567 70.2611Z" fill="#9C9C9C"/>
<path d="M89.8646 72.1488C90.0229 72.1488 90.1509 72.0203 90.1509 71.862C90.1509 71.7038 90.0229 71.5755 89.8646 71.5755C87.965 71.5755 86.4256 73.1152 86.4256 75.0145C86.4256 75.1728 86.5536 75.301 86.7119 75.301C86.8701 75.301 86.9986 75.1728 86.9986 75.0145C86.9986 74.249 87.2967 73.5293 87.8378 72.9881C88.3793 72.4468 89.0989 72.1488 89.8642 72.1488H89.8646Z" fill="#9C9C9C"/>
<path d="M89.5779 78.1672C89.5779 78.3251 89.7063 78.4535 89.8646 78.4535C91.7638 78.4535 93.3036 76.9137 93.3036 75.0145C93.3036 74.8563 93.1751 74.728 93.0169 74.728C92.8586 74.728 92.7302 74.8563 92.7302 75.0145C92.7302 75.7802 92.4321 76.4998 91.891 77.0409C91.3499 77.582 90.6299 77.8801 89.8646 77.8801C89.7063 77.8801 89.5779 78.0086 89.5779 78.1672Z" fill="#9C9C9C"/>
<path d="M95.3094 74.728C95.1511 74.728 95.0231 74.8563 95.0231 75.0145C95.0231 75.7114 94.8867 76.3864 94.618 77.022C94.3581 77.6366 93.9862 78.1882 93.5123 78.6622C93.0383 79.1361 92.4863 79.5081 91.8721 79.7679C91.2365 80.037 90.5611 80.173 89.8646 80.173C89.7063 80.173 89.5779 80.3015 89.5779 80.4593C89.5779 80.618 89.7063 80.7465 89.8646 80.7465C93.0299 80.7465 95.5961 78.1798 95.5961 75.0145C95.5961 74.8563 95.4677 74.728 95.3094 74.728Z" fill="#9C9C9C"/>
<path d="M89.8646 73.0085C88.7584 73.0085 87.8584 73.9084 87.8584 75.0145C87.8584 76.1207 88.7584 77.0203 89.8646 77.0203C90.9708 77.0203 91.8704 76.1207 91.8704 75.0145C91.8704 73.9084 90.9708 73.0085 89.8646 73.0085ZM89.8646 75.301C89.7063 75.301 89.5779 75.1728 89.5779 75.0145C89.5779 74.8563 89.7063 74.728 89.8646 74.728C90.0229 74.728 90.1509 74.8563 90.1509 75.0145C90.1509 75.1728 90.0229 75.301 89.8646 75.301Z" fill="#B2B2B2"/>
<path d="M89.8646 72.7218C88.5985 72.7218 87.5716 73.7484 87.5716 75.0145C87.5716 76.2806 88.5985 77.3075 89.8646 77.3075C91.1307 77.3075 92.1571 76.2806 92.1571 75.0145C92.1571 73.7484 91.1307 72.7218 89.8646 72.7218ZM89.8646 76.734C88.9163 76.734 88.1451 75.9624 88.1451 75.0145C88.1451 74.0664 88.9163 73.295 89.8646 73.295C90.8125 73.295 91.5841 74.0664 91.5841 75.0145C91.5841 75.9624 90.8125 76.734 89.8646 76.734Z" fill="#B2B2B2"/>
<path d="M6.87801 46.5889C3.07922 46.5889 0 49.6684 0 53.4669C0 57.2653 3.07922 60.3449 6.87801 60.3449C10.6764 60.3449 13.756 57.2653 13.756 53.4669C13.756 49.6684 10.6764 46.5889 6.87801 46.5889ZM6.87801 53.7534C6.71973 53.7534 6.59128 53.6252 6.59128 53.4669C6.59128 53.3086 6.71973 53.1804 6.87801 53.1804C7.03628 53.1804 7.1643 53.3086 7.1643 53.4669C7.1643 53.6252 7.03628 53.7534 6.87801 53.7534Z" fill="#9C9C9C"/>
<path d="M5.31635 49.7697C5.81046 49.5607 6.33604 49.4547 6.87801 49.4547C7.03628 49.4547 7.1643 49.3264 7.1643 49.1682C7.1643 49.0099 7.03628 48.8817 6.87801 48.8817C4.34534 48.8817 2.29253 50.9345 2.29253 53.4669C2.29253 53.6252 2.42098 53.7534 2.57925 53.7534C2.73753 53.7534 2.86555 53.6252 2.86555 53.4669C2.86555 52.925 2.97175 52.3996 3.18081 51.9055C3.38274 51.4278 3.6724 50.9985 4.04099 50.6299C4.40958 50.2613 4.83862 49.9719 5.31635 49.7697Z" fill="#9C9C9C"/>
<path d="M8.43923 57.1641C7.94512 57.3731 7.41994 57.4793 6.87801 57.4793C6.71973 57.4793 6.59128 57.6074 6.59128 57.7656C6.59128 57.9239 6.71973 58.0519 6.87801 58.0519C9.41024 58.0519 11.4631 55.9991 11.4631 53.4669C11.4631 53.3086 11.335 53.1804 11.1768 53.1804C11.0185 53.1804 10.89 53.3086 10.89 53.4669C10.89 54.0089 10.7842 54.534 10.5752 55.0285C10.3728 55.5063 10.0836 55.9353 9.71499 56.3039C9.3464 56.6725 8.91698 56.9622 8.43923 57.1641Z" fill="#9C9C9C"/>
<path d="M4.87011 48.7135C5.50568 48.4446 6.18112 48.3084 6.87801 48.3084C7.03628 48.3084 7.1643 48.1802 7.1643 48.0219C7.1643 47.8636 7.03628 47.7352 6.87801 47.7352C3.7123 47.7352 1.14605 50.3014 1.14605 53.4669C1.14605 53.6252 1.2745 53.7534 1.43277 53.7534C1.59105 53.7534 1.7195 53.6252 1.7195 53.4669C1.7195 52.7703 1.8555 52.0948 2.12461 51.4592C2.38446 50.8451 2.75641 50.2932 3.23035 49.8193C3.70429 49.3453 4.25593 48.9734 4.87011 48.7135Z" fill="#9C9C9C"/>
<path d="M6.87801 50.6012C7.03628 50.6012 7.1643 50.4727 7.1643 50.3144C7.1643 50.1562 7.03628 50.0279 6.87801 50.0279C4.97841 50.0279 3.439 51.5675 3.439 53.4669C3.439 53.6252 3.56705 53.7534 3.7253 53.7534C3.88355 53.7534 4.01203 53.6252 4.01203 53.4669C4.01203 52.7014 4.31009 51.9817 4.8512 51.4405C5.39273 50.8992 6.11229 50.6012 6.87757 50.6012H6.87801Z" fill="#9C9C9C"/>
<path d="M6.59128 56.6196C6.59128 56.7775 6.71973 56.9059 6.87801 56.9059C8.77719 56.9059 10.317 55.3661 10.317 53.4669C10.317 53.3086 10.1886 53.1804 10.0303 53.1804C9.87201 53.1804 9.74355 53.3086 9.74355 53.4669C9.74355 54.2326 9.44549 54.9522 8.90438 55.4933C8.36328 56.0344 7.64329 56.3325 6.87801 56.3325C6.71973 56.3325 6.59128 56.461 6.59128 56.6196Z" fill="#9C9C9C"/>
<path d="M12.3228 53.1804C12.1645 53.1804 12.0365 53.3086 12.0365 53.4669C12.0365 54.1638 11.9001 54.8388 11.6314 55.4744C11.3715 56.089 10.9996 56.6406 10.5257 57.1146C10.0517 57.5885 9.49965 57.9605 8.8855 58.2203C8.2499 58.4894 7.57446 58.6254 6.87801 58.6254C6.71973 58.6254 6.59128 58.7539 6.59128 58.9117C6.59128 59.0704 6.71973 59.1989 6.87801 59.1989C10.0433 59.1989 12.6095 56.6322 12.6095 53.4669C12.6095 53.3086 12.4811 53.1804 12.3228 53.1804Z" fill="#9C9C9C"/>
<path d="M6.87801 51.4609C5.77183 51.4609 4.87178 52.3607 4.87178 53.4669C4.87178 54.5731 5.77183 55.4727 6.87801 55.4727C7.98418 55.4727 8.8838 54.5731 8.8838 53.4669C8.8838 52.3607 7.98418 51.4609 6.87801 51.4609ZM6.87801 53.7534C6.71973 53.7534 6.59128 53.6252 6.59128 53.4669C6.59128 53.3086 6.71973 53.1804 6.87801 53.1804C7.03628 53.1804 7.1643 53.3086 7.1643 53.4669C7.1643 53.6252 7.03628 53.7534 6.87801 53.7534Z" fill="#B2B2B2"/>
<path d="M6.87801 51.1742C5.61189 51.1742 4.58505 52.2008 4.58505 53.4669C4.58505 54.733 5.61189 55.7599 6.87801 55.7599C8.14412 55.7599 9.17053 54.733 9.17053 53.4669C9.17053 52.2008 8.14412 51.1742 6.87801 51.1742ZM6.87801 55.1864C5.92967 55.1864 5.1585 54.4148 5.1585 53.4669C5.1585 52.5188 5.92967 51.7474 6.87801 51.7474C7.82591 51.7474 8.59751 52.5188 8.59751 53.4669C8.59751 54.4148 7.82591 55.1864 6.87801 55.1864Z" fill="#B2B2B2"/>
</svg>
