<svg width="200" height="37" viewBox="0 0 200 37" fill="none" xmlns="http://www.w3.org/2000/svg">
<path d="M14.1866 9.02194C18.7242 9.02194 22.2294 10.1818 24.7022 12.5017C27.175 14.8215 28.4113 18.1992 28.4113 22.6349C28.4113 27.0706 27.175 30.4484 24.7022 32.7682C22.2294 35.088 18.7242 36.2479 14.1866 36.2479C9.6489 36.2479 6.14368 35.1007 3.67091 32.8064C1.22364 30.4866 0 27.0961 0 22.6349C0 18.1737 1.22364 14.796 3.67091 12.5017C6.14368 10.1818 9.6489 9.02194 14.1866 9.02194ZM14.1866 15.3313C12.3766 15.3313 11 15.8794 10.0568 16.9756C9.11355 18.0718 8.64194 19.5503 8.64194 21.4113V23.8586C8.64194 25.7195 9.11355 27.1981 10.0568 28.2942C11 29.3904 12.3766 29.9385 14.1866 29.9385C15.9965 29.9385 17.3731 29.3904 18.3163 28.2942C19.285 27.1981 19.7694 25.7195 19.7694 23.8586V21.4113C19.7694 19.5503 19.285 18.0718 18.3163 16.9756C17.3731 15.8794 15.9965 15.3313 14.1866 15.3313Z" fill="#9C9C9C"/>
<path d="M57.9029 35.789H47.655L42.7987 27.6059H42.6457L37.7894 35.789H28.3062L37.7129 21.8701L29.2239 9.48081H39.4336L43.4105 16.2108H43.5634L47.5785 9.48081H57.0234L48.4962 21.9084L57.9029 35.789Z" fill="#9C9C9C"/>
<path d="M61.1272 35.789V9.48081H69.578V35.789H61.1272Z" fill="#9C9C9C"/>
<path d="M98.2062 35.789V26.3058C98.2062 25.1332 98.2445 23.935 98.3209 22.7114C98.4229 21.4623 98.5249 20.4171 98.6268 19.5758C98.7288 18.7346 98.7925 18.1992 98.818 17.9698H98.6651L93.8088 35.789H87.1935L82.2989 18.008H82.146C82.1715 18.2375 82.2352 18.7728 82.3372 19.6141C82.4646 20.4298 82.5793 21.4623 82.6813 22.7114C82.7833 23.935 82.8343 25.1332 82.8343 26.3058V35.789H75.0718V9.48081H87.0023L90.9791 24.6616H91.1321L95.0706 9.48081H106.58V35.789H98.2062Z" fill="#9C9C9C"/>
<path d="M124.795 9.02194C129.333 9.02194 132.838 10.1818 135.311 12.5017C137.783 14.8215 139.02 18.1992 139.02 22.6349C139.02 27.0706 137.783 30.4484 135.311 32.7682C132.838 35.088 129.333 36.2479 124.795 36.2479C120.257 36.2479 116.752 35.1007 114.279 32.8064C111.832 30.4866 110.608 27.0961 110.608 22.6349C110.608 18.1737 111.832 14.796 114.279 12.5017C116.752 10.1818 120.257 9.02194 124.795 9.02194ZM124.795 15.3313C122.985 15.3313 121.608 15.8794 120.665 16.9756C119.722 18.0718 119.25 19.5503 119.25 21.4113V23.8586C119.25 25.7195 119.722 27.1981 120.665 28.2942C121.608 29.3904 122.985 29.9385 124.795 29.9385C126.605 29.9385 127.982 29.3904 128.925 28.2942C129.893 27.1981 130.378 25.7195 130.378 23.8586V21.4113C130.378 19.5503 129.893 18.0718 128.925 16.9756C127.982 15.8794 126.605 15.3313 124.795 15.3313Z" fill="#9C9C9C"/>
<path d="M168.54 17.5492C168.54 19.1552 168.107 20.6083 167.24 21.9084C166.373 23.2085 165.112 24.1645 163.455 24.7763L169.305 35.789H159.822L155.157 26.1911H152.021V35.789H143.57V9.48081H159.669C161.555 9.48081 163.161 9.85045 164.487 10.5897C165.838 11.3035 166.845 12.285 167.508 13.5341C168.196 14.7577 168.54 16.0961 168.54 17.5492ZM159.937 17.8933C159.937 17.205 159.707 16.6314 159.248 16.1726C158.789 15.7137 158.229 15.4843 157.566 15.4843H152.021V20.3406H157.566C158.229 20.3406 158.789 20.1112 159.248 19.6523C159.707 19.1679 159.937 18.5816 159.937 17.8933Z" fill="#9C9C9C"/>
<path d="M185.775 9.02194C190.313 9.02194 193.818 10.1818 196.291 12.5017C198.764 14.8215 200 18.1992 200 22.6349C200 27.0706 198.764 30.4484 196.291 32.7682C193.818 35.088 190.313 36.2479 185.775 36.2479C181.238 36.2479 177.732 35.1007 175.26 32.8064C172.812 30.4866 171.589 27.0961 171.589 22.6349C171.589 18.1737 172.812 14.796 175.26 12.5017C177.732 10.1818 181.238 9.02194 185.775 9.02194ZM185.775 15.3313C183.965 15.3313 182.589 15.8794 181.645 16.9756C180.702 18.0718 180.231 19.5503 180.231 21.4113V23.8586C180.231 25.7195 180.702 27.1981 181.645 28.2942C182.589 29.3904 183.965 29.9385 185.775 29.9385C187.585 29.9385 188.962 29.3904 189.905 28.2942C190.874 27.1981 191.358 25.7195 191.358 23.8586V21.4113C191.358 19.5503 190.874 18.0718 189.905 16.9756C188.962 15.8794 187.585 15.3313 185.775 15.3313Z" fill="#9C9C9C"/>
<path d="M69.408 5.08575H64.5517L68.0696 0H75.4497L75.5262 0.152955L69.408 5.08575Z" fill="#B2B2B2"/>
</svg>
