<svg width="200" height="47" viewBox="0 0 200 47" fill="none" xmlns="http://www.w3.org/2000/svg">
<path d="M12.8916 35.8213C11.2271 35.8213 9.71541 35.5156 8.35661 34.9041C6.99781 34.2927 5.84283 33.4434 4.89167 32.3564C3.94052 31.2354 3.19318 29.9275 2.64966 28.4329C2.14011 26.9382 1.90232 25.2906 1.93629 23.4902C1.93629 21.7238 2.19106 20.0932 2.70061 18.5986C3.21016 17.1039 3.94052 15.813 4.89167 14.726C5.8768 13.605 7.03178 12.7557 8.35661 12.1782C9.71541 11.5668 11.2271 11.261 12.8916 11.261C14.4542 11.261 15.9149 11.5668 17.2737 12.1782C18.6665 12.7897 19.8724 13.6559 20.8915 14.7769C21.9446 15.864 22.7599 17.1718 23.3374 18.7005C23.9488 20.2291 24.2546 21.8767 24.2546 23.6431C24.2546 25.4095 23.9488 27.0401 23.3374 28.5348C22.7599 30.0294 21.9446 31.3203 20.8915 32.4073C19.8724 33.4944 18.6665 34.3436 17.2737 34.9551C15.9149 35.5326 14.4542 35.8213 12.8916 35.8213ZM2.29297 46.0633C1.64754 46.0633 1.15498 45.9614 0.815279 45.7575C0.509549 45.5877 0.288745 45.3329 0.152865 44.9932C0.0509549 44.6535 0 44.2459 0 43.7703V13.6559C0 13.1803 0.0509549 12.7727 0.152865 12.433C0.254775 12.0933 0.458594 11.8385 0.764324 11.6687C1.10402 11.4649 1.59659 11.363 2.24202 11.363C2.98936 11.363 3.53288 11.4818 3.87258 11.7196C4.24625 11.9574 4.46705 12.3821 4.53499 12.9935V43.7193C4.56896 44.1949 4.53499 44.6026 4.43308 44.9423C4.33117 45.3159 4.11037 45.5877 3.77067 45.7575C3.46494 45.9614 2.97237 46.0633 2.29297 46.0633ZM12.2292 31.643C13.6559 31.643 14.9468 31.3033 16.1018 30.6239C17.2567 29.9106 18.1569 28.9424 18.8024 27.7195C19.4818 26.4966 19.8215 25.1038 19.8215 23.5412C19.8215 21.9446 19.4818 20.5518 18.8024 19.3629C18.1569 18.1739 17.2567 17.2567 16.1018 16.6113C14.9808 15.9319 13.6899 15.5922 12.2292 15.5922C10.8024 15.5922 9.51159 15.9319 8.35661 16.6113C7.2356 17.2907 6.3354 18.2249 5.656 19.4138C5.01057 20.6028 4.68785 21.9786 4.68785 23.5412C4.68785 25.1038 5.01057 26.4966 5.656 27.7195C6.3354 28.9424 7.2356 29.9106 8.35661 30.6239C9.51159 31.3033 10.8024 31.643 12.2292 31.643Z" fill="#9C9C9C"/>
<path d="M41.2847 36.2799C39.2465 36.2799 37.4291 35.9402 35.8325 35.2608C34.2359 34.5814 32.8771 33.6642 31.7561 32.5093C30.669 31.3203 29.8368 29.9615 29.2593 28.4329C28.6818 26.9042 28.393 25.2567 28.393 23.4902C28.393 21.1463 28.9366 19.0571 30.0236 17.2228C31.1106 15.3884 32.6053 13.9447 34.5076 12.8916C36.4439 11.8046 38.652 11.261 41.1318 11.261C42.8303 11.261 44.342 11.5328 45.6668 12.0763C47.0256 12.5859 48.1806 13.2823 49.1317 14.1655C50.0829 15.0487 50.8132 16.0338 51.3228 17.1209C51.8323 18.2079 52.0871 19.2949 52.0871 20.382C52.0871 22.1144 51.6795 23.3374 50.8642 24.0507C50.0489 24.7301 49.0468 25.0698 47.8578 25.0698H33.1319C33.0979 26.5645 33.4885 27.8554 34.3038 28.9424C35.1531 29.9955 36.2061 30.8108 37.463 31.3882C38.7539 31.9657 40.0447 32.2545 41.3356 32.2545C42.2868 32.2545 43.102 32.2035 43.7814 32.1016C44.4608 31.9997 45.0553 31.8638 45.5649 31.694C46.0744 31.5241 46.516 31.3543 46.8897 31.1844C47.2634 31.0146 47.5861 30.8447 47.8578 30.6749C48.1636 30.505 48.4523 30.3861 48.7241 30.3182C49.0298 30.2503 49.3185 30.2842 49.5903 30.4201C49.896 30.522 50.1338 30.7428 50.3037 31.0825C50.5075 31.3543 50.6434 31.6091 50.7113 31.8468C50.7793 32.0846 50.8132 32.3394 50.8132 32.6112C50.8132 33.0867 50.4056 33.6133 49.5903 34.1908C48.775 34.7683 47.637 35.2608 46.1763 35.6685C44.7496 36.0761 43.119 36.2799 41.2847 36.2799ZM33.1319 22.0635H45.9216C46.567 22.0635 47.0426 21.9786 47.3483 21.8087C47.688 21.6389 47.8578 21.1803 47.8578 20.4329C47.8578 19.4818 47.5691 18.6325 46.9916 17.8852C46.4141 17.1039 45.6158 16.4754 44.5967 15.9999C43.6116 15.5243 42.4736 15.2865 41.1827 15.2865C39.6881 15.2865 38.3123 15.5922 37.0554 16.2037C35.8325 16.7812 34.8643 17.5795 34.151 18.5986C33.4376 19.6177 33.0979 20.7726 33.1319 22.0635Z" fill="#9C9C9C"/>
<path d="M68.3047 36.0251C66.7081 36.0251 65.3493 35.8723 64.2283 35.5666C63.1413 35.2608 62.2411 34.7852 61.5277 34.1398C60.8143 33.4944 60.3048 32.6621 59.999 31.643C59.6933 30.59 59.5405 29.2991 59.5405 27.7704V5.24836C59.5405 4.77278 59.5914 4.36514 59.6933 4.02544C59.7952 3.68574 59.999 3.43097 60.3048 3.26112C60.6105 3.0573 61.0861 2.95539 61.7315 2.95539C62.3769 2.95539 62.8695 3.0573 63.2092 3.26112C63.5489 3.43097 63.7697 3.68574 63.8716 4.02544C63.9735 4.33117 64.0245 4.72182 64.0245 5.1974V27.7704C64.0245 28.6537 64.0924 29.367 64.2283 29.9106C64.3982 30.4201 64.6359 30.8108 64.9417 31.0825C65.2814 31.3543 65.723 31.5241 66.2665 31.5921C66.81 31.66 67.4724 31.694 68.2538 31.694C68.7973 31.694 69.2389 31.7449 69.5786 31.8468C69.9183 31.9488 70.1731 32.1526 70.3429 32.4583C70.5128 32.764 70.5977 33.2226 70.5977 33.8341C70.5977 34.4795 70.4958 34.9721 70.2919 35.3118C70.1221 35.6175 69.8503 35.8043 69.4767 35.8723C69.137 35.9742 68.7463 36.0251 68.3047 36.0251ZM56.8908 11.9235L61.7825 11.9744L68.8652 11.8725C69.3408 11.8725 69.7484 11.9235 70.0881 12.0254C70.4278 12.0933 70.6826 12.2971 70.8525 12.6368C71.0563 12.9426 71.1582 13.4181 71.1582 14.0636C71.1582 14.709 71.0733 15.2016 70.9034 15.5413C70.7336 15.847 70.4788 16.0508 70.1391 16.1527C69.7994 16.2546 69.3917 16.3056 68.9162 16.3056L61.9353 16.2037L56.7889 16.2546C56.0755 16.2546 55.583 16.0848 55.3112 15.7451C55.0734 15.4054 54.9545 14.8449 54.9545 14.0636C54.9545 13.3162 55.1074 12.7727 55.4131 12.433C55.7188 12.0933 56.2114 11.9235 56.8908 11.9235Z" fill="#9C9C9C"/>
<path d="M78.0359 36.0251C77.3905 36.0251 76.9149 35.9232 76.6092 35.7194C76.3034 35.5156 76.0996 35.2438 75.9977 34.9041C75.8958 34.5644 75.8448 34.1568 75.8448 33.6812V13.5031C75.8448 13.0275 75.8958 12.6368 75.9977 12.3311C76.0996 12.0254 76.3034 11.7876 76.6092 11.6177C76.9489 11.4479 77.4414 11.363 78.0869 11.363C78.8342 11.363 79.3607 11.5158 79.6665 11.8215C80.0062 12.0933 80.176 12.5859 80.176 13.2992L79.9722 15.4903C80.21 14.9808 80.5667 14.4712 81.0422 13.9617C81.5178 13.4521 82.0783 12.9935 82.7238 12.5859C83.4032 12.1782 84.1165 11.8555 84.8639 11.6177C85.6112 11.3799 86.3755 11.261 87.1568 11.261C88.3458 11.261 89.3989 11.4818 90.316 11.9235C91.2672 12.3311 92.1165 12.9256 92.8638 13.7069C93.6111 14.4882 94.2396 15.4563 94.7491 16.6113C95.4285 15.4903 96.1419 14.5391 96.8892 13.7578C97.6705 12.9426 98.5538 12.3311 99.5389 11.9235C100.524 11.4818 101.628 11.261 102.851 11.261C104.787 11.261 106.401 11.7536 107.692 12.7387C109.017 13.6899 110.002 15.0487 110.647 16.8151C111.326 18.5476 111.666 20.6368 111.666 23.0826V33.7322C111.666 34.2078 111.615 34.6154 111.513 34.9551C111.445 35.2948 111.242 35.5496 110.902 35.7194C110.596 35.9232 110.104 36.0251 109.424 36.0251C108.779 36.0251 108.286 35.9232 107.946 35.7194C107.641 35.5156 107.437 35.2438 107.335 34.9041C107.233 34.5644 107.182 34.1568 107.182 33.6812V23.0316C107.182 21.503 106.995 20.1951 106.622 19.1081C106.282 17.9871 105.738 17.1209 104.991 16.5094C104.278 15.8979 103.344 15.5922 102.189 15.5922C100.966 15.5922 99.8786 15.8979 98.9274 16.5094C98.0102 17.0869 97.2969 17.9361 96.7873 19.0571C96.2778 20.1782 96.023 21.503 96.023 23.0316V33.7831C96.023 34.2927 95.9211 34.7343 95.7173 35.108C95.5135 35.4816 95.2077 35.7364 94.8001 35.8723C94.3924 36.0421 93.8999 36.0761 93.3224 35.9742C92.7789 35.9063 92.3712 35.7704 92.0995 35.5666C91.8277 35.3627 91.6579 35.108 91.5899 34.8022C91.522 34.4625 91.488 34.0889 91.488 33.6812V23.0316C91.488 21.503 91.3012 20.1951 90.9275 19.1081C90.5878 17.9871 90.0443 17.1209 89.297 16.5094C88.5836 15.8979 87.6494 15.5922 86.4944 15.5922C85.2715 15.5922 84.1845 15.9149 83.2333 16.5604C82.3161 17.1718 81.6028 18.0381 81.0932 19.1591C80.5837 20.2801 80.3289 21.5709 80.3289 23.0316V33.7322C80.3289 34.2078 80.2779 34.6154 80.176 34.9551C80.0741 35.2948 79.8533 35.5496 79.5136 35.7194C79.2079 35.9232 78.7153 36.0251 78.0359 36.0251Z" fill="#B2B2B2"/>
<path d="M129.56 36.2799C127.522 36.2799 125.705 35.9402 124.108 35.2608C122.511 34.5814 121.153 33.6642 120.032 32.5093C118.945 31.3203 118.112 29.9615 117.535 28.4329C116.957 26.9042 116.669 25.2567 116.669 23.4902C116.669 21.1463 117.212 19.0571 118.299 17.2228C119.386 15.3884 120.881 13.9447 122.783 12.8916C124.719 11.8046 126.927 11.261 129.407 11.261C131.106 11.261 132.617 11.5328 133.942 12.0763C135.301 12.5859 136.456 13.2823 137.407 14.1655C138.358 15.0487 139.089 16.0338 139.598 17.1209C140.108 18.2079 140.363 19.2949 140.363 20.382C140.363 22.1144 139.955 23.3374 139.14 24.0507C138.324 24.7301 137.322 25.0698 136.133 25.0698H121.407C121.373 26.5645 121.764 27.8554 122.579 28.9424C123.429 29.9955 124.482 30.8108 125.738 31.3882C127.029 31.9657 128.32 32.2545 129.611 32.2545C130.562 32.2545 131.378 32.2035 132.057 32.1016C132.736 31.9997 133.331 31.8638 133.84 31.694C134.35 31.5241 134.791 31.3543 135.165 31.1844C135.539 31.0146 135.862 30.8447 136.133 30.6749C136.439 30.505 136.728 30.3861 137 30.3182C137.305 30.2503 137.594 30.2842 137.866 30.4201C138.171 30.522 138.409 30.7428 138.579 31.0825C138.783 31.3543 138.919 31.6091 138.987 31.8468C139.055 32.0846 139.089 32.3394 139.089 32.6112C139.089 33.0867 138.681 33.6133 137.866 34.1908C137.05 34.7683 135.912 35.2608 134.452 35.6685C133.025 36.0761 131.394 36.2799 129.56 36.2799ZM121.407 22.0635H134.197C134.842 22.0635 135.318 21.9786 135.624 21.8087C135.963 21.6389 136.133 21.1803 136.133 20.4329C136.133 19.4818 135.845 18.6325 135.267 17.8852C134.69 17.1039 133.891 16.4754 132.872 15.9999C131.887 15.5243 130.749 15.2865 129.458 15.2865C127.964 15.2865 126.588 15.5922 125.331 16.2037C124.108 16.7812 123.14 17.5795 122.426 18.5986C121.713 19.6177 121.373 20.7726 121.407 22.0635Z" fill="#B2B2B2"/>
<path d="M156.11 36.0251C154.581 36.0251 153.12 35.7194 151.728 35.108C150.335 34.4965 149.112 33.6303 148.059 32.5093C147.04 31.3882 146.224 30.0804 145.613 28.5857C145.035 27.0571 144.747 25.3925 144.747 23.5921C144.747 21.8257 145.035 20.1951 145.613 18.7005C146.224 17.2058 147.04 15.9149 148.059 14.8279C149.112 13.7069 150.335 12.8406 151.728 12.2292C153.12 11.6177 154.581 11.312 156.11 11.312C157.774 11.312 159.269 11.6177 160.594 12.2292C161.952 12.8406 163.107 13.7069 164.059 14.8279C165.044 15.9149 165.791 17.2228 166.301 18.7514C166.81 20.2461 167.065 21.8767 167.065 23.6431C167.099 25.4435 166.844 27.091 166.301 28.5857C165.791 30.0804 165.061 31.3882 164.11 32.5093C163.158 33.6303 162.003 34.4965 160.645 35.108C159.32 35.7194 157.808 36.0251 156.11 36.0251ZM156.772 31.694C158.199 31.694 159.473 31.3543 160.594 30.6749C161.749 29.9955 162.649 29.0613 163.294 27.8724C163.974 26.6494 164.313 25.2567 164.313 23.6941C164.313 22.0975 163.974 20.7047 163.294 19.5157C162.649 18.2928 161.749 17.3417 160.594 16.6623C159.473 15.9829 158.199 15.6432 156.772 15.6432C155.345 15.6432 154.054 15.9829 152.899 16.6623C151.744 17.3417 150.827 18.2928 150.148 19.5157C149.502 20.7047 149.18 22.0975 149.18 23.6941C149.18 25.2567 149.502 26.6494 150.148 27.8724C150.827 29.0613 151.744 29.9955 152.899 30.6749C154.088 31.3543 155.379 31.694 156.772 31.694ZM166.759 36.0251C166.012 36.0251 165.468 35.8893 165.129 35.6175C164.789 35.3457 164.585 34.8872 164.517 34.2417V2.34393C164.517 1.83438 164.551 1.40975 164.619 1.07005C164.721 0.730353 164.925 0.475578 165.231 0.305729C165.57 0.10191 166.063 0 166.708 0C167.354 0 167.829 0.10191 168.135 0.305729C168.475 0.475578 168.696 0.730353 168.797 1.07005C168.899 1.40975 168.95 1.81739 168.95 2.29297V33.6812C168.95 34.1568 168.899 34.5814 168.797 34.9551C168.696 35.2948 168.492 35.5496 168.186 35.7194C167.88 35.9232 167.405 36.0251 166.759 36.0251Z" fill="#B2B2B2"/>
<path d="M181.765 6.99206C178.739 6.99206 178.257 11.109 179.033 13.1899C179.525 14.5185 181.026 15.8019 182.565 15.2559C184.556 14.2716 185.118 11.7478 184.564 9.7911C184.296 8.4876 183.256 6.99206 181.765 6.99206ZM190.229 6.99206C188.739 6.99206 187.699 8.4876 187.43 9.7911C186.876 11.7478 187.439 14.2716 189.429 15.2559C190.969 15.8019 192.469 14.5185 192.962 13.1899C193.738 11.109 193.256 6.99206 190.229 6.99206ZM173.098 13.5898C171.903 14.7853 172.059 18.2256 174.231 19.6544C175.639 20.376 177.068 19.4429 177.563 18.3215C178.401 16.7287 178.171 14.4647 176.697 13.3232C175.287 12.3818 174.203 12.4849 173.098 13.5898ZM195.624 13.3232C194.596 13.9169 193.92 16.7287 194.758 18.3215C195.253 19.4429 196.749 20.376 198.156 19.6544C200.328 18.2256 200.442 14.8087 199.223 13.5898C198.088 12.6402 196.745 12.6757 195.624 13.3232ZM186.16 16.3222C180.86 16.3222 176.564 20.6188 176.564 25.9189C176.564 31.219 180.86 35.5156 186.16 35.5156C191.461 35.5156 195.757 31.219 195.757 25.9189C195.757 20.6188 191.461 16.3222 186.16 16.3222ZM184.028 19.5211H188.293V23.7863H192.558V28.0515L188.293 28.1181V32.3167H184.028V28.0515H179.763V23.7863H184.028V19.5211Z" fill="#B2B2B2"/>
</svg>
