<svg width="200" height="87" viewBox="0 0 200 87" fill="none" xmlns="http://www.w3.org/2000/svg">
<path d="M21.765 46.6023C22.6077 44.4113 23.5066 42.3326 24.4617 40.3662C25.473 38.3437 26.5404 36.574 27.6641 35.0571C28.7877 33.5402 29.9956 32.3323 31.2877 31.4334C32.6361 30.4783 34.1249 30.0008 35.7542 30.0008C36.5407 30.0008 37.4396 30.1693 38.4509 30.5064C39.4621 30.8435 40.4172 31.5177 41.3161 32.5289C42.2712 33.5402 43.0577 35.0009 43.6757 36.9111C44.2937 38.8212 44.6027 41.3494 44.6027 44.4955C44.6027 46.1248 44.5184 47.9226 44.3499 49.8889C44.1813 51.8553 44.0128 53.7935 43.8443 55.7037C45.5859 51.9957 47.2994 48.8777 48.9848 46.3495C50.7265 43.7652 52.4119 41.7146 54.0411 40.1977C55.7266 38.6246 57.3839 37.501 59.0132 36.8268C60.6424 36.0964 62.2717 35.7313 63.901 35.7313C64.6313 35.7313 65.474 35.8998 66.4291 36.2369C67.4404 36.574 68.3674 37.1639 69.2101 38.0066C70.109 38.8493 70.8393 40.001 71.4011 41.4618C72.0191 42.9225 72.3281 44.8045 72.3281 47.108C72.3281 48.9619 72.1877 50.8159 71.9068 52.6699C71.6259 54.5239 71.3169 56.3217 70.9798 58.0633C70.6427 59.8049 70.3337 61.4623 70.0528 63.0353C69.7719 64.5522 69.6314 65.9006 69.6314 67.0804C69.6314 69.8895 70.1371 72.0524 71.1483 73.5693C72.1596 75.03 73.7046 75.7604 75.7833 75.7604C77.4687 75.7604 79.0699 75.1424 80.5868 73.9064C82.1037 72.6142 83.5082 70.985 84.8004 69.0186C86.1487 67.0523 87.3566 64.8893 88.4241 62.5297C89.5477 60.1701 90.5028 57.9229 91.2893 55.788C92.132 53.5969 92.8343 51.6867 93.3961 50.0575C93.9579 48.372 94.3512 47.2203 94.5759 46.6023L97.8625 47.4451C97.076 49.4114 96.2333 51.6025 95.3344 54.0183C94.4916 56.3779 93.5366 58.7656 92.4691 61.1814C91.4017 63.5972 90.25 65.9568 89.014 68.2602C87.778 70.5074 86.4015 72.5019 84.8846 74.2435C83.3678 75.9851 81.7104 77.3897 79.9126 78.4571C78.171 79.5245 76.2327 80.0583 74.0978 80.0583C72.3 80.0583 70.727 79.7212 69.3786 79.047C68.0865 78.3166 66.9909 77.3616 66.092 76.1818C65.1931 75.0019 64.5189 73.5974 64.0695 71.9682C63.62 70.3389 63.3953 68.5973 63.3953 66.7433C63.3953 64.6646 63.5639 62.5297 63.901 60.3386C64.2942 58.1476 64.6875 56.0408 65.0808 54.0183C65.5302 51.9957 65.9235 50.1418 66.2606 48.4563C66.6538 46.7147 66.8505 45.2821 66.8505 44.1585C66.8505 42.4168 66.5134 41.1247 65.8392 40.2819C65.165 39.383 64.238 38.9336 63.0582 38.9336C61.429 38.9336 59.8278 39.5235 58.2547 40.7033C56.7378 41.8831 55.249 43.4562 53.7883 45.4225C52.3838 47.3889 51.0354 49.6361 49.7433 52.1643C48.4511 54.6924 47.2432 57.3049 46.1196 60.0016C45.0521 62.6421 44.0409 65.2826 43.0858 67.9231C42.1869 70.5636 41.4004 72.9513 40.7262 75.0862C40.052 77.2211 39.4621 79.047 38.9565 80.5639C38.507 82.0246 38.198 82.9516 38.0295 83.3449L33.1417 82.5021C33.8159 79.1875 34.4339 75.7042 34.9957 72.0524C35.5575 68.3445 36.0351 64.7208 36.4283 61.1814C36.8778 57.5858 37.2149 54.1587 37.4396 50.9002C37.7205 47.6417 37.8609 44.7484 37.8609 42.2202C37.8609 38.7931 37.6362 36.4897 37.1868 35.3099C36.7373 34.0739 35.9227 33.4559 34.7429 33.4559C33.7316 33.4559 32.7765 33.8492 31.8776 34.6357C30.9787 35.3661 30.136 36.3773 29.3495 37.6695C28.6191 38.9055 27.8888 40.3662 27.1584 42.0517C26.4281 43.7371 25.7258 45.5349 25.0516 47.4451L21.765 46.6023Z" fill="#9C9C9C"/>
<path d="M115.644 80.2268C118.79 80.2268 121.796 79.0751 124.661 76.7717C127.582 74.4682 129.858 71.1254 131.487 66.7433H130.813C127.33 66.7433 124.099 66.1534 121.122 64.9736C118.2 63.7938 115.644 62.1645 113.453 60.0858C111.318 57.9509 109.632 55.4228 108.396 52.5014C107.161 49.5238 106.543 46.2652 106.543 42.7258C106.543 40.7595 106.795 38.7651 107.301 36.7425C107.863 34.72 108.705 32.9222 109.829 31.3491C110.953 29.7199 112.413 28.3996 114.211 27.3884C116.009 26.3771 118.144 25.8715 120.616 25.8715C122.638 25.8715 124.633 26.2928 126.599 27.1355C128.566 27.9221 130.335 29.2985 131.908 31.2649C133.481 33.2312 134.745 35.8998 135.701 39.2707C136.712 42.5854 137.217 46.799 137.217 51.9115C137.217 53.8216 137.133 55.7318 136.965 57.6419C136.796 59.4959 136.487 61.3218 136.038 63.1196C138.229 62.7263 140.167 62.0241 141.852 61.0128C143.594 60.0016 145.111 58.7937 146.403 57.3891C147.751 55.9284 148.931 54.2992 149.943 52.5014C150.954 50.6474 151.881 48.681 152.723 46.6023L156.01 47.4451C154.83 50.6474 153.454 53.3722 151.881 55.6194C150.364 57.8667 148.707 59.7487 146.909 61.2656C145.167 62.7825 143.313 63.9623 141.347 64.8051C139.437 65.5916 137.442 66.1253 135.363 66.4062C134.577 69.1591 133.538 71.7434 132.245 74.1592C130.953 76.575 129.38 78.6818 127.526 80.4796C125.672 82.2774 123.509 83.71 121.037 84.7775C118.621 85.7887 115.897 86.2944 112.863 86.2944C110.335 86.2944 107.779 85.7887 105.194 84.7775C102.666 83.71 100.363 82.1089 98.2839 79.974C96.2613 77.7829 94.604 75.0581 93.3118 71.7996C92.0758 68.4849 91.4579 64.5522 91.4579 60.0016C91.4579 57.024 91.7949 54.1025 92.4691 51.2373C93.1995 48.372 94.1826 45.6753 95.4186 43.1472C96.7108 40.5629 98.2277 38.1751 99.9693 35.9841C101.711 33.7368 103.593 31.7986 105.616 30.1693L106.88 32.2761C105.587 33.4559 104.351 34.9166 103.172 36.6583C101.992 38.3999 100.924 40.3381 99.9693 42.473C99.0142 44.5517 98.2558 46.7709 97.694 49.1305C97.1322 51.4339 96.8513 53.7374 96.8513 56.0408C96.8513 60.5915 97.4131 64.4118 98.5367 67.5018C99.7165 70.5917 101.205 73.0918 103.003 75.0019C104.801 76.8559 106.823 78.2043 109.071 79.047C111.318 79.8335 113.509 80.2268 115.644 80.2268ZM120.447 29.1581C118.93 29.1581 117.526 29.4951 116.234 30.1693C114.942 30.7873 113.818 31.6581 112.863 32.7818C111.908 33.9054 111.149 35.2537 110.588 36.8268C110.026 38.3999 109.745 40.1415 109.745 42.0517C109.745 45.3663 110.307 48.344 111.43 50.9845C112.554 53.625 114.071 55.8722 115.981 57.7262C117.947 59.5802 120.223 61.0128 122.807 62.0241C125.391 62.9792 128.172 63.4567 131.15 63.4567H132.751C133.201 61.7151 133.51 59.8892 133.678 57.979C133.847 56.0689 133.931 53.9902 133.931 51.7429C133.819 47.417 133.369 43.8214 132.583 40.9561C131.852 38.0347 130.897 35.7032 129.717 33.9616C128.537 32.2199 127.133 30.984 125.504 30.2536C123.931 29.5232 122.245 29.1581 120.447 29.1581ZM128.959 4.97204L108.818 17.1915L107.217 15.1689L125.672 0L128.959 4.97204Z" fill="#9C9C9C"/>
<path d="M158.791 40.1977C158.173 41.8269 157.555 43.4281 156.937 45.0012C156.375 46.5742 155.729 48.1473 154.999 49.7204C154.325 51.2935 153.51 52.8385 152.555 54.3553C151.6 55.8722 150.448 57.4172 149.1 58.9903L148.426 58.3161C149.886 54.7767 151.179 51.153 152.302 47.4451C153.426 43.7371 154.549 39.5797 155.673 34.9728C155.392 34.1863 155.139 33.5121 154.915 32.9503C154.69 32.3885 154.493 31.8829 154.325 31.4334C154.156 30.9278 154.016 30.4221 153.903 29.9165C153.791 29.3547 153.735 28.7367 153.735 28.0625C153.735 27.1636 153.847 26.1805 154.072 25.113C154.353 23.9894 154.718 22.95 155.167 21.995C155.673 21.0399 156.235 20.2533 156.853 19.6353C157.471 18.9612 158.117 18.6241 158.791 18.6241C159.578 18.6241 160.196 18.8207 160.645 19.214C161.151 19.5511 161.544 20.0005 161.825 20.5623C162.106 21.1241 162.302 21.714 162.415 22.332C162.527 22.95 162.583 23.5399 162.583 24.1017C162.583 24.9445 162.471 25.9276 162.246 27.0513C162.078 28.1187 161.853 29.1862 161.572 30.2536C161.347 31.2649 161.123 32.1638 160.898 32.9503C160.729 33.7368 160.645 34.2425 160.645 34.4672C161.094 35.9841 161.853 37.5291 162.92 39.1021C164.044 40.6752 165.308 42.2764 166.713 43.9056C168.117 45.5349 169.578 47.2484 171.095 49.0462C172.668 50.7878 174.072 52.6418 175.308 54.6082C176.601 56.5745 177.64 58.6813 178.426 60.9285C179.269 63.1196 179.69 65.4511 179.69 67.9231C179.69 71.4625 179.157 74.3278 178.089 76.5188C177.078 78.7099 175.702 80.3953 173.96 81.5752C176.488 80.5639 178.848 78.7661 181.039 76.1818C183.286 73.5974 185.337 70.6479 187.191 67.3332C189.101 63.9623 190.842 60.451 192.416 56.7992C194.045 53.1474 195.477 49.7485 196.713 46.6023L200 47.4451C198.09 52.3328 196.067 57.1082 193.932 61.7713C191.798 66.4343 189.382 70.5917 186.685 74.2435C183.988 77.8953 180.926 80.8448 177.499 83.092C174.129 85.3393 170.252 86.4629 165.87 86.4629C164.69 86.4629 163.482 86.3786 162.246 86.2101C161.066 85.9854 159.887 85.6764 158.707 85.2831C157.583 84.8337 156.516 84.2438 155.504 83.5134C154.493 82.783 153.622 81.9122 152.892 80.901L155.673 79.047C156.179 79.8335 156.965 80.5639 158.033 81.2381C159.1 81.9122 160.505 82.2493 162.246 82.2493C163.932 82.2493 165.392 81.9122 166.628 81.2381C167.921 80.5077 168.988 79.5526 169.831 78.3728C170.73 77.1368 171.376 75.7042 171.769 74.075C172.218 72.4457 172.443 70.7041 172.443 68.8501C172.443 65.0298 171.881 61.7432 170.758 58.9903C169.69 56.2374 168.398 53.7935 166.881 51.6586C165.42 49.4676 163.904 47.4731 162.33 45.6753C160.814 43.8775 159.634 42.0517 158.791 40.1977Z" fill="#9C9C9C"/>
<path d="M1.71898 26.0263V14.6354C1.71898 13.379 2.09178 12.378 2.83736 11.6324C3.58294 10.873 4.64609 10.4933 6.0268 10.4933C6.49624 10.4933 6.94497 10.5416 7.37299 10.6383C7.81482 10.7349 8.18761 10.8868 8.49137 11.0939L7.64223 13.4342C7.46274 13.3099 7.26254 13.2133 7.04162 13.1443C6.82071 13.0752 6.58599 13.0407 6.33746 13.0407C5.86802 13.0407 5.50213 13.1788 5.23979 13.4549C4.99127 13.7173 4.867 14.1177 4.867 14.6561V15.6917L4.94985 17.0793V26.0263H1.71898ZM0 17.6178V15.1325H7.72507V17.6178H0Z" fill="#B2B2B2"/>
<path d="M14.7228 26.192C13.4526 26.192 12.3342 25.9434 11.3677 25.4464C10.415 24.9493 9.67635 24.2728 9.15168 23.4167C8.62701 22.5469 8.36468 21.5597 8.36468 20.4551C8.36468 19.3367 8.62011 18.3495 9.13097 17.4935C9.65564 16.6236 10.3667 15.9471 11.2642 15.4638C12.1616 14.9668 13.1765 14.7183 14.3086 14.7183C15.3994 14.7183 16.3797 14.953 17.2495 15.4224C18.1332 15.8781 18.8305 16.5408 19.3413 17.4107C19.8522 18.2667 20.1076 19.2953 20.1076 20.4965C20.1076 20.6208 20.1007 20.7658 20.0869 20.9315C20.0731 21.0833 20.0593 21.2283 20.0455 21.3664H10.9949V19.4817H18.3472L17.1046 20.0409C17.1046 19.461 16.9872 18.957 16.7525 18.529C16.5178 18.101 16.1933 17.7696 15.7791 17.5349C15.3649 17.2864 14.8816 17.1621 14.3293 17.1621C13.7771 17.1621 13.2869 17.2864 12.8589 17.5349C12.4447 17.7696 12.1202 18.1079 11.8855 18.5497C11.6508 18.9778 11.5334 19.4886 11.5334 20.0823V20.5794C11.5334 21.1869 11.6646 21.7254 11.9269 22.1948C12.2031 22.6504 12.5827 23.0025 13.066 23.2511C13.5631 23.4858 14.1429 23.6031 14.8057 23.6031C15.3994 23.6031 15.9172 23.5134 16.359 23.3339C16.8146 23.1544 17.2288 22.8852 17.6016 22.5262L19.3206 24.3901C18.8097 24.97 18.1677 25.4188 17.3945 25.7363C16.6213 26.0401 15.7308 26.192 14.7228 26.192Z" fill="#B2B2B2"/>
<path d="M22.2586 26.0263V14.884H25.4895V26.0263H22.2586ZM23.874 13.3307C23.2803 13.3307 22.7971 13.1581 22.4243 12.8129C22.0515 12.4677 21.8651 12.0397 21.8651 11.5288C21.8651 11.018 22.0515 10.5899 22.4243 10.2448C22.7971 9.89959 23.2803 9.727 23.874 9.727C24.4677 9.727 24.951 9.89268 25.3238 10.2241C25.6966 10.5416 25.883 10.9558 25.883 11.4667C25.883 12.0052 25.6966 12.4539 25.3238 12.8129C24.9648 13.1581 24.4816 13.3307 23.874 13.3307Z" fill="#B2B2B2"/>
<path d="M33.0443 26.192C31.7327 26.192 30.7109 25.8606 29.9792 25.1979C29.2474 24.5213 28.8815 23.5203 28.8815 22.1948V12.4194H32.1124V22.1534C32.1124 22.6228 32.2366 22.9887 32.4851 23.2511C32.7337 23.4996 33.0719 23.6238 33.5 23.6238C34.0108 23.6238 34.4458 23.4858 34.8047 23.2096L35.6746 25.4878C35.3432 25.7225 34.9428 25.902 34.4734 26.0263C34.0177 26.1367 33.5414 26.192 33.0443 26.192ZM27.1625 17.6178V15.1325H34.8876V17.6178H27.1625Z" fill="#B2B2B2"/>
<path d="M42.4463 26.192C41.2589 26.192 40.2027 25.9434 39.2776 25.4464C38.3663 24.9493 37.6414 24.2728 37.103 23.4167C36.5783 22.5469 36.316 21.5597 36.316 20.4551C36.316 19.3367 36.5783 18.3495 37.103 17.4935C37.6414 16.6236 38.3663 15.9471 39.2776 15.4638C40.2027 14.9668 41.2589 14.7183 42.4463 14.7183C43.6199 14.7183 44.6693 14.9668 45.5943 15.4638C46.5194 15.9471 47.2443 16.6167 47.769 17.4728C48.2936 18.3288 48.556 19.3229 48.556 20.4551C48.556 21.5597 48.2936 22.5469 47.769 23.4167C47.2443 24.2728 46.5194 24.9493 45.5943 25.4464C44.6693 25.9434 43.6199 26.192 42.4463 26.192ZM42.4463 23.541C42.9848 23.541 43.468 23.4167 43.8961 23.1682C44.3241 22.9197 44.6624 22.5676 44.9109 22.112C45.1594 21.6425 45.2837 21.0902 45.2837 20.4551C45.2837 19.8062 45.1594 19.2539 44.9109 18.7983C44.6624 18.3426 44.3241 17.9905 43.8961 17.742C43.468 17.4935 42.9848 17.3692 42.4463 17.3692C41.9078 17.3692 41.4246 17.4935 40.9966 17.742C40.5686 17.9905 40.2234 18.3426 39.961 18.7983C39.7125 19.2539 39.5882 19.8062 39.5882 20.4551C39.5882 21.0902 39.7125 21.6425 39.961 22.112C40.2234 22.5676 40.5686 22.9197 40.9966 23.1682C41.4246 23.4167 41.9078 23.541 42.4463 23.541Z" fill="#B2B2B2"/>
<path d="M63.1668 26.192C62.228 26.192 61.4064 25.9849 60.7023 25.5706C59.9981 25.1564 59.4458 24.5282 59.0454 23.686C58.6588 22.8299 58.4655 21.753 58.4655 20.4551C58.4655 19.1434 58.6519 18.0665 59.0247 17.2243C59.3975 16.382 59.936 15.7538 60.6401 15.3396C61.3443 14.9254 62.1865 14.7183 63.1668 14.7183C64.2162 14.7183 65.1551 14.9599 65.9835 15.4431C66.8257 15.9126 67.4885 16.5753 67.9717 17.4314C68.4688 18.2874 68.7173 19.2953 68.7173 20.4551C68.7173 21.6287 68.4688 22.6435 67.9717 23.4996C67.4885 24.3556 66.8257 25.0184 65.9835 25.4878C65.1551 25.9572 64.2162 26.192 63.1668 26.192ZM56.5809 30.0441V14.884H59.6667V17.1621L59.6046 20.4758L59.8117 23.7688V30.0441H56.5809ZM62.6077 23.541C63.1461 23.541 63.6225 23.4167 64.0367 23.1682C64.4647 22.9197 64.803 22.5676 65.0515 22.112C65.3138 21.6425 65.445 21.0902 65.445 20.4551C65.445 19.8062 65.3138 19.2539 65.0515 18.7983C64.803 18.3426 64.4647 17.9905 64.0367 17.742C63.6225 17.4935 63.1461 17.3692 62.6077 17.3692C62.0692 17.3692 61.5859 17.4935 61.1579 17.742C60.7299 17.9905 60.3916 18.3426 60.1431 18.7983C59.8946 19.2539 59.7703 19.8062 59.7703 20.4551C59.7703 21.0902 59.8946 21.6425 60.1431 22.112C60.3916 22.5676 60.7299 22.9197 61.1579 23.1682C61.5859 23.4167 62.0692 23.541 62.6077 23.541Z" fill="#B2B2B2"/>
<path d="M76.182 26.192C74.9946 26.192 73.9384 25.9434 73.0133 25.4464C72.102 24.9493 71.3772 24.2728 70.8387 23.4167C70.314 22.5469 70.0517 21.5597 70.0517 20.4551C70.0517 19.3367 70.314 18.3495 70.8387 17.4935C71.3772 16.6236 72.102 15.9471 73.0133 15.4638C73.9384 14.9668 74.9946 14.7183 76.182 14.7183C77.3556 14.7183 78.405 14.9668 79.3301 15.4638C80.2551 15.9471 80.98 16.6167 81.5047 17.4728C82.0293 18.3288 82.2917 19.3229 82.2917 20.4551C82.2917 21.5597 82.0293 22.5469 81.5047 23.4167C80.98 24.2728 80.2551 24.9493 79.3301 25.4464C78.405 25.9434 77.3556 26.192 76.182 26.192ZM76.182 23.541C76.7205 23.541 77.2038 23.4167 77.6318 23.1682C78.0598 22.9197 78.3981 22.5676 78.6466 22.112C78.8951 21.6425 79.0194 21.0902 79.0194 20.4551C79.0194 19.8062 78.8951 19.2539 78.6466 18.7983C78.3981 18.3426 78.0598 17.9905 77.6318 17.742C77.2038 17.4935 76.7205 17.3692 76.182 17.3692C75.6436 17.3692 75.1603 17.4935 74.7323 17.742C74.3043 17.9905 73.9591 18.3426 73.6968 18.7983C73.4482 19.2539 73.324 19.8062 73.324 20.4551C73.324 21.0902 73.4482 21.6425 73.6968 22.112C73.9591 22.5676 74.3043 22.9197 74.7323 23.1682C75.1603 23.4167 75.6436 23.541 76.182 23.541Z" fill="#B2B2B2"/>
<path d="M84.4512 26.0263V14.884H87.5371V18.032L87.1022 17.1207C87.4336 16.3337 87.9652 15.74 88.6969 15.3396C89.4287 14.9254 90.3193 14.7183 91.3686 14.7183V17.7006C91.2305 17.6868 91.1063 17.6799 90.9958 17.6799C90.8854 17.6661 90.768 17.6592 90.6437 17.6592C89.7601 17.6592 89.0421 17.9146 88.4898 18.4255C87.9513 18.9225 87.6821 19.7026 87.6821 20.7658V26.0263H84.4512Z" fill="#B2B2B2"/>
</svg>
