<svg width="89" height="93" viewBox="0 0 89 93" fill="none" xmlns="http://www.w3.org/2000/svg">
<path d="M5.03983 68.7316C4.13525 61.9257 3.57526 54.9044 3.35989 47.6677C3.14451 40.388 3.14451 33.3667 3.35989 26.6038C2.97221 26.8192 2.6276 27.013 2.32608 27.1853C2.02455 27.3576 1.65841 27.4438 1.22765 27.4438C0.926123 27.4438 0.646132 27.3146 0.387679 27.0561C0.129226 26.7977 0 26.4746 0 26.0869V25.8931C0 25.85 0.0215377 25.7854 0.0646132 25.6992C0.409217 25.3115 0.818434 24.6439 1.29226 23.6962C1.80917 22.7486 2.34761 21.8224 2.90759 20.9179C3.46758 19.9702 4.00602 19.1518 4.52293 18.4625C5.03983 17.7303 5.49212 17.3641 5.8798 17.3641C6.26748 17.3641 6.54747 17.4718 6.71977 17.6872C6.93515 17.8595 7.10745 18.0749 7.23668 18.3333C7.36591 18.5918 7.49513 18.8933 7.62436 19.2379C7.79666 19.5394 8.03358 19.7764 8.3351 19.9487C9.62737 19.1733 11.0489 18.5056 12.5996 17.9456C14.1503 17.3857 15.701 16.998 17.2517 16.7826C18.8455 16.5672 20.3747 16.5457 21.8393 16.718C23.3469 16.8472 24.7038 17.2134 25.9099 17.8164C27.116 18.3764 28.1498 19.1948 29.0113 20.2717C29.8728 21.3486 30.4328 22.7055 30.6913 24.3424C30.6482 26.453 30.0236 28.4561 28.8175 30.3514C27.6545 32.2036 26.1899 33.9051 24.4238 35.4558C22.7008 36.9635 20.827 38.3203 18.8024 39.5265C16.7779 40.6895 14.9041 41.7018 13.1811 42.5633C11.5012 43.4248 10.1012 44.114 8.98124 44.6309C7.90435 45.1478 7.40898 45.4493 7.49513 45.5355V68.7316C7.49513 69.0762 7.34437 69.3131 7.04284 69.4424C6.74131 69.5716 6.46132 69.6362 6.20287 69.6362C5.72904 69.6362 5.34136 69.3347 5.03983 68.7316ZM7.49513 24.0839C7.36591 25.3331 7.1936 26.7115 6.97823 28.2191C6.80593 29.6837 6.6767 31.2129 6.59055 32.8067C6.5044 34.3574 6.5044 35.8866 6.59055 37.3942C6.71977 38.9019 7.0213 40.2587 7.49513 41.4649C9.34738 40.6464 11.2858 39.7418 13.3103 38.7511C15.3349 37.7173 17.2733 36.5542 19.1255 35.262C20.9778 33.9697 22.6362 32.5482 24.1007 30.9975C25.6084 29.4037 26.7283 27.6376 27.4606 25.6992C27.4606 24.6654 27.0729 23.7824 26.2976 23.0501C25.5653 22.3178 24.6607 21.7147 23.5838 21.2409C22.5069 20.7671 21.387 20.444 20.2239 20.2717C19.104 20.0563 18.1779 19.9487 17.4456 19.9487C17.0148 19.9487 16.3041 20.0779 15.3133 20.3363C14.3657 20.5517 13.3534 20.8532 12.2765 21.2409C11.2427 21.5855 10.252 22.0163 9.3043 22.5332C8.39972 23.0501 7.79666 23.567 7.49513 24.0839Z" fill="#9C9C9C"/>
<path d="M34.8508 71.51C34.6354 70.39 34.4415 69.0547 34.2692 67.504C34.14 65.9102 33.9892 64.3164 33.8169 62.7226C33.6446 61.0857 33.4293 59.5566 33.1708 58.1351C32.9554 56.7136 32.6108 55.5505 32.137 54.6459C29.9401 59.1258 28.0018 62.658 26.3218 65.2425C24.6419 67.784 23.1558 69.6147 21.8635 70.7346C20.6143 71.8115 19.559 72.3284 18.6974 72.2854C17.8359 72.2423 17.1252 71.8546 16.5652 71.1223C16.0052 70.39 15.596 69.4639 15.3376 68.344C15.1222 67.1809 14.9714 66.104 14.8853 65.1133C14.8853 64.1656 15.1006 62.8303 15.5314 61.1073C15.9622 59.3843 16.5437 57.5105 17.276 55.4859C18.0082 53.4183 18.8698 51.3291 19.8605 49.2184C20.8943 47.1077 21.9927 45.1909 23.1558 43.4679C24.3188 41.7448 25.5249 40.3234 26.7741 39.2034C28.0233 38.0834 29.2725 37.5234 30.5217 37.5234C32.3739 37.2219 33.7308 37.6311 34.5923 38.7511C35.4969 39.828 35.6692 41.6587 35.1092 44.2432C35.1092 47.0862 35.2169 49.52 35.4323 51.5445C35.6907 53.5691 35.9492 55.5075 36.2076 57.3597C36.5092 59.2119 36.7676 61.1503 36.983 63.1749C37.2414 65.1994 37.3707 67.6332 37.3707 70.4762C37.3707 70.9931 37.3061 71.4454 37.1768 71.8331C37.0907 72.1777 36.5738 72.35 35.6261 72.35C35.4969 72.35 35.3246 72.2423 35.1092 72.0269C34.9369 71.8115 34.8508 71.6392 34.8508 71.51ZM31.3616 42.6279C30.8878 41.9387 30.2417 41.8741 29.4232 42.4341C28.6048 42.994 27.7433 43.9202 26.8387 45.2124C25.9341 46.5047 25.008 48.0554 24.0603 49.8646C23.1127 51.6737 22.2296 53.5044 21.4112 55.3567C20.5928 57.2089 19.882 58.975 19.279 60.655C18.6759 62.2918 18.2667 63.6487 18.0513 64.7256C18.0513 66.2763 18.2882 67.1594 18.7621 67.3748C19.2359 67.5471 19.8174 67.2886 20.5066 66.5994C21.1958 65.9102 21.9712 64.9195 22.8327 63.6272C23.7373 62.3349 24.5988 60.9565 25.4172 59.4919C26.2787 58.0274 27.0756 56.6059 27.8079 55.2275C28.5833 53.8491 29.1863 52.7291 29.6171 51.8676C30.0048 50.963 30.3063 50.123 30.5217 49.3477C30.737 48.5723 30.9093 47.84 31.0386 47.1508C31.2109 46.4185 31.297 45.6862 31.297 44.954C31.3401 44.2217 31.3616 43.4463 31.3616 42.6279Z" fill="#B2B2B2"/>
<path d="M36.4284 46.7631C36.4284 46.7201 36.4069 46.6554 36.3638 46.5693C36.3638 46.4401 36.3638 46.3539 36.3638 46.3108C36.3638 45.6647 36.6223 45.2986 37.1392 45.2124C37.6561 45.0832 38.1299 45.0186 38.5606 45.0186C39.0345 45.0186 39.5729 45.4278 40.176 46.2462C40.779 47.0216 41.4467 48.0769 42.179 49.4123C42.9543 50.7045 43.7297 52.126 44.5051 53.6768C45.3235 55.2275 46.1419 56.7566 46.9604 58.2643C47.8219 59.7289 48.6834 61.0642 49.5449 62.2703C50.4495 63.4764 51.311 64.3595 52.1294 64.9195C52.3879 60.9996 52.5817 57.6612 52.7109 54.9044C52.8402 52.1476 52.9263 49.8215 52.9694 47.9262C53.0555 46.0309 53.0986 44.5447 53.0986 43.4679C53.0986 42.3479 53.0771 41.4864 53.034 40.8833C53.034 40.2803 53.0125 39.8926 52.9694 39.7203C52.9694 39.5049 52.9694 39.3542 52.9694 39.268C52.9694 38.4926 53.0986 38.0188 53.3571 37.8465C53.6586 37.6742 54.0463 37.5881 54.5201 37.5881C55.0801 37.5881 55.6616 37.6742 56.2647 37.8465C56.8677 38.0188 57.1693 38.4496 57.1693 39.1388C57.2985 41.9387 57.2985 44.7817 57.1693 47.6677C57.0831 50.5107 56.9323 53.3537 56.717 56.1967C56.5016 58.9966 56.3293 61.7534 56.2001 64.4672C56.0708 67.1809 56.0708 69.8085 56.2001 72.35C56.1139 72.4361 55.9201 72.5438 55.6185 72.673C55.317 72.7592 54.9939 72.8453 54.6493 72.9315C54.3047 73.0176 53.9601 73.0823 53.6155 73.1253C53.314 73.1684 53.0986 73.1899 52.9694 73.1899C52.5386 73.1038 51.871 72.5223 50.9664 71.4454C50.0618 70.3254 49.0495 68.9255 47.9296 67.2455C46.8096 65.5656 45.6466 63.6918 44.4405 61.6242C43.2343 59.5566 42.0713 57.5535 40.9513 55.6151C39.8745 53.6768 38.9268 51.9107 38.1084 50.3169C37.2899 48.7231 36.7299 47.5385 36.4284 46.7631Z" fill="#9C9C9C"/>
<path d="M62.9198 47.7492C62.7045 47.7922 62.3814 47.8569 61.9506 47.943C61.5199 48.0292 61.0676 48.0507 60.5938 48.0076C60.1199 47.9645 59.7107 47.8353 59.3661 47.6199C58.9784 47.4046 58.7846 47.0384 58.7846 46.5215C58.7846 46.22 58.8492 46.0046 58.9784 45.8754C59.1077 45.7462 59.323 45.5523 59.6246 45.2939C60.5722 44.5185 61.3691 43.5278 62.0152 42.3217C62.7045 41.0725 63.329 39.7587 63.889 38.3803C64.449 36.9588 65.0305 35.5588 65.6336 34.1804C66.2797 32.7589 67.012 31.4882 67.8304 30.3682C68.6489 29.2482 69.6611 28.3437 70.8673 27.6545C72.0734 26.9652 73.5595 26.6422 75.3256 26.6853C76.0579 26.6853 76.8763 26.8576 77.7809 27.2022C78.6855 27.5468 79.5254 28.0206 80.3008 28.6237C81.0761 29.1836 81.7223 29.8728 82.2392 30.6913C82.7561 31.5097 83.0145 32.4143 83.0145 33.405C83.2299 33.7496 83.0145 34.245 82.3684 34.8911C81.7654 35.5373 80.9254 36.248 79.8485 37.0234C78.7716 37.7557 77.544 38.531 76.1655 39.3494C74.8302 40.1248 73.5379 40.8571 72.2887 41.5463C71.0396 42.2355 69.9411 42.8386 68.9935 43.3555C68.0458 43.8724 67.4212 44.2601 67.1197 44.5185C66.9043 44.9493 66.732 45.4446 66.6028 46.0046C66.4736 46.5646 66.3659 47.103 66.2797 47.6199C66.2366 48.0938 66.1936 48.5461 66.1505 48.9768C66.1505 49.3645 66.1505 49.666 66.1505 49.8814C66.1505 50.6998 66.1074 51.6044 66.0213 52.5952C65.9782 53.5859 66.0213 54.5336 66.1505 55.4381C66.3228 56.2996 66.6889 57.0319 67.2489 57.635C67.8089 58.195 68.7566 58.475 70.0919 58.475C71.5134 58.475 72.8487 58.1304 74.0979 57.4411C75.3471 56.7089 76.5101 55.8258 77.587 54.792C78.6639 53.7582 79.6331 52.6382 80.4946 51.4321C81.3992 50.226 82.1961 49.106 82.8853 48.0722C83.6176 46.9953 84.2637 46.1123 84.8237 45.4231C85.3837 44.7339 85.8575 44.3893 86.2452 44.3893C86.676 44.3893 87.1283 44.4754 87.6021 44.6477C88.119 44.777 88.3774 45.1216 88.3774 45.6815C88.3774 46.4569 88.0544 47.383 87.4082 48.4599C86.8052 49.5368 85.9867 50.6783 84.9529 51.8844C83.9622 53.0905 82.7992 54.2966 81.4638 55.5028C80.1716 56.6658 78.8578 57.7211 77.5224 58.6688C76.1871 59.5734 74.8733 60.3272 73.581 60.9303C72.2887 61.4902 71.1472 61.7702 70.1565 61.7702C68.2181 61.7702 66.7535 61.2964 65.7628 60.3487C64.7721 59.4011 64.0613 58.2165 63.6306 56.795C63.2429 55.3735 63.0275 53.8659 62.9844 52.2721C62.9844 50.6352 62.9629 49.1276 62.9198 47.7492ZM74.8087 30.3036C74.0764 30.3036 73.301 30.6697 72.4826 31.402C71.6642 32.0912 70.8888 32.9527 70.1565 33.9866C69.4673 34.9773 68.8858 36.0111 68.412 37.088C67.9812 38.1218 67.7658 38.9833 67.7658 39.6725C68.412 39.6725 69.3381 39.4356 70.5442 38.9618C71.7934 38.4449 73.021 37.8203 74.2271 37.088C75.4333 36.3557 76.4886 35.5803 77.3932 34.7619C78.2978 33.9435 78.7501 33.1681 78.7501 32.4358C78.7501 32.0482 78.5993 31.7251 78.2978 31.4666C77.9962 31.2082 77.6301 30.9928 77.1994 30.8205C76.8117 30.6482 76.4025 30.519 75.9717 30.4328C75.5409 30.3467 75.1533 30.3036 74.8087 30.3036ZM63.1783 16.864C63.1783 16.7779 63.1783 16.6917 63.1783 16.6056C63.2214 16.4764 63.2429 16.3902 63.2429 16.3471L71.4488 1.03381C71.4919 0.86151 71.7288 0.646132 72.1595 0.387679C72.5903 0.129226 73.0426 0 73.5164 0C73.5595 0 73.6241 0.0215377 73.7102 0.0646132C73.7964 0.0646132 73.8395 0.0646132 73.8395 0.0646132L84.436 12.4057C85.2975 12.578 85.7929 12.7934 85.9221 13.0519C86.0944 13.3103 86.1806 13.6549 86.1806 14.0857C86.1806 14.258 86.1375 14.4949 86.0514 14.7964C86.0083 15.0549 85.9006 15.3133 85.7283 15.5718C85.556 15.7872 85.3191 15.981 85.0176 16.1533C84.7591 16.3256 84.4145 16.4118 83.9837 16.4118H83.7253C83.6822 16.4118 83.6607 16.3902 83.6607 16.3471L74.6148 5.03983C74.3994 4.65215 73.9902 4.45831 73.3872 4.45831H73.0641L65.6982 17.3163C65.6551 17.4025 65.5259 17.5102 65.3105 17.6394C65.0951 17.7686 64.9444 17.8332 64.8582 17.8332C64.0829 17.8332 63.609 17.7471 63.4367 17.5748C63.2644 17.4025 63.1783 17.1656 63.1783 16.864Z" fill="#B2B2B2"/>
<path d="M0.148771 89.0969C0.296843 87.6835 0.37761 86.3374 0.391071 85.0586C0.417993 83.7932 0.411262 82.5414 0.370879 81.3029C0.343957 80.0645 0.296843 78.8126 0.229538 77.5473C0.162232 76.282 0.121849 74.9426 0.108388 73.5292C0.148771 73.3407 0.195885 73.1994 0.249729 73.1051C0.317035 72.9974 0.485298 72.9705 0.75452 73.0244C1.0372 73.0917 1.20547 73.2532 1.25931 73.509C1.31316 73.7513 1.32662 74.0272 1.29969 74.3368C1.27277 74.6464 1.23239 74.956 1.17854 75.2656C1.1247 75.5752 1.1247 75.8243 1.17854 76.0127C1.6093 75.7031 2.06698 75.3801 2.55158 75.0435C3.03617 74.707 3.54097 74.4109 4.06595 74.1551C4.59093 73.8859 5.1361 73.6907 5.70147 73.5695C6.26684 73.4349 6.8322 73.4282 7.39757 73.5494C8.09754 73.7109 8.58214 73.9532 8.85136 74.2763C9.13405 74.5859 9.24174 74.9493 9.17443 75.3666C9.12059 75.7704 8.93213 76.2214 8.60906 76.7194C8.286 77.204 7.8889 77.6954 7.41776 78.1934C6.94662 78.6915 6.42164 79.1828 5.84281 79.6674C5.26398 80.152 4.69862 80.603 4.14671 81.0203C3.59481 81.4241 3.07656 81.7808 2.59196 82.0904C2.12082 82.4 1.74391 82.6289 1.46123 82.7769C1.44777 82.9385 1.42757 83.1942 1.40065 83.5442C1.38719 83.8807 1.367 84.2644 1.34008 84.6951C1.32662 85.1259 1.30642 85.5768 1.2795 86.048C1.26604 86.5191 1.24585 86.9701 1.21893 87.4008C1.20547 87.8316 1.18527 88.2152 1.15835 88.5517C1.14489 88.8883 1.13816 89.1373 1.13816 89.2988C1.11124 89.3123 1.06413 89.3257 0.99682 89.3392C0.929514 89.3527 0.848748 89.3594 0.75452 89.3594C0.660293 89.3729 0.572796 89.3796 0.492029 89.3796C0.411262 89.3931 0.357418 89.3931 0.330496 89.3796C0.290113 89.3796 0.249729 89.3392 0.209346 89.2584C0.168963 89.1911 0.148771 89.1373 0.148771 89.0969ZM1.2795 78.0319C1.23912 78.2203 1.22566 78.4559 1.23912 78.7386C1.26604 79.0078 1.29296 79.2972 1.31989 79.6068C1.36027 79.903 1.40065 80.1924 1.44104 80.4751C1.48142 80.7578 1.50834 81.0001 1.5218 81.202C2.03332 80.8116 2.62561 80.4145 3.29867 80.0107C3.98518 79.6068 4.64477 79.1694 5.27745 78.6982C5.92358 78.2271 6.49567 77.7021 6.99373 77.1233C7.49179 76.5444 7.82159 75.8916 7.98312 75.1647C8.03697 74.882 8.01005 74.6935 7.90236 74.5993C7.80813 74.4916 7.63987 74.4176 7.39757 74.3772C6.88605 74.2695 6.30049 74.3099 5.64089 74.4984C4.9813 74.6734 4.3419 74.9358 3.72269 75.2858C3.11694 75.6358 2.58523 76.0531 2.12755 76.5377C1.66987 77.0223 1.38719 77.5204 1.2795 78.0319Z" fill="#B2B2B2"/>
<path d="M7.32488 82.3246V82.1631C7.32488 82.0285 7.37199 81.9343 7.46622 81.8804C7.57391 81.8266 7.69506 81.7997 7.82967 81.7997C7.93736 81.7997 8.03831 81.8131 8.13254 81.84C8.22677 81.8535 8.30081 81.9275 8.35465 82.0621C8.39503 82.2641 8.43542 82.5467 8.4758 82.9102C8.51618 83.2602 8.5633 83.6506 8.61714 84.0813C8.67099 84.5121 8.72483 84.9697 8.77867 85.4543C8.84598 85.9255 8.90655 86.3764 8.9604 86.8072C9.0277 87.2245 9.09501 87.6014 9.16231 87.9379C9.22962 88.2744 9.30366 88.5302 9.38442 88.7052C9.34404 87.4129 9.38442 86.2957 9.50557 85.3534C9.62672 84.3976 9.85556 83.6236 10.1921 83.0313C10.5421 82.4256 11.0132 82.0083 11.6055 81.7795C12.2113 81.5372 12.9651 81.4833 13.867 81.6179C14.2843 81.6179 14.4929 81.84 14.4929 82.2843C14.4929 82.4592 14.3785 82.5804 14.1496 82.6477C13.9208 82.7015 13.665 82.7419 13.3824 82.7689C13.0997 82.7823 12.8237 82.8025 12.5545 82.8294C12.2853 82.8563 12.0901 82.9237 11.969 83.0313C11.4844 83.3006 11.1411 83.7179 10.9392 84.2832C10.7507 84.8486 10.6161 85.5149 10.5353 86.2822C10.4546 87.0495 10.394 87.8908 10.3536 88.8061C10.3267 89.708 10.2392 90.6369 10.0911 91.5926C10.0911 91.7272 10.0373 91.8282 9.9296 91.8955C9.82191 91.9628 9.6873 91.9964 9.52576 91.9964C9.37769 91.9964 9.22962 91.9628 9.08155 91.8955C8.94694 91.8282 8.83925 91.7272 8.75848 91.5926L7.32488 82.3246Z" fill="#9C9C9C"/>
<path d="M21.1783 89.7228C21.111 89.3729 21.0505 88.9556 20.9966 88.471C20.9562 87.9729 20.9091 87.4748 20.8553 86.9768C20.8014 86.4653 20.7341 85.9874 20.6534 85.5432C20.5861 85.099 20.4784 84.7355 20.3303 84.4528C19.6438 85.8528 19.038 86.9566 18.513 87.7643C17.9881 88.5585 17.5237 89.1306 17.1198 89.4805C16.7294 89.8171 16.3997 89.9786 16.1304 89.9651C15.8612 89.9517 15.6391 89.8305 15.4641 89.6017C15.2891 89.3729 15.1612 89.0834 15.0805 88.7335C15.0132 88.37 14.966 88.0335 14.9391 87.7239C14.9391 87.4277 15.0064 87.0104 15.141 86.472C15.2757 85.9336 15.4574 85.348 15.6862 84.7153C15.9151 84.0692 16.1843 83.4163 16.4939 82.7567C16.8169 82.0971 17.1602 81.4981 17.5237 80.9597C17.8871 80.4212 18.264 79.977 18.6544 79.627C19.0448 79.277 19.4351 79.1021 19.8255 79.1021C20.4043 79.0078 20.8283 79.1357 21.0976 79.4857C21.3803 79.8222 21.4341 80.3943 21.2591 81.202C21.2591 82.0904 21.2928 82.851 21.3601 83.4836C21.4408 84.1163 21.5216 84.7221 21.6024 85.3009C21.6966 85.8797 21.7774 86.4855 21.8447 87.1181C21.9254 87.7508 21.9658 88.5114 21.9658 89.3998C21.9658 89.5613 21.9456 89.7027 21.9052 89.8238C21.8783 89.9315 21.7168 89.9853 21.4206 89.9853C21.3803 89.9853 21.3264 89.9517 21.2591 89.8844C21.2053 89.8171 21.1783 89.7632 21.1783 89.7228ZM20.088 80.6972C19.9399 80.4818 19.738 80.4616 19.4822 80.6366C19.2265 80.8116 18.9573 81.101 18.6746 81.5049C18.3919 81.9087 18.1025 82.3933 17.8063 82.9587C17.5102 83.524 17.2342 84.0961 16.9785 84.6749C16.7227 85.2538 16.5006 85.8057 16.3122 86.3307C16.1237 86.8422 15.9958 87.2662 15.9285 87.6027C15.9285 88.0873 16.0026 88.3633 16.1506 88.4306C16.2987 88.4844 16.4804 88.4037 16.6958 88.1883C16.9112 87.9729 17.1535 87.6633 17.4227 87.2595C17.7054 86.8556 17.9746 86.4249 18.2304 85.9672C18.4996 85.5095 18.7486 85.0653 18.9775 84.6346C19.2197 84.2038 19.4082 83.8538 19.5428 83.5846C19.664 83.3019 19.7582 83.0394 19.8255 82.7971C19.8928 82.5548 19.9466 82.326 19.987 82.1106C20.0409 81.8818 20.0678 81.6529 20.0678 81.4241C20.0813 81.1952 20.088 80.953 20.088 80.6972Z" fill="#B2B2B2"/>
<path d="M25.782 88.1883C25.8224 87.7037 25.8628 87.1787 25.9032 86.6133C25.9436 86.0345 26.0041 85.4624 26.0849 84.897C26.1791 84.3317 26.2936 83.7932 26.4282 83.2817C26.5762 82.7702 26.7647 82.3193 26.9935 81.9289C27.2358 81.525 27.532 81.2087 27.882 80.9799C28.2319 80.7376 28.656 80.6232 29.154 80.6366C29.4906 80.6366 29.7463 80.778 29.9213 81.0606C30.1098 81.3433 30.2376 81.6866 30.305 82.0904C30.3857 82.4942 30.4261 82.9115 30.4261 83.3423C30.4396 83.7596 30.4463 84.1028 30.4463 84.3721C30.1771 84.3721 29.955 84.2576 29.78 84.0288C29.605 83.7865 29.4704 83.5106 29.3761 83.201C29.2819 82.8913 29.2146 82.5885 29.1742 82.2923L29.1136 81.7068C29.1002 81.7068 29.0733 81.7068 29.0329 81.7068C29.006 81.6933 28.9858 81.6866 28.9723 81.6866C28.7435 81.6866 28.5281 81.8145 28.3262 82.0702C28.1377 82.326 27.956 82.6558 27.781 83.0596C27.6195 83.45 27.4781 83.8942 27.357 84.3923C27.2358 84.8769 27.1349 85.3547 27.0541 85.8259C26.9733 86.297 26.906 86.7345 26.8522 87.1383C26.8118 87.5287 26.7916 87.8316 26.7916 88.0469C26.7647 88.3969 26.7647 88.7806 26.7916 89.1979C26.8185 89.6152 26.8993 90.0055 27.0339 90.369C27.1685 90.7324 27.357 91.0488 27.5993 91.318C27.8416 91.5737 28.1646 91.7487 28.5685 91.843C29.0665 91.843 29.4704 91.7757 29.78 91.6411C30.0896 91.5064 30.3386 91.3247 30.5271 91.0959C30.729 90.867 30.8838 90.6113 30.9915 90.3286C31.0992 90.0459 31.2001 89.7565 31.2943 89.4604C31.402 89.1508 31.5097 88.8479 31.6174 88.5517C31.7251 88.2556 31.8799 87.9796 32.0818 87.7239C32.2434 87.6835 32.3578 87.6902 32.4251 87.7441C32.5058 87.7845 32.5597 87.845 32.5866 87.9258C32.6135 88.0066 32.627 88.1008 32.627 88.2085V88.4306C32.627 88.9959 32.5328 89.5411 32.3443 90.0661C32.1559 90.5911 31.8799 91.0622 31.5165 91.4795C31.153 91.8834 30.7155 92.2131 30.204 92.4689C29.7059 92.7112 29.1338 92.8324 28.4877 92.8324C27.9493 92.8324 27.4983 92.6641 27.1349 92.3276C26.7849 91.9776 26.5089 91.5603 26.307 91.0757C26.1186 90.5911 25.9839 90.0863 25.9032 89.5613C25.8224 89.0229 25.782 88.5652 25.782 88.1883Z" fill="#9C9C9C"/>
<path d="M37.6507 83.3463C37.5564 82.7271 37.5093 82.1281 37.5093 81.5493C37.5093 80.957 37.543 80.358 37.6103 79.7522C37.6911 79.1465 37.7987 78.5205 37.9334 77.8744C38.0814 77.2148 38.2497 76.5081 38.4381 75.7543C38.4381 75.6062 38.4785 75.4716 38.5593 75.3504C38.6401 75.2158 38.7477 75.1081 38.8824 75.0274C39.017 74.9332 39.1583 74.8591 39.3064 74.8053C39.4545 74.7514 39.5958 74.7245 39.7304 74.7245C40.0266 74.7245 40.2958 74.8187 40.5381 75.0072C40.7804 75.1956 40.9957 75.4245 41.1842 75.6937C41.3861 75.9629 41.5544 76.2523 41.689 76.5619C41.8371 76.8581 41.9582 77.1138 42.0524 77.3292C42.1601 77.8004 42.2342 78.3388 42.2746 78.9446C42.3284 79.5368 42.3351 80.1426 42.2947 80.7618C42.2544 81.381 42.1601 81.9935 42.0121 82.5992C41.864 83.1915 41.6553 83.7367 41.3861 84.2348C41.1169 84.7328 40.7669 85.1501 40.3362 85.4866C39.9189 85.8232 39.4208 86.0318 38.842 86.1126C38.5324 86.1126 38.2968 86.0116 38.1353 85.8097C37.9737 85.5943 37.8526 85.3386 37.7718 85.0424C37.7045 84.7328 37.6641 84.4232 37.6507 84.1136C37.6507 83.804 37.6507 83.5482 37.6507 83.3463ZM38.6804 83.2858C38.6804 83.4204 38.6804 83.5482 38.6804 83.6694C38.6939 83.7905 38.7074 83.9117 38.7208 84.0328C38.7477 84.1405 38.7747 84.2617 38.8016 84.3963C38.842 84.5174 38.8891 84.6588 38.9429 84.8203H39.0641C39.3871 84.8203 39.6631 84.7126 39.8919 84.4973C40.1208 84.2819 40.316 84.0059 40.4775 83.6694C40.639 83.3194 40.7736 82.9358 40.8813 82.5185C40.989 82.0877 41.0698 81.6704 41.1236 81.2666C41.1909 80.8493 41.2313 80.4657 41.2448 80.1157C41.2717 79.7522 41.2852 79.4628 41.2852 79.2474V78.8436C41.2852 78.6686 41.2784 78.4734 41.265 78.258C41.2515 78.0292 41.2246 77.8004 41.1842 77.5715C41.1573 77.3292 41.1102 77.1138 41.0429 76.9254C40.9756 76.7235 40.8881 76.5619 40.7804 76.4408C40.6727 76.3196 40.5313 76.2591 40.3563 76.2591C40.0602 76.1648 39.8044 76.185 39.5891 76.3196C39.3871 76.4543 39.2189 76.6831 39.0843 77.0062C38.9631 77.3158 38.8689 77.6994 38.8016 78.1571C38.7343 78.6148 38.6939 79.1196 38.6804 79.6715C38.667 80.2234 38.6603 80.8089 38.6603 81.4281C38.6737 82.0473 38.6804 82.6665 38.6804 83.2858Z" fill="#B2B2B2"/>
<path d="M45.7152 91.9964C45.6748 91.6195 45.6412 91.108 45.6142 90.4619C45.5873 89.8157 45.5604 89.1158 45.5335 88.3619C45.5066 87.5947 45.4729 86.8004 45.4325 85.9793C45.4056 85.1582 45.3719 84.3775 45.3316 83.6371C45.2912 82.8967 45.2373 82.2237 45.17 81.6179C45.1162 81.0122 45.0556 80.5276 44.9883 80.1641C44.9883 79.8949 45.0489 79.7401 45.17 79.6997C45.2912 79.6459 45.446 79.619 45.6344 79.619C45.6614 79.619 45.7219 79.619 45.8162 79.619C45.9104 79.619 45.9777 79.6257 46.0181 79.6391C46.1392 80.043 46.2133 80.568 46.2402 81.2141C46.2806 81.8468 46.3075 82.54 46.321 83.2938C46.3479 84.0477 46.3681 84.8284 46.3815 85.6361C46.4085 86.4437 46.4556 87.211 46.5229 87.9379C46.7113 86.8745 46.8661 85.9928 46.9873 85.2928C47.1219 84.5928 47.243 84.0342 47.3507 83.6169C47.4719 83.1861 47.5796 82.8698 47.6738 82.6679C47.7815 82.4525 47.8959 82.3112 48.0171 82.2439C48.1517 82.1766 48.293 82.1496 48.4411 82.1631C48.6026 82.1631 48.7911 82.1631 49.0064 82.1631C49.2487 82.1631 49.4439 82.2573 49.592 82.4458C49.7535 82.6342 49.8747 82.8765 49.9554 83.1727C50.0497 83.4688 50.117 83.7919 50.1574 84.1419C50.2112 84.4919 50.2583 84.8351 50.2987 85.1717C50.3391 85.4947 50.3795 85.7909 50.4199 86.0601C50.4737 86.3293 50.5545 86.5178 50.6622 86.6255C50.9987 85.6293 51.2881 84.8149 51.5304 84.1823C51.7727 83.5496 51.9813 83.0515 52.1563 82.6881C52.3313 82.3112 52.4861 82.042 52.6207 81.8804C52.7554 81.7189 52.8765 81.6247 52.9842 81.5977C53.0919 81.5574 53.1861 81.5506 53.2669 81.5775C53.3611 81.6045 53.4553 81.6179 53.5496 81.6179C53.913 81.6179 54.189 81.8064 54.3774 82.1833C54.5928 82.789 54.7409 83.3679 54.8216 83.9198C54.9024 84.4582 54.9495 84.9832 54.963 85.4947C54.9764 85.9928 54.9764 86.4706 54.963 86.9283C54.963 87.386 54.9764 87.8302 55.0034 88.261C55.0437 88.6917 55.1178 89.1158 55.2255 89.533C55.3466 89.9503 55.5485 90.3609 55.8312 90.7647C55.7235 90.9801 55.6158 91.1282 55.5081 91.209C55.4005 91.2763 55.2524 91.3099 55.0639 91.3099C54.9024 91.3099 54.7611 91.2561 54.6399 91.1484C54.5188 91.0272 54.4178 90.8859 54.337 90.7244C54.2563 90.5494 54.189 90.3744 54.1351 90.1994C54.0947 90.0244 54.0543 89.8696 54.014 89.735C53.9601 87.81 53.8726 86.336 53.7515 85.313C53.6438 84.2765 53.4755 83.7313 53.2467 83.6775C53.0178 83.6236 52.7217 84.0746 52.3583 85.0303C52.0083 85.9726 51.5708 87.4533 51.0458 89.4725C51.0054 89.5398 50.9448 89.5802 50.8641 89.5936C50.7833 89.6071 50.6958 89.6138 50.6016 89.6138C50.5208 89.6138 50.4333 89.6138 50.3391 89.6138C50.2583 89.6004 50.1776 89.6004 50.0968 89.6138C49.7603 87.635 49.4776 86.2149 49.2487 85.3534C49.0334 84.4784 48.8113 84.1419 48.5824 84.3438C48.3536 84.5457 48.0978 85.2726 47.8151 86.5245C47.5325 87.7629 47.169 89.5061 46.7248 91.7541L45.7152 91.9964Z" fill="#9C9C9C"/>
<path d="M62.551 82.2681C62.4837 82.2816 62.3827 82.3018 62.2481 82.3287C62.1135 82.3556 61.9722 82.3623 61.8241 82.3489C61.676 82.3354 61.5481 82.295 61.4404 82.2277C61.3193 82.1604 61.2587 82.046 61.2587 81.8845C61.2587 81.7902 61.2789 81.7229 61.3193 81.6825C61.3597 81.6422 61.427 81.5816 61.5212 81.5008C61.8174 81.2585 62.0664 80.9489 62.2683 80.572C62.4837 80.1816 62.6789 79.7711 62.8539 79.3403C63.0289 78.8961 63.2106 78.4586 63.399 78.0279C63.601 77.5836 63.8298 77.1865 64.0856 76.8366C64.3413 76.4866 64.6576 76.2039 65.0346 75.9885C65.4115 75.7731 65.8759 75.6722 66.4278 75.6856C66.6566 75.6856 66.9124 75.7395 67.1951 75.8472C67.4777 75.9548 67.7402 76.1029 67.9825 76.2914C68.2248 76.4664 68.4268 76.6817 68.5883 76.9375C68.7498 77.1933 68.8306 77.476 68.8306 77.7856C68.8979 77.8932 68.8306 78.048 68.6287 78.25C68.4402 78.4519 68.1777 78.674 67.8412 78.9163C67.5047 79.1451 67.121 79.3874 66.6903 79.6432C66.273 79.8855 65.8691 80.1143 65.4788 80.3297C65.0884 80.5451 64.7451 80.7335 64.449 80.8951C64.1529 81.0566 63.9577 81.1778 63.8634 81.2585C63.7961 81.3931 63.7423 81.5479 63.7019 81.7229C63.6615 81.8979 63.6279 82.0662 63.601 82.2277C63.5875 82.3758 63.574 82.5171 63.5606 82.6517C63.5606 82.7729 63.5606 82.8671 63.5606 82.9344C63.5606 83.1902 63.5471 83.4729 63.5202 83.7825C63.5067 84.0921 63.5202 84.3882 63.5606 84.6709C63.6144 84.9401 63.7288 85.169 63.9038 85.3574C64.0788 85.5324 64.375 85.6199 64.7923 85.6199C65.2365 85.6199 65.6538 85.5122 66.0441 85.2968C66.4345 85.068 66.798 84.7921 67.1345 84.469C67.471 84.1459 67.7739 83.7959 68.0431 83.419C68.3258 83.0421 68.5748 82.6921 68.7902 82.3691C69.019 82.0325 69.221 81.7566 69.396 81.5412C69.5709 81.3258 69.719 81.2181 69.8402 81.2181C69.9748 81.2181 70.1161 81.2451 70.2642 81.2989C70.4257 81.3393 70.5065 81.447 70.5065 81.622C70.5065 81.8643 70.4055 82.1537 70.2036 82.4902C70.0152 82.8267 69.7594 83.1835 69.4363 83.5604C69.1267 83.9373 68.7633 84.3142 68.346 84.6911C67.9422 85.0545 67.5316 85.3843 67.1143 85.6805C66.697 85.9632 66.2864 86.1987 65.8826 86.3872C65.4788 86.5622 65.1221 86.6497 64.8125 86.6497C64.2067 86.6497 63.749 86.5016 63.4394 86.2055C63.1298 85.9093 62.9077 85.5391 62.7731 85.0949C62.6519 84.6507 62.5846 84.1796 62.5712 83.6815C62.5712 83.17 62.5644 82.6989 62.551 82.2681ZM66.2662 76.8164C66.0374 76.8164 65.7951 76.9308 65.5393 77.1596C65.2836 77.375 65.0413 77.6442 64.8125 77.9673C64.5971 78.2769 64.4153 78.6 64.2673 78.9365C64.1327 79.2595 64.0654 79.5288 64.0654 79.7441C64.2673 79.7441 64.5567 79.6701 64.9336 79.522C65.324 79.3605 65.7076 79.1653 66.0845 78.9365C66.4614 78.7076 66.7912 78.4653 67.0739 78.2096C67.3566 77.9538 67.4979 77.7115 67.4979 77.4827C67.4979 77.3615 67.4508 77.2606 67.3566 77.1798C67.2624 77.099 67.1479 77.0317 67.0133 76.9779C66.8922 76.924 66.7643 76.8837 66.6297 76.8567C66.4951 76.8298 66.3739 76.8164 66.2662 76.8164ZM62.6318 72.6165C62.6318 72.5896 62.6318 72.5627 62.6318 72.5357C62.6452 72.4953 62.6519 72.4684 62.6519 72.455L65.2163 67.6696C65.2297 67.6157 65.3038 67.5484 65.4384 67.4676C65.573 67.3869 65.7143 67.3465 65.8624 67.3465C65.8759 67.3465 65.8961 67.3532 65.923 67.3667C65.9499 67.3667 65.9634 67.3667 65.9634 67.3667L69.2748 71.2233C69.544 71.2771 69.6988 71.3444 69.7392 71.4252C69.7931 71.506 69.82 71.6136 69.82 71.7483C69.82 71.8021 69.8065 71.8761 69.7796 71.9704C69.7661 72.0511 69.7325 72.1319 69.6786 72.2127C69.6248 72.28 69.5508 72.3405 69.4565 72.3944C69.3758 72.4482 69.2681 72.4752 69.1335 72.4752H69.0527C69.0392 72.4752 69.0325 72.4684 69.0325 72.455L66.2057 68.9214C66.1384 68.8003 66.0105 68.7397 65.822 68.7397H65.7211L63.4192 72.7578C63.4058 72.7848 63.3654 72.8184 63.2981 72.8588C63.2308 72.8992 63.1837 72.9194 63.1567 72.9194C62.9144 72.9194 62.7664 72.8925 62.7125 72.8386C62.6587 72.7848 62.6318 72.7107 62.6318 72.6165Z" fill="#B2B2B2"/>
</svg>
