<svg width="200" height="35" viewBox="0 0 200 35" fill="none" xmlns="http://www.w3.org/2000/svg">
<path d="M0 34.1837V0.307961H6.69816V13.8775L9.85476 0.307961H16.6684L12.8766 15.8215L17.4576 34.1837H10.4322L6.73665 17.7848V34.1837H0Z" fill="#9C9C9C"/>
<path d="M18.2991 34.1837L21.5711 0.307961H33.0619L36.2763 34.1837H29.8668L29.3857 28.7174H25.3052L24.8817 34.1837H18.2991ZM25.7864 23.3088H28.866L27.3839 6.08223H27.0759L25.7864 23.3088Z" fill="#9C9C9C"/>
<path d="M38.6384 34.1837V0.307961H45.1825V34.1837H38.6384Z" fill="#9C9C9C"/>
<path d="M48.4685 34.1837V0.307961H57.7843C60.2223 0.307961 62.0573 0.988042 63.2891 2.3482C64.5209 3.69553 65.1369 5.67162 65.1369 8.27646V24.1365C65.1369 27.3444 64.5723 29.8209 63.4431 31.566C62.3267 33.3111 60.3635 34.1837 57.5533 34.1837H48.4685ZM55.2821 28.1977H56.4562C57.7009 28.1977 58.3232 27.5946 58.3232 26.3884V8.91163C58.3232 7.78244 58.1692 7.05744 57.8613 6.73665C57.5662 6.40303 56.9567 6.23621 56.0328 6.23621H55.2821V28.1977Z" fill="#9C9C9C"/>
<path d="M76.5838 34.4917C73.8763 34.4917 71.804 33.6768 70.3668 32.0472C68.9425 30.4048 68.2303 28.0373 68.2303 24.9449V8.85388C68.2303 5.95392 68.9361 3.75328 70.3476 2.25197C71.7719 0.750655 73.8506 0 76.5838 0C79.3169 0 81.3893 0.750655 82.8008 2.25197C84.2251 3.75328 84.9372 5.95392 84.9372 8.85388V24.9449C84.9372 28.0373 84.2187 30.4048 82.7815 32.0472C81.3572 33.6768 79.2913 34.4917 76.5838 34.4917ZM76.6415 28.2554C77.6681 28.2554 78.1813 27.261 78.1813 25.2721V8.7384C78.1813 7.07028 77.6809 6.23621 76.68 6.23621C75.5508 6.23621 74.9862 7.08952 74.9862 8.79614V25.3106C74.9862 26.3628 75.1146 27.1198 75.3712 27.5818C75.6278 28.0309 76.0513 28.2554 76.6415 28.2554Z" fill="#9C9C9C"/>
<path d="M107.922 34.1837V0.307961H114.659V12.4147H117.854V0.307961H124.59V34.1837H117.854V18.8241H114.659V34.1837H107.922Z" fill="#9C9C9C"/>
<path d="M136.268 34.4917C133.561 34.4917 131.488 33.6768 130.051 32.0472C128.627 30.4048 127.915 28.0373 127.915 24.9449V8.85388C127.915 5.95392 128.621 3.75328 130.032 2.25197C131.456 0.750655 133.535 0 136.268 0C139.001 0 141.074 0.750655 142.485 2.25197C143.909 3.75328 144.622 5.95392 144.622 8.85388V24.9449C144.622 28.0373 143.903 30.4048 142.466 32.0472C141.042 33.6768 138.976 34.4917 136.268 34.4917ZM136.326 28.2554C137.352 28.2554 137.866 27.261 137.866 25.2721V8.7384C137.866 7.07028 137.365 6.23621 136.364 6.23621C135.235 6.23621 134.671 7.08952 134.671 8.79614V25.3106C134.671 26.3628 134.799 27.1198 135.056 27.5818C135.312 28.0309 135.736 28.2554 136.326 28.2554Z" fill="#9C9C9C"/>
<path d="M155.78 34.4917C152.957 34.4917 150.878 33.7025 149.544 32.1242C148.209 30.5331 147.542 28.1977 147.542 25.1181V0.307961H154.125V24.8486C154.125 25.4132 154.157 25.9586 154.221 26.4847C154.285 26.9979 154.433 27.4214 154.664 27.755C154.894 28.0886 155.267 28.2554 155.78 28.2554C156.306 28.2554 156.684 28.095 156.915 27.7743C157.146 27.4406 157.288 27.0108 157.339 26.4847C157.403 25.9586 157.435 25.4132 157.435 24.8486V0.307961H164.018V25.1181C164.018 28.1977 163.351 30.5331 162.016 32.1242C160.682 33.7025 158.603 34.4917 155.78 34.4917Z" fill="#9C9C9C"/>
<path d="M175.253 34.4917C172.161 34.4917 169.928 33.7218 168.555 32.1819C167.195 30.6421 166.515 28.1913 166.515 24.8294V21.5188H173.213V25.7533C173.213 26.536 173.328 27.1519 173.559 27.601C173.803 28.0373 174.22 28.2554 174.81 28.2554C175.426 28.2554 175.85 28.0758 176.081 27.7165C176.324 27.3572 176.446 26.767 176.446 25.9457C176.446 24.9064 176.344 24.0402 176.138 23.3473C175.933 22.6416 175.574 21.9743 175.061 21.3456C174.56 20.704 173.861 19.9597 172.963 19.1128L169.921 16.2257C167.65 14.0828 166.515 11.632 166.515 8.87313C166.515 5.986 167.182 3.78536 168.516 2.27121C169.864 0.757071 171.808 0 174.348 0C177.454 0 179.654 0.827646 180.95 2.48294C182.259 4.13823 182.914 6.65325 182.914 10.028H176.023V7.69903C176.023 7.23709 175.888 6.8778 175.619 6.62117C175.362 6.36453 175.009 6.23621 174.56 6.23621C174.021 6.23621 173.623 6.39019 173.367 6.69816C173.123 6.99329 173.001 7.37824 173.001 7.85301C173.001 8.32778 173.129 8.84105 173.386 9.39282C173.643 9.94458 174.149 10.5798 174.907 11.2983L178.814 15.0516C179.597 15.7958 180.315 16.585 180.97 17.4191C181.624 18.2403 182.15 19.2027 182.548 20.3062C182.946 21.3969 183.145 22.7314 183.145 24.3097C183.145 27.492 182.554 29.9877 181.374 31.797C180.206 33.5934 178.166 34.4917 175.253 34.4917Z" fill="#9C9C9C"/>
<path d="M186.007 34.1837V0.307961H199.557V6.85214H192.898V13.4541H199.288V19.825H192.898V27.5818H200V34.1837H186.007Z" fill="#9C9C9C"/>
<path d="M96.0362 9.19514C95.9465 9.46445 95.7954 9.92677 95.6966 10.223C95.5994 10.5193 95.348 11.2838 95.1385 11.9212C94.9276 12.5585 94.5894 13.5879 94.386 14.2058L94.0149 15.3324H90.4869C88.5464 15.3324 86.959 15.3369 86.959 15.3429C86.959 15.3504 87.2133 15.5374 87.5245 15.7603C87.8342 15.9833 89.106 16.8944 90.3478 17.7846C91.5911 18.6764 92.619 19.417 92.634 19.4304C92.6639 19.4589 92.7162 19.2898 92.0056 21.4443C91.7258 22.2971 91.4909 23.0108 91.066 24.3019C90.855 24.9438 90.6381 25.6021 90.5842 25.7652C90.5303 25.9283 90.4899 26.0659 90.4944 26.0704C90.5049 26.0794 90.1413 26.3397 93.3551 24.0326C94.8692 22.9464 96.1305 22.0412 96.1559 22.0233L96.2053 21.9889L97.3454 22.8088C101.007 25.439 101.913 26.0869 101.918 26.0824C101.921 26.0794 101.849 25.8535 101.759 25.5782C101.668 25.3044 101.436 24.5982 101.241 24.0102C100.477 21.6822 100.176 20.7665 100.028 20.3147C99.8111 19.6563 99.7512 19.4723 99.7512 19.4544C99.7512 19.4454 101.03 18.5223 102.594 17.4001C104.157 16.278 105.437 15.3534 105.437 15.3459C105.437 15.3384 104.077 15.3309 101.91 15.3294L98.3852 15.3249L98.1398 14.5769C98.0052 14.1654 97.7329 13.341 97.5369 12.7441C97.3409 12.1471 96.9639 10.9995 96.699 10.1931C96.4342 9.38665 96.2128 8.72235 96.2068 8.71637C96.2008 8.70889 96.1245 8.92434 96.0362 9.19514Z" fill="#B2B2B2"/>
</svg>
