<svg width="74" height="13" viewBox="0 0 74 13" fill="none" xmlns="http://www.w3.org/2000/svg">
<g clip-path="url(#clip0_36_99)">
<path d="M0 7.08633C0 6.14334 0.173551 5.30463 0.520651 4.5702C0.867752 3.82669 1.34984 3.25093 1.96691 2.84291C2.59169 2.42583 3.29746 2.21729 4.08422 2.21729C5.04839 2.21729 5.87372 2.5165 6.56021 3.11492C7.2467 3.71335 7.70564 4.5294 7.93704 5.56305H5.76188C5.5999 5.16409 5.36849 4.86035 5.06767 4.6518C4.77457 4.44326 4.43904 4.33899 4.06108 4.33899C3.45173 4.33899 2.95807 4.58833 2.58012 5.08702C2.20216 5.58572 2.01319 6.25215 2.01319 7.08633C2.01319 7.9205 2.20216 8.58694 2.58012 9.08563C2.95807 9.58432 3.45173 9.83367 4.06108 9.83367C4.43904 9.83367 4.77457 9.72939 5.06767 9.52085C5.36849 9.31231 5.5999 9.00856 5.76188 8.6096H7.93704C7.70564 9.64326 7.2467 10.4593 6.56021 11.0577C5.87372 11.6471 5.04839 11.9418 4.08422 11.9418C3.29746 11.9418 2.59169 11.7378 1.96691 11.3297C1.34984 10.9127 0.867752 10.3369 0.520651 9.60245C0.173551 8.86802 0 8.02931 0 7.08633Z" fill="white"/>
<path d="M12.9898 11.9693C12.2261 11.9693 11.5242 11.7608 10.884 11.3437C10.2515 10.9266 9.7463 10.3463 9.36835 9.6028C8.99811 8.85023 8.81299 8.00698 8.81299 7.07307C8.81299 6.13916 8.99811 5.30045 9.36835 4.55694C9.7463 3.81344 10.2515 3.23314 10.884 2.81606C11.5242 2.39897 12.2261 2.19043 12.9898 2.19043C13.7534 2.19043 14.4515 2.39897 15.0839 2.81606C15.7242 3.23314 16.2255 3.81344 16.588 4.55694C16.9583 5.30045 17.1434 6.13916 17.1434 7.07307C17.1434 8.00698 16.9583 8.85023 16.588 9.6028C16.2178 10.3463 15.7164 10.9266 15.0839 11.3437C14.4515 11.7608 13.7534 11.9693 12.9898 11.9693ZM12.9898 9.84761C13.6377 9.84761 14.1545 9.59373 14.5402 9.08597C14.9335 8.57821 15.1302 7.90725 15.1302 7.07307C15.1302 6.22983 14.9335 5.55886 14.5402 5.06017C14.1545 4.55241 13.6377 4.29853 12.9898 4.29853C12.3341 4.29853 11.8096 4.54788 11.4162 5.04657C11.0306 5.54526 10.8377 6.22076 10.8377 7.07307C10.8377 7.91631 11.0306 8.59182 11.4162 9.09958C11.8096 9.59827 12.3341 9.84761 12.9898 9.84761Z" fill="white"/>
<path d="M21.1829 11.9693C20.589 11.9693 20.0567 11.856 19.5862 11.6293C19.1157 11.4026 18.7378 11.0671 18.4524 10.6229C18.1747 10.1786 18.0281 9.6436 18.0127 9.01797H20.1184C20.1493 9.37159 20.2534 9.6436 20.4308 9.83401C20.6082 10.0154 20.8396 10.106 21.125 10.106C21.4181 10.106 21.6495 10.029 21.8192 9.87481C21.9889 9.71161 22.0738 9.48946 22.0738 9.20838C22.0738 8.97263 22.0044 8.77769 21.8655 8.62355C21.7344 8.46941 21.5686 8.34247 21.368 8.24273C21.1752 8.14299 20.8975 8.02965 20.535 7.90271C20.0105 7.7123 19.5824 7.52189 19.2507 7.33148C18.919 7.14107 18.6336 6.85999 18.3945 6.48824C18.1554 6.11649 18.0358 5.6314 18.0358 5.03297C18.0358 4.14439 18.3097 3.45075 18.8573 2.95206C19.405 2.44431 20.1184 2.19043 20.9978 2.19043C21.8925 2.19043 22.6137 2.44431 23.1614 2.95206C23.709 3.45075 24.0021 4.14892 24.0407 5.04657H21.9002C21.8848 4.73828 21.7884 4.49801 21.611 4.32573C21.4336 4.14439 21.206 4.05372 20.9283 4.05372C20.6892 4.05372 20.4964 4.13079 20.3498 4.28493C20.2033 4.43 20.13 4.64308 20.13 4.92416C20.13 5.23244 20.2534 5.47272 20.5003 5.645C20.7471 5.81727 21.1327 6.00315 21.6573 6.20263C22.1818 6.41117 22.606 6.61065 22.93 6.80106C23.2616 6.99147 23.547 7.26801 23.7861 7.6307C24.0253 7.99338 24.1448 8.46034 24.1448 9.03157C24.1448 9.5756 24.0253 10.0698 23.7861 10.514C23.5547 10.9583 23.2154 11.312 22.768 11.5749C22.3206 11.8378 21.7922 11.9693 21.1829 11.9693Z" fill="white"/>
<path d="M31.2054 2.32617V4.18946H29.0534V11.8739H27.0749V4.18946H24.9229V2.32617H31.2054Z" fill="white"/>
<path d="M34.1418 2.32617V8.03846C34.1418 8.60968 34.2616 9.04944 34.5007 9.35772C34.7398 9.66601 35.0905 9.82015 35.5533 9.82015C36.0162 9.82015 36.371 9.66601 36.6178 9.35772C36.8646 9.04944 36.9883 8.60968 36.9883 8.03846V2.32617H38.9668V8.02485C38.9668 8.87716 38.8125 9.598 38.504 10.1874C38.1954 10.7767 37.7787 11.221 37.2541 11.5202C36.7373 11.8194 36.1588 11.9691 35.5186 11.9691C34.8784 11.9691 34.304 11.824 33.7949 11.5338C33.2936 11.2346 32.8963 10.7903 32.6032 10.201C32.3101 9.60254 32.1636 8.87716 32.1636 8.02485V2.32617H34.1418Z" fill="white"/>
<path d="M44.498 11.8739L42.8088 8.26967H42.3344V11.8739H40.356V2.32617H43.6766C44.3168 2.32617 44.8606 2.45765 45.3079 2.72059C45.763 2.98353 46.1024 3.34622 46.3261 3.80864C46.5498 4.262 46.6616 4.76976 46.6616 5.33192C46.6616 5.96662 46.5074 6.53331 46.1988 7.032C45.898 7.5307 45.4506 7.88431 44.8567 8.09286L46.731 11.8739H44.498ZM42.3344 6.62398H43.5609C43.9234 6.62398 44.1933 6.51971 44.3708 6.31117C44.5559 6.10262 44.6484 5.80794 44.6484 5.42712C44.6484 5.06444 44.5559 4.77882 44.3708 4.57028C44.1933 4.36173 43.9234 4.25746 43.5609 4.25746H42.3344V6.62398Z" fill="white"/>
<path d="M49.8823 4.18946V6.12076H52.5318V7.91605H49.8823V10.0106H52.8789V11.8739H47.9038V2.32617H52.8789V4.18946H49.8823Z" fill="white"/>
<path d="M56.2692 9.96975H59.7631V11.8739H54.0244V10.1058L57.4957 4.23026H54.0244V2.32617H59.7631V4.09425L56.2692 9.96975Z" fill="white"/>
<path d="M61.9395 0.682129H65.4254V11.8742H61.9395V0.682129Z" fill="#CB0002"/>
<path d="M64.5908 2.89754L67.0557 0L73.7883 7.91399L71.3234 10.8115L64.5908 2.89754Z" fill="#CB0002"/>
<path d="M62.9106 9.47705H63.089V10.3356H63.6555V9.63856H63.8338V10.3356H64.5907V10.5934H62.9106V9.47705Z" fill="#F9E8E8"/>
<path d="M64.5907 8.12574L63.9037 8.5961V8.90778H64.5907V9.16563H62.9106V8.5281C62.9106 8.37886 62.9323 8.25325 62.9757 8.15125C63.0191 8.04734 63.0779 7.9699 63.1517 7.9189C63.2257 7.8679 63.3101 7.8424 63.4048 7.8424C63.5205 7.8424 63.6227 7.88206 63.7109 7.9614C63.7994 8.03884 63.8579 8.15595 63.8869 8.31275L64.5907 7.81689V8.12574ZM63.7278 8.90778V8.5281C63.7278 8.38829 63.6989 8.28345 63.641 8.21358C63.5817 8.14368 63.5029 8.10874 63.4048 8.10874C63.3052 8.10874 63.2281 8.14368 63.1734 8.21358C63.1189 8.28158 63.0914 8.38642 63.0914 8.5281V8.90778H63.7278Z" fill="#F9E8E8"/>
<path d="M64.6078 6.5464C64.6078 6.72962 64.5717 6.89679 64.4993 7.04793C64.4256 7.19904 64.3234 7.31898 64.1932 7.40778C64.0616 7.49466 63.9136 7.53812 63.7497 7.53812C63.5858 7.53812 63.4388 7.49466 63.3086 7.40778C63.177 7.31898 63.0748 7.19904 63.0025 7.04793C62.9287 6.89679 62.8916 6.72962 62.8916 6.5464C62.8916 6.36127 62.9287 6.19316 63.0025 6.04205C63.0748 5.89091 63.176 5.7719 63.3062 5.68503C63.4364 5.59813 63.5844 5.55469 63.7497 5.55469C63.9153 5.55469 64.0631 5.59813 64.1932 5.68503C64.3234 5.7719 64.4256 5.89091 64.4993 6.04205C64.5717 6.19316 64.6078 6.36127 64.6078 6.5464ZM64.4174 6.5464C64.4174 6.4085 64.3902 6.28476 64.3354 6.17522C64.281 6.06375 64.2029 5.97688 64.1016 5.91454C64.0004 5.8503 63.8832 5.8182 63.7497 5.8182C63.6147 5.8182 63.4976 5.8503 63.3978 5.91454C63.2966 5.97688 63.2187 6.06282 63.164 6.17239C63.1095 6.28193 63.082 6.4066 63.082 6.5464C63.082 6.68618 63.1095 6.81085 63.164 6.92042C63.2187 7.02997 63.2966 7.11687 63.3978 7.1811C63.4976 7.24344 63.6147 7.27461 63.7497 7.27461C63.8832 7.27461 64.0004 7.24344 64.1016 7.1811C64.2029 7.11687 64.281 7.02997 64.3354 6.92042C64.3902 6.80896 64.4174 6.68428 64.4174 6.5464Z" fill="#F9E8E8"/>
<path d="M64.5907 3.66162V3.91947L63.2529 4.95652H64.5907V5.21437H62.9082V4.95652L64.2436 3.91947H62.9082V3.66162H64.5907Z" fill="#F9E8E8"/>
<path d="M62.9106 2.00635H63.089V2.54471H64.5907V2.80255H63.089V3.34375H62.9106V2.00635Z" fill="#F9E8E8"/>
<path d="M67.8577 3.12948L67.4607 3.5963L67.8936 4.10522L67.7656 4.25548L67.3327 3.74656L66.9236 4.22743L67.4076 4.79645L67.2799 4.94671L66.6406 4.19538L67.8304 2.79688L68.4697 3.54821L68.3417 3.69847L67.8577 3.12948Z" fill="#F9E8E8"/>
<path d="M68.4487 6.32065L68.2935 6.13832L68.6157 4.29305L67.6696 5.40502L67.5146 5.22271L68.7042 3.82422L68.8594 4.00652L68.5388 5.84982L69.4832 4.73983L69.6382 4.92216L68.4487 6.32065Z" fill="#F9E8E8"/>
<path d="M70.2708 5.66963C70.4004 5.8219 70.4879 5.98219 70.5332 6.1505C70.581 6.31878 70.5851 6.48508 70.5453 6.64936C70.5067 6.81501 70.4265 6.96929 70.305 7.11221C70.1833 7.25513 70.0521 7.34929 69.9111 7.39471C69.7725 7.44013 69.6317 7.43478 69.4886 7.37867C69.3476 7.32257 69.2123 7.21838 69.0829 7.06611L68.7129 6.63134L69.901 5.23486L70.2708 5.66963ZM69.2106 6.91585C69.3642 7.09618 69.5216 7.18634 69.6828 7.18634C69.8453 7.185 69.9998 7.09819 70.1464 6.92588C70.2941 6.75222 70.3686 6.56855 70.3698 6.37488C70.372 6.18255 70.297 5.99687 70.1447 5.81791L69.9299 5.56544L68.9959 6.66339L69.2106 6.91585Z" fill="#F9E8E8"/>
</g>
<defs>
<clipPath id="clip0_36_99">
<rect width="74" height="12.184" fill="white"/>
</clipPath>
</defs>
</svg>
