<svg width="32" height="32" viewBox="0 0 32 32" fill="none" xmlns="http://www.w3.org/2000/svg">
<path d="M32 16C32 24.8366 24.8366 32 16 32C7.16344 32 0 24.8366 0 16C0 7.16344 7.16344 0 16 0C24.8366 0 32 7.16344 32 16Z" fill="black"/>
<path d="M3.33154 18.8696V18.603C3.56931 18.5985 3.73408 18.562 3.82585 18.4937C3.92179 18.4254 3.96976 18.2978 3.96976 18.111V14.4618C3.96976 14.2523 3.92388 14.1019 3.83211 14.0108C3.74034 13.9151 3.57348 13.865 3.33154 13.8605V13.5939C3.41914 13.5985 3.50674 13.6031 3.59434 13.6076C3.68194 13.6122 3.76954 13.6144 3.85714 13.6144C4.01982 13.6144 4.17416 13.6076 4.32016 13.5939C4.47033 13.5757 4.60798 13.5507 4.73312 13.5188V18.111C4.73312 18.2978 4.77901 18.4254 4.87078 18.4937C4.96672 18.562 5.13149 18.5985 5.36509 18.603V18.8696C5.30251 18.865 5.21492 18.8627 5.10229 18.8627C4.99384 18.8582 4.87495 18.8536 4.74564 18.8491C4.61632 18.8445 4.48701 18.8422 4.3577 18.8422C4.16581 18.8422 3.97185 18.8468 3.77579 18.8559C3.57974 18.8604 3.43166 18.865 3.33154 18.8696Z" fill="white"/>
<path d="M7.19654 18.9652C6.87118 18.9652 6.62089 18.8559 6.4457 18.6372C6.27467 18.414 6.18916 18.0973 6.18916 17.6873V16.2113C6.18916 15.9926 6.14119 15.84 6.04525 15.7534C5.94931 15.6623 5.78454 15.6144 5.55094 15.6099V15.3434C5.63019 15.3479 5.71362 15.3525 5.80122 15.357C5.89299 15.3616 5.98685 15.3639 6.08279 15.3639C6.2413 15.3639 6.39147 15.357 6.5333 15.3434C6.6793 15.3251 6.81903 15.3001 6.95252 15.2682V17.7762C6.95252 18.0358 6.99841 18.2317 7.09018 18.3639C7.18194 18.4914 7.3196 18.5552 7.50314 18.5552C7.64914 18.5552 7.78471 18.5097 7.90985 18.4185C8.03499 18.3274 8.14344 18.193 8.23522 18.0153L8.2227 18.316C8.12676 18.521 7.98911 18.6805 7.80973 18.7944C7.63037 18.9083 7.42597 18.9652 7.19654 18.9652ZM8.19767 18.9447V16.2044C8.19767 15.9903 8.15805 15.84 8.07879 15.7534C7.99953 15.6623 7.85979 15.6144 7.65957 15.6099V15.3434C7.73465 15.3479 7.81182 15.3525 7.89108 15.357C7.97033 15.3616 8.05376 15.3639 8.14136 15.3639C8.2957 15.3639 8.43961 15.357 8.5731 15.3434C8.71075 15.3251 8.84007 15.3001 8.96103 15.2682V18.0017C8.96103 18.2158 9.00901 18.3684 9.10495 18.4595C9.20089 18.5507 9.36357 18.5985 9.59297 18.603V18.8696C9.51375 18.8604 9.43034 18.8559 9.34272 18.8559C9.25512 18.8513 9.16543 18.8491 9.07366 18.8491C8.91098 18.8491 8.75663 18.8559 8.61064 18.8696C8.46881 18.8878 8.33116 18.9128 8.19767 18.9447Z" fill="white"/>
<path d="M14.1783 18.8696V18.603C14.3326 18.5985 14.439 18.562 14.4973 18.4937C14.5558 18.4208 14.5849 18.2933 14.5849 18.111V16.4436C14.5849 16.1839 14.5391 15.988 14.4473 15.8559C14.3597 15.7238 14.2283 15.6577 14.0531 15.6577C13.903 15.6577 13.759 15.7078 13.6213 15.8081C13.4879 15.9083 13.3711 16.07 13.271 16.2933L13.2397 16.0541C13.3523 15.7716 13.5087 15.5666 13.709 15.439C13.9092 15.3115 14.1261 15.2477 14.3597 15.2477C14.6767 15.2477 14.9187 15.357 15.0855 15.5757C15.2566 15.7944 15.3421 16.1087 15.3421 16.5188V18.111C15.3421 18.2933 15.388 18.4208 15.4797 18.4937C15.5756 18.562 15.7425 18.5985 15.9803 18.603V18.8696C15.9177 18.865 15.8301 18.8627 15.7175 18.8627C15.609 18.8582 15.4902 18.8536 15.3608 18.8491C15.2315 18.8445 15.1043 18.8422 14.9791 18.8422C14.8248 18.8422 14.6725 18.8468 14.5224 18.8559C14.3722 18.8604 14.2575 18.865 14.1783 18.8696ZM9.96727 18.8696V18.603C10.205 18.5985 10.3698 18.562 10.4615 18.4937C10.5533 18.4208 10.5992 18.2933 10.5992 18.111V16.2113C10.5992 15.9926 10.5512 15.84 10.4553 15.7534C10.3635 15.6623 10.2008 15.6144 9.96727 15.6099V15.3434C10.0549 15.3479 10.1424 15.3525 10.23 15.357C10.3176 15.3616 10.4073 15.3639 10.4991 15.3639C10.6618 15.3639 10.814 15.357 10.9558 15.3434C11.1019 15.3251 11.2374 15.3001 11.3626 15.2682V18.111C11.3626 18.2933 11.3918 18.4208 11.4502 18.4937C11.5086 18.562 11.6129 18.5985 11.763 18.603V18.8696C11.6754 18.865 11.5607 18.8604 11.4189 18.8559C11.2812 18.8468 11.1352 18.8422 10.9809 18.8422C10.8057 18.8422 10.6222 18.8468 10.4303 18.8559C10.2426 18.8604 10.0882 18.865 9.96727 18.8696ZM12.1885 18.8696V18.603C12.3428 18.5985 12.4471 18.562 12.5014 18.4937C12.5597 18.4208 12.5889 18.2933 12.5889 18.111V16.4436C12.5889 16.1839 12.5452 15.988 12.4575 15.8559C12.3699 15.7238 12.2386 15.6577 12.0633 15.6577C11.9174 15.6577 11.7818 15.7033 11.6567 15.7944C11.5315 15.8855 11.4231 16.0199 11.3313 16.1976V15.9037C11.4314 15.6942 11.5732 15.5324 11.7568 15.4185C11.9403 15.3046 12.1468 15.2477 12.3762 15.2477C12.6891 15.2477 12.9289 15.357 13.0957 15.5757C13.2668 15.7898 13.3523 16.0996 13.3523 16.5051V18.111C13.3523 18.2933 13.3815 18.4208 13.4399 18.4937C13.4983 18.562 13.6047 18.5985 13.759 18.603V18.8696C13.6881 18.865 13.5776 18.8604 13.4274 18.8559C13.2772 18.8468 13.1291 18.8422 12.9831 18.8422C12.833 18.8422 12.6828 18.8468 12.5326 18.8559C12.3825 18.8604 12.2677 18.865 12.1885 18.8696Z" fill="white"/>
<path d="M16.3091 18.8696V18.603C16.5469 18.5985 16.7116 18.562 16.8034 18.4937C16.8952 18.4254 16.9411 18.2978 16.9411 18.111V16.2113C16.9411 16.0017 16.8952 15.8513 16.8034 15.7602C16.7116 15.6646 16.5469 15.6144 16.3091 15.6099V15.3434C16.3925 15.3479 16.4781 15.3525 16.5657 15.357C16.6533 15.3616 16.7408 15.3639 16.8284 15.3639C16.9953 15.3639 17.1517 15.357 17.2977 15.3434C17.4479 15.3251 17.5835 15.3001 17.7044 15.2682V18.111C17.7044 18.2978 17.7503 18.4254 17.8421 18.4937C17.9381 18.562 18.1049 18.5985 18.3427 18.603V18.8696C18.2801 18.865 18.1925 18.8627 18.0798 18.8627C17.9714 18.8582 17.8505 18.8536 17.7169 18.8491C17.5876 18.8445 17.4583 18.8422 17.329 18.8422C17.1371 18.8422 16.9432 18.8468 16.7471 18.8559C16.5511 18.8604 16.405 18.865 16.3091 18.8696ZM17.304 14.5985C17.1747 14.5985 17.06 14.5529 16.9598 14.4618C16.8639 14.3662 16.8159 14.2431 16.8159 14.0928C16.8159 13.9379 16.8639 13.8149 16.9598 13.7238C17.06 13.6327 17.1747 13.5871 17.304 13.5871C17.4333 13.5871 17.5459 13.6327 17.6419 13.7238C17.742 13.8149 17.792 13.9379 17.792 14.0928C17.792 14.2431 17.742 14.3662 17.6419 14.4618C17.5459 14.5529 17.4333 14.5985 17.304 14.5985Z" fill="white"/>
<path d="M20.3523 18.9652C20.0436 18.9652 19.7746 18.8923 19.5451 18.7466C19.3199 18.5962 19.1447 18.3821 19.0195 18.1042C18.8986 17.8263 18.8381 17.496 18.8381 17.1133C18.8381 16.7215 18.9007 16.3867 19.0258 16.1087C19.1551 15.8308 19.3386 15.619 19.5764 15.4732C19.8142 15.3229 20.0937 15.2477 20.4149 15.2477C20.6985 15.2477 20.9404 15.3069 21.1407 15.4254C21.3409 15.5393 21.4932 15.7192 21.5975 15.9652C21.7059 16.2112 21.756 16.5302 21.7476 16.922H19.37L19.3574 16.6623H21.028C21.0322 16.439 21.0114 16.2409 20.9655 16.0677C20.9238 15.8946 20.8549 15.7579 20.759 15.6577C20.6631 15.5575 20.54 15.5074 20.3898 15.5074C20.198 15.5074 20.0311 15.6053 19.8893 15.8012C19.7475 15.9926 19.664 16.2978 19.639 16.7169L19.6515 16.7374C19.6473 16.783 19.6432 16.8308 19.639 16.881C19.639 16.9311 19.639 16.988 19.639 17.0518C19.639 17.5165 19.7203 17.8787 19.883 18.1384C20.0457 18.3935 20.2814 18.521 20.5901 18.521C20.7986 18.521 20.9801 18.4664 21.1344 18.357C21.2929 18.2431 21.4264 18.0677 21.5349 17.8308L21.7539 17.9743C21.6371 18.2887 21.4577 18.5324 21.2158 18.7055C20.9738 18.8787 20.686 18.9652 20.3523 18.9652ZM20.4837 14.7898C20.3043 14.6167 20.1458 14.4869 20.0082 14.4003C19.8746 14.3092 19.76 14.2318 19.664 14.168C19.5722 14.1042 19.493 14.029 19.4263 13.9425C19.3428 13.8331 19.3053 13.7215 19.3137 13.6076C19.322 13.4937 19.3637 13.4026 19.4388 13.3343C19.518 13.2568 19.6119 13.2249 19.7203 13.2386C19.8288 13.2477 19.9227 13.3069 20.0019 13.4163C20.0686 13.5074 20.1229 13.6076 20.1646 13.717C20.2063 13.8263 20.2585 13.9584 20.321 14.1133C20.3836 14.2682 20.4775 14.4573 20.6026 14.6805L20.4837 14.7898Z" fill="white"/>
<path d="M22.3176 18.8696V18.603C22.5595 18.5985 22.7243 18.562 22.8119 18.4937C22.9036 18.4208 22.9495 18.2933 22.9495 18.111V16.2113C22.9495 15.9971 22.9016 15.8445 22.8056 15.7534C22.7097 15.6623 22.547 15.6144 22.3176 15.6099V15.3434C22.4219 15.3479 22.5157 15.3525 22.5992 15.357C22.6826 15.3616 22.7723 15.3639 22.8682 15.3639C23.1853 15.3639 23.4668 15.332 23.7129 15.2682V18.0632C23.7129 18.2591 23.7734 18.398 23.8943 18.48C24.0153 18.5575 24.226 18.5985 24.5263 18.603V18.8696C24.4513 18.865 24.347 18.8627 24.2135 18.8627C24.0842 18.8582 23.9423 18.8536 23.788 18.8491C23.6378 18.8445 23.4919 18.8422 23.35 18.8422C23.1414 18.8422 22.9412 18.8468 22.7493 18.8559C22.5575 18.8604 22.4135 18.865 22.3176 18.8696ZM24.8204 16.5461C24.7203 16.5461 24.6389 16.5165 24.5764 16.4573C24.518 16.398 24.4888 16.3183 24.4888 16.2181C24.4888 16.1543 24.4992 16.0974 24.5201 16.0472C24.5451 15.9971 24.568 15.9493 24.5889 15.9037C24.6098 15.8582 24.6202 15.8126 24.6202 15.7671C24.6202 15.6714 24.5576 15.6236 24.4325 15.6236C24.3407 15.6236 24.2448 15.6486 24.1447 15.6987C24.0487 15.7488 23.959 15.8172 23.8756 15.9037C23.7963 15.9857 23.7358 16.0814 23.6941 16.1907L23.6816 15.9037C23.7859 15.6987 23.9236 15.5393 24.0946 15.4254C24.2698 15.3069 24.4533 15.2477 24.6452 15.2477C24.8413 15.2477 24.9956 15.3092 25.1082 15.4322C25.225 15.5552 25.2835 15.7238 25.2835 15.9379C25.2835 16.1201 25.2396 16.2682 25.152 16.3821C25.0686 16.4914 24.9581 16.5461 24.8204 16.5461Z" fill="white"/>
<path d="M27.2321 18.9652C26.9235 18.9652 26.6544 18.8923 26.425 18.7466C26.1997 18.5962 26.0245 18.3821 25.8994 18.1042C25.7784 17.8263 25.7179 17.496 25.7179 17.1133C25.7179 16.7215 25.7805 16.3867 25.9056 16.1087C26.0349 15.8308 26.2185 15.619 26.4562 15.4732C26.694 15.3229 26.9735 15.2477 27.2947 15.2477C27.5784 15.2477 27.8203 15.3069 28.0205 15.4254C28.2208 15.5393 28.373 15.7192 28.4773 15.9652C28.5857 16.2112 28.6358 16.5302 28.6274 16.922H26.2498L26.2372 16.6623H27.9079C27.912 16.439 27.8912 16.2409 27.8453 16.0677C27.8036 15.8946 27.7347 15.7579 27.6388 15.6577C27.5429 15.5575 27.4198 15.5074 27.2696 15.5074C27.0778 15.5074 26.9109 15.6053 26.7691 15.8012C26.6273 15.9926 26.5438 16.2978 26.5188 16.7169L26.5313 16.7374C26.5272 16.783 26.523 16.8308 26.5188 16.881C26.5188 16.9311 26.5188 16.988 26.5188 17.0518C26.5188 17.5165 26.6001 17.8787 26.7628 18.1384C26.9255 18.3935 27.1612 18.521 27.4699 18.521C27.6784 18.521 27.8599 18.4664 28.0142 18.357C28.1727 18.2431 28.3062 18.0677 28.4147 17.8308L28.6337 17.9743C28.5169 18.2887 28.3376 18.5324 28.0956 18.7055C27.8537 18.8787 27.5658 18.9652 27.2321 18.9652Z" fill="white"/>
<path d="M20.6325 14.5753C20.453 14.4022 20.2945 14.2724 20.1569 14.1858C20.0234 14.0947 19.9087 14.0172 19.8128 13.9535C19.721 13.8897 19.6417 13.8145 19.575 13.7279C19.4916 13.6186 19.454 13.507 19.4623 13.3931C19.4707 13.2792 19.5124 13.1881 19.5875 13.1197C19.6667 13.0423 19.7606 13.0104 19.8691 13.0241C19.9775 13.0332 20.0714 13.0924 20.1506 13.2017C20.2174 13.2929 20.2716 13.3931 20.3133 13.5024C20.355 13.6118 20.4072 13.7439 20.4698 13.8988C20.5323 14.0537 20.6262 14.2428 20.7513 14.466L20.6325 14.5753Z" fill="#FFC107"/>
</svg>
