<svg width="418" height="90" viewBox="0 0 418 90" fill="none" xmlns="http://www.w3.org/2000/svg">
<path d="M0 88.3449V84.3191C3.92258 84.2503 6.64086 83.6998 8.15484 82.6675C9.73763 81.6353 10.529 79.7084 10.529 76.8869V21.7643C10.529 18.5987 9.77204 16.3277 8.25806 14.9514C6.74409 13.5062 3.9914 12.7492 0 12.6804V8.65461C1.44516 8.72342 2.89032 8.79224 4.33548 8.86106C5.78064 8.92987 7.22581 8.96428 8.67097 8.96428C11.3548 8.96428 13.9011 8.86106 16.3097 8.65461C18.7871 8.37934 21.0581 8.00084 23.1226 7.51912V76.8869C23.1226 79.7084 23.8796 81.6353 25.3935 82.6675C26.9763 83.6998 29.6946 84.2503 33.5484 84.3191V88.3449C32.5161 88.2761 31.071 88.2417 29.2129 88.2417C27.4237 88.1729 25.4624 88.1041 23.329 88.0352C21.1957 87.9664 19.0624 87.932 16.929 87.932C13.7634 87.932 10.5634 88.0008 7.32903 88.1385C4.09462 88.2073 1.65161 88.2761 0 88.3449Z" fill="white"/>
<path d="M63.7629 89.7901C58.3952 89.7901 54.2661 88.1385 51.3758 84.8353C48.5543 81.4632 47.1435 76.6804 47.1435 70.4869V48.1901C47.1435 44.8869 46.3521 42.5815 44.7694 41.274C43.1866 39.8976 40.4683 39.175 36.6145 39.1062V35.0804C37.922 35.1492 39.2984 35.218 40.7435 35.2869C42.2575 35.3557 43.8059 35.3901 45.3887 35.3901C48.0038 35.3901 50.4812 35.2869 52.821 35.0804C55.2296 34.8051 57.5349 34.4267 59.7371 33.9449V71.8288C59.7371 75.7514 60.4941 78.7105 62.0081 80.7062C63.522 82.6331 65.793 83.5965 68.821 83.5965C71.2296 83.5965 73.4661 82.9084 75.5306 81.532C77.5952 80.1557 79.3844 78.1256 80.8984 75.4417L80.6919 79.9836C79.1091 83.0804 76.8382 85.489 73.879 87.2094C70.9199 88.9299 67.5478 89.7901 63.7629 89.7901ZM80.279 89.4804V48.0869C80.279 44.8525 79.6253 42.5815 78.3177 41.274C77.0102 39.8976 74.7048 39.175 71.4016 39.1062V35.0804C72.6403 35.1492 73.9134 35.218 75.221 35.2869C76.5285 35.3557 77.9048 35.3901 79.35 35.3901C81.8962 35.3901 84.2704 35.2869 86.4726 35.0804C88.7435 34.8051 90.8769 34.4267 92.8726 33.9449V75.2353C92.8726 78.4697 93.664 80.775 95.2468 82.1514C96.8296 83.5277 99.5134 84.2503 103.298 84.3191V88.3449C101.991 88.2073 100.615 88.1385 99.1694 88.1385C97.7242 88.0697 96.2446 88.0352 94.7306 88.0352C92.0468 88.0352 89.5005 88.1385 87.0919 88.3449C84.7522 88.6202 82.4812 88.9987 80.279 89.4804Z" fill="white"/>
<path d="M178.944 88.3449V84.3191C181.49 84.2503 183.245 83.6998 184.208 82.6675C185.172 81.5664 185.653 79.6395 185.653 76.8869V51.6998C185.653 47.7772 184.896 44.8181 183.382 42.8223C181.937 40.8266 179.769 39.8288 176.879 39.8288C174.402 39.8288 172.027 40.5858 169.756 42.0998C167.554 43.6137 165.627 46.0568 163.976 49.4288L163.46 45.8159C165.318 41.5492 167.898 38.4525 171.202 36.5256C174.505 34.5987 178.083 33.6353 181.937 33.6353C187.167 33.6353 191.159 35.2869 193.911 38.5901C196.733 41.8933 198.144 46.6417 198.144 52.8353V76.8869C198.144 79.6395 198.901 81.5664 200.415 82.6675C201.997 83.6998 204.75 84.2503 208.673 84.3191V88.3449C207.64 88.2761 206.195 88.2417 204.337 88.2417C202.548 88.1729 200.587 88.1041 198.453 88.0352C196.32 87.9664 194.221 87.932 192.156 87.932C189.61 87.932 187.098 88.0008 184.621 88.1385C182.144 88.2073 180.251 88.2761 178.944 88.3449ZM109.473 88.3449V84.3191C113.395 84.2503 116.113 83.6998 117.627 82.6675C119.141 81.5664 119.898 79.6395 119.898 76.8869V48.1901C119.898 44.8869 119.107 42.5815 117.524 41.274C116.01 39.8976 113.326 39.175 109.473 39.1062V35.0804C110.918 35.1492 112.363 35.218 113.808 35.2869C115.253 35.3557 116.733 35.3901 118.247 35.3901C120.931 35.3901 123.442 35.2869 125.782 35.0804C128.191 34.8051 130.427 34.4267 132.492 33.9449V76.8869C132.492 79.6395 132.974 81.5664 133.937 82.6675C134.901 83.6998 136.621 84.2503 139.098 84.3191V88.3449C137.653 88.2761 135.761 88.2073 133.421 88.1385C131.15 88.0008 128.741 87.932 126.195 87.932C123.305 87.932 120.277 88.0008 117.111 88.1385C114.015 88.2073 111.468 88.2761 109.473 88.3449ZM146.118 88.3449V84.3191C148.664 84.2503 150.384 83.6998 151.279 82.6675C152.242 81.5664 152.724 79.6395 152.724 76.8869V51.6998C152.724 47.7772 152.002 44.8181 150.556 42.8223C149.111 40.8266 146.944 39.8288 144.053 39.8288C141.645 39.8288 139.408 40.517 137.344 41.8933C135.279 43.2697 133.49 45.2998 131.976 47.9836V43.5449C133.627 40.3793 135.967 37.9363 138.995 36.2159C142.023 34.4955 145.43 33.6353 149.215 33.6353C154.376 33.6353 158.333 35.2869 161.085 38.5901C163.907 41.8245 165.318 46.5041 165.318 52.6288V76.8869C165.318 79.6395 165.799 81.5664 166.763 82.6675C167.726 83.6998 169.481 84.2503 172.027 84.3191V88.3449C170.858 88.2761 169.034 88.2073 166.556 88.1385C164.079 88.0008 161.636 87.932 159.227 87.932C156.75 87.932 154.273 88.0008 151.795 88.1385C149.318 88.2073 147.425 88.2761 146.118 88.3449Z" fill="white"/>
<path d="M214.098 88.3449V84.3191C218.02 84.2503 220.738 83.6998 222.252 82.6675C223.766 81.6353 224.523 79.7084 224.523 76.8869V48.1901C224.523 45.0245 223.766 42.7535 222.252 41.3772C220.738 39.932 218.02 39.175 214.098 39.1062V35.0804C215.474 35.1492 216.885 35.218 218.33 35.2869C219.775 35.3557 221.22 35.3901 222.665 35.3901C225.418 35.3901 227.999 35.2869 230.407 35.0804C232.885 34.8051 235.121 34.4267 237.117 33.9449V76.8869C237.117 79.7084 237.874 81.6353 239.388 82.6675C240.971 83.6998 243.723 84.2503 247.646 84.3191V88.3449C246.614 88.2761 245.169 88.2417 243.31 88.2417C241.521 88.1729 239.526 88.1041 237.323 88.0352C235.19 87.9664 233.057 87.932 230.923 87.932C227.758 87.932 224.558 88.0008 221.323 88.1385C218.089 88.2073 215.68 88.2761 214.098 88.3449ZM230.51 23.8288C228.377 23.8288 226.485 23.1406 224.833 21.7643C223.25 20.3191 222.459 18.4611 222.459 16.1901C222.459 13.8503 223.25 11.9922 224.833 10.6159C226.485 9.23955 228.377 8.55138 230.51 8.55138C232.644 8.55138 234.502 9.23955 236.085 10.6159C237.736 11.9922 238.562 13.8503 238.562 16.1901C238.562 18.4611 237.736 20.3191 236.085 21.7643C234.502 23.1406 232.644 23.8288 230.51 23.8288Z" fill="white"/>
<path d="M280.8 89.7901C275.708 89.7901 271.269 88.689 267.484 86.4869C263.768 84.2159 260.877 80.9815 258.813 76.7836C256.817 72.5858 255.819 67.5965 255.819 61.8159C255.819 55.8976 256.852 50.8396 258.916 46.6417C261.049 42.4439 264.077 39.2439 268 37.0417C271.923 34.7707 276.533 33.6353 281.832 33.6353C286.512 33.6353 290.503 34.5299 293.806 36.3191C297.11 38.0396 299.622 40.7578 301.342 44.474C303.131 48.1901 303.957 53.0073 303.819 58.9256H264.594L264.387 55.003H291.948C292.017 51.631 291.673 48.6374 290.916 46.0224C290.228 43.4073 289.092 41.3428 287.51 39.8288C285.927 38.3148 283.897 37.5578 281.419 37.5578C278.254 37.5578 275.501 39.0374 273.161 41.9965C270.822 44.8869 269.445 49.4976 269.032 55.8288L269.239 56.1385C269.17 56.8266 269.101 57.5492 269.032 58.3062C269.032 59.0632 269.032 59.9234 269.032 60.8869C269.032 67.9062 270.374 73.3772 273.058 77.2998C275.742 81.1535 279.63 83.0804 284.723 83.0804C288.163 83.0804 291.157 82.2546 293.703 80.603C296.318 78.8826 298.52 76.2331 300.31 72.6546L303.923 74.8223C301.996 79.5707 299.037 83.2525 295.045 85.8675C291.054 88.4826 286.305 89.7901 280.8 89.7901ZM282.968 26.7191C280.009 24.1041 277.394 22.1428 275.123 20.8353C272.92 19.4589 271.028 18.289 269.445 17.3256C267.931 16.3621 266.624 15.2267 265.523 13.9191C264.146 12.2675 263.527 10.5815 263.665 8.86106C263.802 7.14063 264.49 5.76429 265.729 4.73203C267.037 3.56214 268.585 3.08042 270.374 3.28687C272.163 3.4245 273.712 4.31913 275.019 5.97074C276.12 7.34708 277.015 8.86106 277.703 10.5127C278.391 12.1643 279.252 14.16 280.284 16.4998C281.316 18.8396 282.865 21.6955 284.929 25.0675L282.968 26.7191Z" fill="white"/>
<path d="M313.223 88.3449V84.3191C317.214 84.2503 319.932 83.6998 321.377 82.6675C322.891 81.5664 323.648 79.6395 323.648 76.8869V48.1901C323.648 44.9557 322.857 42.6503 321.274 41.274C319.691 39.8976 317.008 39.175 313.223 39.1062V35.0804C314.943 35.1492 316.491 35.218 317.868 35.2869C319.244 35.3557 320.724 35.3901 322.306 35.3901C327.537 35.3901 332.182 34.9084 336.242 33.9449V76.1643C336.242 79.1234 337.24 81.2224 339.235 82.4611C341.231 83.631 344.706 84.2503 349.661 84.3191V88.3449C348.423 88.2761 346.702 88.2417 344.5 88.2417C342.367 88.1729 340.027 88.1041 337.481 88.0352C335.003 87.9664 332.595 87.932 330.255 87.932C326.814 87.932 323.511 88.0008 320.345 88.1385C317.18 88.2073 314.805 88.2761 313.223 88.3449ZM354.513 53.2482C352.861 53.2482 351.519 52.8008 350.487 51.9062C349.524 51.0116 349.042 49.8073 349.042 48.2933C349.042 47.3299 349.214 46.4697 349.558 45.7127C349.971 44.9557 350.349 44.2331 350.694 43.5449C351.038 42.8568 351.21 42.1686 351.21 41.4804C351.21 40.0353 350.177 39.3127 348.113 39.3127C346.599 39.3127 345.016 39.6912 343.365 40.4482C341.782 41.2051 340.302 42.2374 338.926 43.5449C337.618 44.7836 336.62 46.2288 335.932 47.8804L335.726 43.5449C337.446 40.4482 339.717 38.0396 342.539 36.3191C345.429 34.5299 348.457 33.6353 351.623 33.6353C354.857 33.6353 357.403 34.5643 359.261 36.4223C361.188 38.2804 362.152 40.8266 362.152 44.0611C362.152 46.8137 361.429 49.0503 359.984 50.7707C358.608 52.4223 356.784 53.2482 354.513 53.2482Z" fill="white"/>
<path d="M394.3 89.7901C389.208 89.7901 384.769 88.689 380.984 86.4869C377.268 84.2159 374.377 80.9815 372.313 76.7836C370.317 72.5858 369.319 67.5965 369.319 61.8159C369.319 55.8976 370.352 50.8396 372.416 46.6417C374.549 42.4439 377.577 39.2439 381.5 37.0417C385.423 34.7707 390.033 33.6353 395.332 33.6353C400.012 33.6353 404.003 34.5299 407.306 36.3191C410.61 38.0396 413.122 40.7578 414.842 44.474C416.631 48.1901 417.457 53.0073 417.319 58.9256H378.094L377.887 55.003H405.448C405.517 51.631 405.173 48.6374 404.416 46.0224C403.728 43.4073 402.592 41.3428 401.01 39.8288C399.427 38.3148 397.397 37.5578 394.919 37.5578C391.754 37.5578 389.001 39.0374 386.661 41.9965C384.322 44.8869 382.945 49.4976 382.532 55.8288L382.739 56.1385C382.67 56.8266 382.601 57.5492 382.532 58.3062C382.532 59.0632 382.532 59.9234 382.532 60.8869C382.532 67.9062 383.874 73.3772 386.558 77.2998C389.242 81.1535 393.13 83.0804 398.223 83.0804C401.663 83.0804 404.657 82.2546 407.203 80.603C409.818 78.8826 412.02 76.2331 413.81 72.6546L417.423 74.8223C415.496 79.5707 412.537 83.2525 408.545 85.8675C404.554 88.4826 399.805 89.7901 394.3 89.7901Z" fill="white"/>
<path d="M285.422 23.4787C282.462 20.8637 279.847 18.9024 277.576 17.5948C275.374 16.2185 273.482 15.0486 271.899 14.0852C270.385 13.1217 269.077 11.9862 267.976 10.6787C266.6 9.0271 265.981 7.34107 266.118 5.62064C266.256 3.90021 266.944 2.52387 268.183 1.49161C269.49 0.32172 271.039 -0.16 272.828 0.0464516C274.617 0.184086 276.166 1.07871 277.473 2.73032C278.574 4.10666 279.469 5.62064 280.157 7.27225C280.845 8.92387 281.705 10.9196 282.738 13.2593C283.77 15.5991 285.318 18.4551 287.383 21.8271L285.422 23.4787Z" fill="#FFC107"/>
</svg>
